<svg width="209" height="78" viewBox="0 0 209 78" fill="none" xmlns="http://www.w3.org/2000/svg">
<path fill-rule="evenodd" clip-rule="evenodd" d="M26.3562 50.9292V67.2854L10 59.1073L26.3562 50.9292Z" fill="#1F458A"/>
<path fill-rule="evenodd" clip-rule="evenodd" d="M10 10L42.7124 26.3911V42.7124L10 26.3562V10Z" fill="#1F458A"/>
<path fill-rule="evenodd" clip-rule="evenodd" d="M10 59.1074L42.7124 42.7163V26.395L10 42.7512V59.1074Z" fill="#234F9D"/>
<path d="M73.7492 29.7946V46.6426H69.6452V36.5386L65.8772 46.6426H62.5652L58.7732 36.5146V46.6426H54.6692V29.7946H59.5172L64.2452 41.4586L68.9252 29.7946H73.7492ZM91.3804 33.2506L82.9804 53.0026H78.5644L81.6364 46.1866L76.1884 33.2506H80.7724L83.8684 41.6266L86.9404 33.2506H91.3804Z" fill="#404040"/>
<path d="M97.9685 29.7946V46.6426H93.8645V29.7946H97.9685ZM117.015 46.6426H112.911L106.047 36.2506V46.6426H101.943V29.7946H106.047L112.911 40.2346V29.7946H117.015V46.6426ZM136.805 29.7946L130.829 46.6426H125.693L119.717 29.7946H124.085L128.261 42.5146L132.461 29.7946H136.805ZM147.489 46.8106C145.905 46.8106 144.449 46.4426 143.121 45.7066C141.809 44.9706 140.761 43.9466 139.977 42.6346C139.209 41.3066 138.825 39.8186 138.825 38.1706C138.825 36.5226 139.209 35.0426 139.977 33.7306C140.761 32.4186 141.809 31.3946 143.121 30.6586C144.449 29.9226 145.905 29.5546 147.489 29.5546C149.073 29.5546 150.521 29.9226 151.833 30.6586C153.161 31.3946 154.201 32.4186 154.953 33.7306C155.721 35.0426 156.105 36.5226 156.105 38.1706C156.105 39.8186 155.721 41.3066 154.953 42.6346C154.185 43.9466 153.145 44.9706 151.833 45.7066C150.521 46.4426 149.073 46.8106 147.489 46.8106ZM147.489 43.0666C148.833 43.0666 149.905 42.6186 150.705 41.7226C151.521 40.8266 151.929 39.6426 151.929 38.1706C151.929 36.6826 151.521 35.4986 150.705 34.6186C149.905 33.7226 148.833 33.2746 147.489 33.2746C146.129 33.2746 145.041 33.7146 144.225 34.5946C143.425 35.4746 143.025 36.6666 143.025 38.1706C143.025 39.6586 143.425 40.8506 144.225 41.7466C145.041 42.6266 146.129 43.0666 147.489 43.0666ZM163.492 29.7946V46.6426H159.388V29.7946H163.492ZM166.77 38.1946C166.77 36.5306 167.13 35.0506 167.85 33.7546C168.57 32.4426 169.57 31.4266 170.85 30.7066C172.146 29.9706 173.61 29.6026 175.242 29.6026C177.242 29.6026 178.954 30.1306 180.378 31.1866C181.802 32.2426 182.754 33.6826 183.234 35.5066H178.722C178.386 34.8026 177.906 34.2666 177.282 33.8986C176.674 33.5306 175.978 33.3466 175.194 33.3466C173.93 33.3466 172.906 33.7866 172.122 34.6666C171.338 35.5466 170.946 36.7226 170.946 38.1946C170.946 39.6666 171.338 40.8426 172.122 41.7226C172.906 42.6026 173.93 43.0426 175.194 43.0426C175.978 43.0426 176.674 42.8586 177.282 42.4906C177.906 42.1226 178.386 41.5866 178.722 40.8826H183.234C182.754 42.7066 181.802 44.1466 180.378 45.2026C178.954 46.2426 177.242 46.7626 175.242 46.7626C173.61 46.7626 172.146 46.4026 170.85 45.6826C169.57 44.9466 168.57 43.9306 167.85 42.6346C167.13 41.3386 166.77 39.8586 166.77 38.1946ZM190.851 33.0826V36.4906H196.347V39.6586H190.851V43.3546H197.067V46.6426H186.747V29.7946H197.067V33.0826H190.851Z" fill="#234F9D"/>
</svg>
