<svg width="250" height="250" viewBox="0 0 250 250" fill="none" xmlns="http://www.w3.org/2000/svg">
<path d="M73.235 19.7949H28.98V93.0549H73.235V19.7949Z" fill="#E0E0E0"/>
<path d="M71.765 19.7949H27.51V93.0549H71.765V19.7949Z" fill="#EBEBEB"/>
<path d="M69.885 21.2798H29.395V91.5648H69.885V21.2798Z" fill="#FAFAFA"/>
<path d="M62 30.415H37.105V82.435H62V30.415Z" fill="#EBEBEB"/>
<path d="M37.1051 64.025C37.0451 59.165 41.4151 54.42 46.2251 53.745C48.5201 53.42 50.9601 53.875 53.1051 52.995C56.9301 51.425 58.1501 46.34 62.0001 44.835L62.1751 82.435H37.1051V64.025Z" fill="#E0E0E0"/>
<path d="M236.205 22.54H193.76V66.785H236.205V22.54Z" fill="#E0E0E0"/>
<path d="M233.33 22.54H190.885V66.785H233.33V22.54Z" fill="#FAFAFA"/>
<path d="M233.34 66.7949H190.87V22.5249H233.34V66.7949ZM190.895 66.7699H233.315V22.5499H190.895V66.7699Z" fill="#E0E0E0"/>
<path d="M227.625 28.4849H196.59V60.8349H227.625V28.4849Z" fill="#FAFAFA"/>
<path d="M196.59 61.0498C196.372 61.3761 196.115 61.675 195.825 61.9398C195.325 62.4648 194.63 63.1698 193.85 63.9398C193.07 64.7098 192.35 65.3948 191.825 65.8798C191.557 66.1655 191.254 66.4174 190.925 66.6298C191.145 66.3046 191.402 66.006 191.69 65.7398C192.19 65.2398 192.88 64.5098 193.665 63.7398C194.45 62.9698 195.165 62.2798 195.695 61.7948C195.963 61.5118 196.263 61.2618 196.59 61.0498Z" fill="#E0E0E0"/>
<path d="M227.625 60.9697C227.949 61.1911 228.247 61.4477 228.515 61.7347C229.015 62.2347 229.745 62.9297 230.515 63.7347C231.285 64.5397 231.965 65.2347 232.455 65.7647C232.739 66.0311 232.99 66.3318 233.2 66.6597C232.876 66.4418 232.579 66.1867 232.315 65.8997C231.79 65.3997 231.08 64.7047 230.315 63.8997C229.55 63.0947 228.855 62.3997 228.37 61.8697C228.085 61.6017 227.835 61.2994 227.625 60.9697Z" fill="#E0E0E0"/>
<path d="M227.54 28.575C227.758 28.2487 228.015 27.9498 228.305 27.685C228.805 27.185 229.495 26.45 230.275 25.685C231.055 24.92 231.775 24.23 232.305 23.74C232.575 23.4606 232.875 23.2124 233.2 23C232.982 23.3236 232.727 23.6207 232.44 23.885C231.94 24.41 231.245 25.12 230.44 25.885C229.635 26.65 228.94 27.345 228.41 27.83C228.147 28.1077 227.855 28.3574 227.54 28.575Z" fill="#E0E0E0"/>
<path d="M196.5 28.6497C196.174 28.4314 195.875 28.1746 195.61 27.8847C195.085 27.3847 194.38 26.6947 193.61 25.9147C192.84 25.1347 192.155 24.4147 191.67 23.8847C191.387 23.6161 191.135 23.3158 190.92 22.9897C191.246 23.2066 191.545 23.4618 191.81 23.7497C192.31 24.2497 193.04 24.9447 193.81 25.7497C194.58 26.5547 195.27 27.2497 195.755 27.7797C196.036 28.0398 196.286 28.3318 196.5 28.6497Z" fill="#E0E0E0"/>
<path d="M227.54 60.8351C227.536 60.7835 227.536 60.7317 227.54 60.6801C227.54 60.5701 227.54 60.4201 227.54 60.2251C227.54 59.8201 227.54 59.2251 227.54 58.4801C227.54 56.9501 227.54 54.7201 227.51 51.8901C227.51 46.2201 227.475 38.1501 227.45 28.4851L227.57 28.6051H196.625L196.76 28.4651C196.76 40.3401 196.76 51.4651 196.76 60.8151L196.64 60.7001L219.05 60.7601L225.34 60.7901H227.01H227.59C227.543 60.7946 227.497 60.7946 227.45 60.7901H227H225.355L219.09 60.8201L196.59 60.8801H196.47V60.7601C196.47 51.3951 196.47 40.2851 196.47 28.4101V28.3501H196.615H227.56H227.68V28.5001C227.65 38.2001 227.63 46.2951 227.615 52.0001C227.615 54.8201 227.615 57.0401 227.585 58.5651C227.585 59.3151 227.585 59.8901 227.585 60.2901C227.585 60.4751 227.585 60.6201 227.585 60.7251C227.585 60.8301 227.54 60.8401 227.54 60.8351Z" fill="#E0E0E0"/>
<path d="M217.285 39.4849H206.93V49.8399H217.285V39.4849Z" fill="#EBEBEB"/>
<path d="M172.1 229.875C171.22 229.12 169.25 226.725 170.77 223.935C171.325 222.935 172.51 222.405 173.575 221.935C174.64 221.465 175.77 221.095 176.655 220.34C178.325 218.92 178.785 216.565 179.895 214.67C181.165 212.495 183.54 210.865 186.05 210.98C188.92 211.11 191.315 213.455 192.4 216.13C193.485 218.805 193.525 221.775 193.55 224.665C193.55 226.26 193.49 228.06 192.315 229.14C191.235 230.14 189.61 230.14 188.14 230.1L172.445 229.6" fill="#F5F5F5"/>
<path d="M202.125 186.715H160.845L168.28 231.05C168.433 231.974 168.846 232.836 169.47 233.536C170.094 234.235 170.904 234.743 171.805 235L171.95 235.04C172.07 235.07 172.19 235.11 172.315 235.135C172.592 235.189 172.873 235.221 173.155 235.23V235.275L173.355 235.24H191.755C192.091 235.239 192.426 235.205 192.755 235.14C193.829 234.973 194.819 234.459 195.573 233.676C196.327 232.893 196.804 231.885 196.93 230.805L200.515 200.255L200.675 199.04L202.09 186.945L202.125 186.715ZM194.335 215H190.1L190.53 202.135H195.435L194.335 215ZM195.835 202.135H199.895L198.395 215H194.75L195.835 202.135ZM183.735 229.265L183.5 218.08H189.605L189.23 229.26L183.735 229.265ZM177.15 218.08H183.075L183.335 229.26H178L177.15 218.08ZM177.61 229.26H172.64C172.165 226.26 171.55 222.32 170.885 218.08H176.74L177.61 229.26ZM176.91 215L175.91 202.135H182.71L183 215H176.91ZM183.41 215L183.115 202.135H190.115L189.69 215H183.41ZM183.045 199.045L182.77 187.13H190.61L190.215 199.045H183.045ZM182.635 199.045H175.67L174.745 187.13H182.365L182.635 199.045ZM175.255 199.045H167.885C167.625 197.4 167.385 195.845 167.155 194.44C166.385 189.625 166.095 187.81 165.935 187.13H174.335L175.255 199.045ZM175.495 202.135L176.5 215H170.4C170.195 213.695 169.99 212.375 169.78 211.055C169.305 208.015 168.825 204.98 168.375 202.135H175.495ZM170 215H166L163.84 202.135H167.955C168.59 206.105 169.285 210.53 170 215ZM170.5 218.085C171.11 221.955 171.705 225.77 172.255 229.265H168.425L166.5 218.08L170.5 218.085ZM189.655 229.265L190.03 218.085H194.105L193.15 229.265H189.655ZM190.655 199.045L191.05 187.13H196.745L195.745 199.045H190.655ZM165.57 187.13C165.735 187.99 166.485 192.68 167.495 199.045H163.35L161.35 187.13H165.57ZM196.745 229.265H193.555L194.5 218.08H198.045L196.745 229.265ZM200.29 199.045H196.135L197.135 187.13H201.67L200.29 199.045Z" fill="#E0E0E0"/>
<path d="M225.62 235.705C225.62 235.78 177.655 235.835 118.5 235.835C59.3451 235.835 11.3701 235.78 11.3701 235.705C11.3701 235.63 59.3251 235.575 118.5 235.575C177.675 235.575 225.62 235.635 225.62 235.705Z" fill="#263238"/>
<path d="M168.255 181.54L111.5 181.5C108.222 181.497 105.08 180.193 102.763 177.875C100.446 175.556 99.145 172.413 99.145 169.135V26.855C99.1463 25.2291 99.4683 23.6195 100.092 22.1181C100.717 20.6168 101.631 19.2533 102.783 18.1057C103.934 16.9581 105.301 16.049 106.805 15.4303C108.308 14.8115 109.919 14.4954 111.545 14.5L168.3 14.535C171.578 14.5377 174.72 15.8416 177.037 18.1602C179.354 20.4788 180.655 23.6224 180.655 26.9L180.625 169.175C180.626 170.799 180.306 172.408 179.685 173.909C179.063 175.41 178.152 176.773 177.003 177.922C175.854 179.07 174.49 179.981 172.989 180.602C171.488 181.222 169.879 181.541 168.255 181.54Z" fill="#455A64"/>
<path d="M168.24 19.5701H157.24C156.881 19.5779 156.528 19.6562 156.2 19.8007C155.871 19.9451 155.575 20.1528 155.327 20.4119C155.079 20.671 154.884 20.9764 154.755 21.3107C154.625 21.6449 154.562 22.0015 154.57 22.3601V24.3601C154.578 24.7186 154.515 25.0752 154.385 25.4095C154.255 25.7437 154.061 26.0491 153.813 26.3082C153.565 26.5673 153.268 26.775 152.94 26.9195C152.612 27.0639 152.258 27.1423 151.9 27.1501H130.45C129.725 27.133 129.037 26.8291 128.537 26.305C128.036 25.781 127.764 25.0796 127.78 24.3551V22.3551C127.796 21.6305 127.524 20.9292 127.023 20.4051C126.523 19.881 125.834 19.5771 125.11 19.5601H111.61C110.472 19.5588 109.346 19.7816 108.295 20.216C107.244 20.6504 106.288 21.2877 105.483 22.0915C104.679 22.8953 104.04 23.8499 103.605 24.9006C103.169 25.9514 102.945 27.0776 102.945 28.2151L102.92 167.09C102.92 169.385 103.831 171.586 105.453 173.21C107.075 174.834 109.275 175.747 111.57 175.75L168.21 175.78C169.347 175.781 170.474 175.558 171.525 175.124C172.576 174.69 173.532 174.052 174.336 173.249C175.141 172.445 175.78 171.49 176.215 170.439C176.651 169.389 176.875 168.262 176.875 167.125V28.2501C176.88 25.9542 175.974 23.7501 174.354 22.1224C172.735 20.4947 170.536 19.5767 168.24 19.5701Z" fill="#FAFAFA"/>
<path d="M158.4 24.0752H157.77V24.9552H158.4V24.0752Z" fill="#263238"/>
<path d="M159.425 23.6851H158.795V24.9601H159.425V23.6851Z" fill="#263238"/>
<path d="M160.445 23.3901H159.815V24.9601H160.445V23.3901Z" fill="#263238"/>
<path d="M161.47 22.8198H160.84V24.9598H161.47V22.8198Z" fill="#263238"/>
<path d="M170.755 24.9998H167.6C167.54 24.9999 167.482 24.9763 167.439 24.9343C167.396 24.8922 167.371 24.835 167.37 24.7748V23.2048C167.37 23.1452 167.394 23.0879 167.436 23.0457C167.478 23.0035 167.535 22.9798 167.595 22.9798H170.755C170.768 22.9748 170.782 22.9748 170.795 22.9798C170.799 22.9945 170.799 23.0101 170.795 23.0248V23.5248H171.135C171.151 23.5248 171.166 23.5312 171.178 23.5424C171.189 23.5537 171.195 23.5689 171.195 23.5848V24.3398C171.194 24.3549 171.187 24.3689 171.176 24.3791C171.165 24.3893 171.15 24.3949 171.135 24.3948H170.795V24.8948C170.809 24.9001 170.82 24.9108 170.826 24.9244C170.832 24.938 170.833 24.9534 170.828 24.9673C170.822 24.9813 170.812 24.9925 170.798 24.9986C170.784 25.0047 170.769 25.0051 170.755 24.9998ZM170.695 23.0948H167.595C167.581 23.0948 167.566 23.0977 167.553 23.1032C167.54 23.1087 167.528 23.1168 167.517 23.1271C167.507 23.1373 167.499 23.1494 167.493 23.1627C167.488 23.1761 167.485 23.1904 167.485 23.2048V24.7748C167.485 24.7897 167.488 24.8044 167.494 24.8181C167.5 24.8318 167.508 24.8442 167.519 24.8544C167.53 24.8647 167.543 24.8727 167.556 24.8779C167.57 24.8832 167.585 24.8855 167.6 24.8848H170.695V24.3848C170.695 24.3689 170.701 24.3537 170.713 24.3424C170.724 24.3312 170.739 24.3248 170.755 24.3248H171.09V23.6698H170.755C170.747 23.6705 170.74 23.6696 170.733 23.6672C170.725 23.6647 170.719 23.6608 170.713 23.6556C170.707 23.6504 170.703 23.6441 170.7 23.6371C170.697 23.6301 170.695 23.6225 170.695 23.6148V23.0948Z" fill="#263238"/>
<path d="M167.745 24.63V23.355H170.44V23.93V24.055V24.63H167.745Z" fill="#263238"/>
<path d="M164.5 24.8799C164.499 24.8193 164.474 24.7615 164.431 24.7187C164.388 24.6758 164.331 24.6512 164.27 24.6499C164.209 24.6499 164.151 24.6741 164.107 24.7173C164.064 24.7604 164.04 24.8189 164.04 24.8799C164.039 24.9103 164.045 24.9405 164.056 24.9687C164.068 24.9969 164.084 25.0226 164.106 25.0441C164.127 25.0656 164.153 25.0825 164.181 25.0938C164.209 25.1051 164.24 25.1106 164.27 25.1099C164.331 25.1099 164.39 25.0857 164.433 25.0425C164.476 24.9994 164.5 24.9409 164.5 24.8799Z" fill="#263238"/>
<path d="M163.46 24.3251L163.755 24.6201C163.82 24.553 163.897 24.4996 163.983 24.4631C164.069 24.4266 164.162 24.4078 164.255 24.4078C164.348 24.4078 164.441 24.4266 164.527 24.4631C164.612 24.4996 164.69 24.553 164.755 24.6201L165.05 24.3251C164.945 24.2202 164.82 24.1374 164.683 24.0816C164.545 24.0258 164.398 23.9981 164.25 24.0001C163.954 24.0004 163.67 24.1171 163.46 24.3251Z" fill="#263238"/>
<path d="M164.25 23.34C163.784 23.3344 163.334 23.5142 163 23.84L163.29 24.135C163.545 23.8825 163.889 23.7408 164.247 23.7408C164.606 23.7408 164.95 23.8825 165.205 24.135L165.5 23.84C165.165 23.5152 164.716 23.3355 164.25 23.34Z" fill="#263238"/>
<path d="M162.5 23.3802L162.795 23.6752C163.176 23.2948 163.692 23.0811 164.23 23.0811C164.768 23.0811 165.284 23.2948 165.665 23.6752L165.96 23.3802C165.501 22.9222 164.879 22.665 164.23 22.665C163.581 22.665 162.959 22.9222 162.5 23.3802Z" fill="#263238"/>
<path d="M143.69 36.8501H139.88C139.618 36.8501 139.405 37.0628 139.405 37.3251V39.9101C139.405 40.1724 139.618 40.3851 139.88 40.3851H143.69C143.952 40.3851 144.165 40.1724 144.165 39.9101V37.3251C144.165 37.0628 143.952 36.8501 143.69 36.8501Z" fill="#263238"/>
<path d="M140.455 37.0798H139.955V36.4998C139.942 36.2518 139.98 36.0037 140.066 35.7707C140.152 35.5377 140.284 35.3246 140.455 35.1445C140.626 34.9643 140.832 34.8209 141.06 34.7228C141.288 34.6248 141.534 34.5742 141.783 34.5742C142.031 34.5742 142.277 34.6248 142.505 34.7228C142.733 34.8209 142.939 34.9643 143.11 35.1445C143.281 35.3246 143.413 35.5377 143.499 35.7707C143.585 36.0037 143.623 36.2518 143.61 36.4998V36.8798H143.11V36.4998C143.121 36.3187 143.095 36.1371 143.033 35.9664C142.972 35.7957 142.876 35.6394 142.751 35.5072C142.627 35.3749 142.477 35.2695 142.31 35.1975C142.144 35.1255 141.964 35.0883 141.783 35.0883C141.601 35.0883 141.422 35.1255 141.255 35.1975C141.088 35.2695 140.938 35.3749 140.814 35.5072C140.689 35.6394 140.593 35.7957 140.532 35.9664C140.47 36.1371 140.444 36.3187 140.455 36.4998V37.0798Z" fill="#263238"/>
<path d="M103.5 124.445C103.549 119.95 104.785 115.547 107.084 111.684C109.383 107.82 112.662 104.633 116.59 102.445C122.09 99.4452 128.5 98.6652 134.615 97.2602C140.73 95.8552 147.07 93.5352 150.85 88.5302C155.96 81.7652 154.985 72.1502 158.675 64.5302C160.391 61.0898 162.994 58.1697 166.215 56.0716C169.436 53.9734 173.16 52.7733 177 52.5952V168.85C177 170.724 176.256 172.521 174.931 173.846C173.606 175.171 171.809 175.915 169.935 175.915H110.575C109.647 175.916 108.727 175.734 107.869 175.379C107.011 175.024 106.231 174.504 105.574 173.848C104.917 173.192 104.396 172.413 104.04 171.555C103.684 170.698 103.501 169.779 103.5 168.85V124.445Z" fill="#EBEBEB"/>
<path d="M116 63.8951C116 59.5851 118.26 57.0151 121.395 57.0151C124.53 57.0151 126.805 59.5851 126.805 63.8951C126.805 68.2051 124.525 70.7801 121.395 70.7801C118.265 70.7801 116 68.2051 116 63.8951ZM125.375 63.8951C125.375 60.2801 123.75 58.2901 121.375 58.2901C119 58.2901 117.375 60.2901 117.375 63.8951C117.375 67.5001 119 69.5051 121.375 69.5051C123.75 69.5051 125.385 67.5001 125.385 63.8951H125.375Z" fill="#263238"/>
<path d="M138.57 63.7802C138.57 68.3802 136.07 70.7802 132.385 70.7802C131.268 70.8278 130.16 70.5739 129.175 70.0452L129.735 68.9252C130.532 69.3857 131.445 69.6062 132.365 69.5602C135.285 69.5602 137.16 67.6852 137.16 64.0102C137.16 63.7052 137.16 63.3152 137.1 62.9102C136.425 64.4102 134.84 65.2302 132.965 65.2302C130.275 65.2302 128.4 63.6452 128.4 61.1702C128.4 58.6952 130.4 57.0152 133.02 57.0152C136.615 57.0002 138.57 59.5002 138.57 63.7802ZM136.655 61.0952C136.655 59.5952 135.42 58.1952 133.08 58.1952C131.125 58.1952 129.775 59.3352 129.775 61.1302C129.775 62.9252 131.09 64.0502 133.175 64.0502C135.26 64.0502 136.655 62.7752 136.655 61.0952Z" fill="#263238"/>
<path d="M140.6 61.4599C140.594 61.3227 140.616 61.1857 140.665 61.0574C140.714 60.9291 140.789 60.8124 140.885 60.7143C140.981 60.6163 141.097 60.5391 141.224 60.4876C141.351 60.4361 141.488 60.4113 141.625 60.4149C141.762 60.4142 141.898 60.4408 142.025 60.4932C142.152 60.5455 142.267 60.6225 142.364 60.7198C142.461 60.817 142.537 60.9325 142.589 61.0596C142.641 61.1866 142.666 61.3227 142.665 61.4599C142.668 61.7388 142.56 62.0075 142.365 62.2071C142.17 62.4067 141.904 62.5209 141.625 62.5249C141.488 62.5229 141.352 62.4938 141.226 62.4391C141.1 62.3844 140.986 62.3052 140.891 62.2062C140.795 62.1071 140.72 61.9902 140.671 61.8621C140.621 61.734 140.597 61.5973 140.6 61.4599ZM140.6 69.6949C140.594 69.5577 140.616 69.4207 140.665 69.2924C140.714 69.1641 140.789 69.0473 140.885 68.9493C140.981 68.8513 141.097 68.7741 141.224 68.7226C141.351 68.6711 141.488 68.6463 141.625 68.6499C141.762 68.6492 141.898 68.6758 142.025 68.7282C142.152 68.7805 142.267 68.8575 142.364 68.9548C142.461 69.052 142.537 69.1675 142.589 69.2946C142.641 69.4216 142.666 69.5577 142.665 69.6949C142.668 69.9738 142.56 70.2425 142.365 70.4421C142.17 70.6417 141.904 70.7559 141.625 70.7599C141.488 70.7579 141.352 70.7288 141.226 70.6741C141.1 70.6194 140.986 70.5402 140.891 70.4412C140.795 70.3421 140.72 70.2252 140.671 70.0971C140.621 69.969 140.597 69.8323 140.6 69.6949Z" fill="#263238"/>
<path d="M153.92 69.4249V70.6649H144.42V69.6649L150.045 64.1649C151.575 62.6649 151.865 61.7499 151.865 60.8199C151.865 59.2549 150.76 58.2899 148.695 58.2899C148.006 58.2466 147.316 58.359 146.676 58.6187C146.037 58.8783 145.464 59.2786 145 59.7899L144 58.9349C145.045 57.6999 146.725 57.0049 148.795 57.0049C151.54 57.0049 153.295 58.3949 153.295 60.6549C153.295 61.9549 152.89 63.1149 151.07 64.8899L146.47 69.3899L153.92 69.4249Z" fill="#263238"/>
<path d="M155.58 63.8951C155.58 59.5851 157.84 57.0151 160.975 57.0151C164.11 57.0151 166.385 59.5851 166.385 63.8951C166.385 68.2051 164.105 70.7801 160.975 70.7801C157.845 70.7801 155.58 68.2051 155.58 63.8951ZM164.955 63.8951C164.955 60.2801 163.33 58.2901 160.955 58.2901C158.58 58.2901 156.955 60.2901 156.955 63.8951C156.955 67.5001 158.615 69.5001 161 69.5001C163.385 69.5001 164.955 67.5001 164.955 63.8951Z" fill="#263238"/>
<path d="M126.356 46.7103C127.49 41.435 124.133 36.2393 118.857 35.1055C113.582 33.9717 108.386 37.329 107.252 42.6044C106.119 47.8797 109.476 53.0754 114.751 54.2092C120.027 55.3431 125.222 51.9857 126.356 46.7103Z" fill="#E0E0E0"/>
<path d="M63.825 122.38C63.12 121.88 62.25 121.67 61.465 121.3C60.68 120.93 59.92 120.3 59.845 119.42C59.74 118.14 61.15 117.175 61.235 115.92C61.35 114.115 58.91 113.13 58.555 111.36C58.26 109.89 59.505 108.505 59.455 107.005C59.4051 105.505 58.105 104.39 57.515 103.005C56.135 99.8151 58.675 95.7001 56.75 92.8051C56.1662 92.077 55.5132 91.4072 54.8 90.8051C54.14 90.1451 53.565 89.3051 53.645 88.3501L50.035 86.7101C48.825 84.8601 46.08 84.7901 44.035 85.5801C41.99 86.3701 40.16 87.7851 38.035 88.3151C36.995 88.5701 37.145 87.0301 36.095 87.2451C34.71 87.5251 33.015 89.1401 32.595 90.4801C32.175 91.9151 31.88 93.5051 31.37 94.9151C30.805 96.4701 29.14 97.5551 28.98 99.2051C28.8 101.125 30.785 102.705 30.79 104.625C30.79 106.7 28.5 108.56 29.23 110.505C29.65 111.615 30.93 112.21 31.38 113.31C31.995 114.81 30.77 116.5 30.88 118.135C30.99 119.77 32.35 120.97 33.635 121.95C38.528 125.769 44.0028 128.778 49.85 130.86C52.385 131.73 55.055 132.395 57.725 132.155C60.395 131.915 63.08 130.655 64.48 128.345C65.625 126.47 65.615 123.665 63.825 122.38Z" fill="#263238"/>
<path d="M53.5001 87.4449C53.1719 86.1322 52.5 84.9305 51.5535 83.9634C50.607 82.9963 49.42 82.2988 48.1146 81.9424C46.8092 81.586 45.4324 81.5836 44.1258 81.9356C42.8192 82.2875 41.6299 82.9811 40.6801 83.9449C39.9101 84.7249 39.3001 85.6799 38.3901 86.2899C37.3601 86.9849 37.2101 86.7899 36.0601 87.2349C34.9101 87.6799 32.7951 90.8949 32.8301 92.1349L32.2551 97.5649C32.3001 98.8349 33.9351 99.5649 35.1351 99.1349C36.3351 98.7049 37.1351 97.5949 37.7751 96.4949C38.4151 95.3949 39.0001 94.2049 40.0501 93.4999C41.7751 92.2849 44.1151 92.7049 46.1801 93.1249C48.2451 93.5449 50.6401 93.8499 52.2551 92.4899C53.6451 91.2949 53.9451 89.2099 53.5001 87.4449Z" fill="#263238"/>
<path d="M54.64 95.195C54.405 91.66 52.055 87.33 48.535 87.695L37.535 90.5C37.0198 90.5562 36.5444 90.8036 36.2028 91.1933C35.8612 91.5831 35.6782 92.0868 35.69 92.605L36.925 119.105H36.845C36.845 119.105 41.345 128.58 48.585 126.295C50.025 125.84 48.715 122.265 49.005 120.645H49.075C49.075 120.455 49.075 120.275 49.075 120.09C49.2173 118.882 49.2324 117.662 49.12 116.45C49.12 114.31 49.12 113.45 49.12 113.45C49.12 113.45 53.62 112.69 54.555 106.8C55.05 103.925 54.895 99.12 54.64 95.195Z" fill="#FFBE9D"/>
<path d="M53.73 99.7348C53.7327 99.9325 53.6578 100.123 53.5213 100.266C53.3848 100.41 53.1976 100.493 53 100.5C52.9039 100.507 52.8074 100.496 52.7159 100.465C52.6244 100.435 52.5399 100.387 52.4673 100.324C52.3947 100.26 52.3354 100.183 52.2929 100.097C52.2505 100.01 52.2257 99.916 52.22 99.8198C52.2185 99.6225 52.2939 99.4323 52.4301 99.2896C52.5664 99.1468 52.7528 99.0626 52.95 99.0548C53.0462 99.0467 53.143 99.0579 53.2348 99.0879C53.3265 99.1179 53.4113 99.1661 53.4841 99.2295C53.5569 99.293 53.6161 99.3704 53.6584 99.4572C53.7006 99.544 53.725 99.6384 53.73 99.7348Z" fill="#263238"/>
<path d="M53.6001 97.6948C53.5101 97.7948 52.9351 97.3748 52.1001 97.3748C51.2651 97.3748 50.6951 97.7898 50.6001 97.6898C50.5051 97.5898 50.6501 97.4648 50.9101 97.2798C51.2619 97.0343 51.681 96.9033 52.1101 96.9048C52.532 96.9043 52.9433 97.0374 53.2851 97.2848C53.5601 97.4998 53.6501 97.6498 53.6001 97.6948Z" fill="#263238"/>
<path d="M46.0451 100C46.0478 100.196 45.9734 100.386 45.8379 100.528C45.7023 100.67 45.5164 100.753 45.3201 100.76C45.2239 100.768 45.1271 100.757 45.0353 100.727C44.9436 100.697 44.8588 100.649 44.786 100.585C44.7132 100.522 44.654 100.444 44.6117 100.358C44.5695 100.271 44.5451 100.176 44.5401 100.08C44.5374 99.8836 44.6118 99.694 44.7474 99.5519C44.8829 99.4098 45.0688 99.3265 45.2651 99.32C45.3613 99.3118 45.4582 99.323 45.5499 99.3531C45.6417 99.3831 45.7265 99.4312 45.7992 99.4947C45.872 99.5581 45.9313 99.6355 45.9735 99.7223C46.0157 99.8091 46.0401 99.9036 46.0451 100Z" fill="#263238"/>
<path d="M45.6101 97.8647C45.5201 97.9647 44.9451 97.5397 44.1101 97.5447C43.2751 97.5497 42.7051 97.9597 42.6101 97.8597C42.5151 97.7597 42.6601 97.6347 42.9201 97.4447C43.2732 97.2025 43.6918 97.0734 44.1201 97.0747C44.5415 97.0728 44.9527 97.2041 45.2951 97.4497C45.5701 97.6447 45.6551 97.8197 45.6101 97.8647Z" fill="#263238"/>
<path d="M48.5751 103.89C49.0026 103.751 49.4463 103.669 49.8951 103.645C50.1001 103.645 50.3001 103.585 50.3351 103.44C50.3494 103.225 50.3008 103.012 50.1951 102.825C49.9951 102.325 49.7901 101.8 49.5751 101.245C48.7201 98.9998 48.0751 97.1498 48.1901 97.1148C48.3051 97.0798 49.0501 98.8748 49.9051 101.115C50.1101 101.67 50.3101 102.2 50.4951 102.705C50.6266 102.955 50.6655 103.244 50.6051 103.52C50.575 103.593 50.5288 103.658 50.47 103.711C50.4111 103.764 50.341 103.803 50.2651 103.825C50.1505 103.854 50.0332 103.87 49.9151 103.875C49.4707 103.935 49.0206 103.94 48.5751 103.89Z" fill="#263238"/>
<path d="M49.1601 113.5C46.3863 113.549 43.6534 112.827 41.2651 111.415C41.2651 111.415 43.1851 115.455 49.0801 114.915L49.1601 113.5Z" fill="#EB996E"/>
<path d="M48.2351 105.85C48.0806 105.654 47.8787 105.502 47.6485 105.406C47.4184 105.311 47.1676 105.276 46.9201 105.305C46.7409 105.322 46.567 105.374 46.4088 105.46C46.2507 105.546 46.1117 105.664 46.0001 105.805C45.8907 105.94 45.8258 106.106 45.8141 106.28C45.8025 106.453 45.8448 106.626 45.9351 106.775C46.0679 106.919 46.2401 107.021 46.4303 107.068C46.6205 107.115 46.8204 107.105 47.0051 107.04C47.3879 106.904 47.7398 106.693 48.0401 106.42C48.1316 106.353 48.2097 106.27 48.2701 106.175C48.3004 106.131 48.3167 106.078 48.3167 106.025C48.3167 105.971 48.3004 105.919 48.2701 105.875" fill="#EB996E"/>
<path d="M46.185 104.455C46.315 104.455 46.32 105.33 47.075 105.955C47.83 106.58 48.77 106.48 48.78 106.605C48.79 106.73 48.57 106.775 48.175 106.785C47.6561 106.791 47.1517 106.614 46.75 106.285C46.3667 105.971 46.1195 105.522 46.06 105.03C46.025 104.67 46.125 104.45 46.185 104.455Z" fill="#263238"/>
<path d="M46.0001 96.4398C45.9201 96.6648 45.1051 96.5598 44.1551 96.6748C43.2051 96.7898 42.4301 97.0548 42.3001 96.8598C42.2451 96.7648 42.3801 96.5548 42.6901 96.3598C43.1 96.0857 43.5699 95.9142 44.0601 95.8598C44.5484 95.8024 45.0434 95.8606 45.5051 96.0298C45.8301 96.1648 46.0001 96.3348 46.0001 96.4398Z" fill="#263238"/>
<path d="M53.2951 95.3449C53.1551 95.5299 52.5951 95.3449 51.9201 95.3449C51.2451 95.3449 50.6801 95.4748 50.5451 95.2798C50.4901 95.1848 50.5801 94.9998 50.8251 94.8248C51.1602 94.6151 51.5499 94.5093 51.945 94.5209C52.3401 94.5324 52.7229 94.6608 53.0451 94.8898C53.2801 95.0648 53.3601 95.2549 53.2951 95.3449Z" fill="#263238"/>
<path d="M48.3401 86.2049L47.8401 85.5649C44.4376 85.9561 41.1038 86.8072 37.9301 88.0949C36.6601 88.5949 35.3801 89.2249 34.5101 90.2849C33.3201 91.7399 33.1301 93.7499 33.0101 95.6249C32.5101 102.775 32.0651 110.125 34.3151 116.94C34.8551 116.07 35.9151 115.68 36.9201 115.485C37.9251 115.29 38.9801 115.225 39.9201 114.76C40.4141 114.492 40.8469 114.124 41.1912 113.68C41.5355 113.236 41.7837 112.725 41.9201 112.18C42.1869 111.078 42.0577 109.917 41.5551 108.9C41.0101 107.765 40.0551 106.67 40.2751 105.435C40.4951 104.2 42.0051 103.405 42.3551 102.135C42.9601 99.9399 39.8551 97.9699 40.5001 95.7799C40.6417 95.3854 40.8624 95.024 41.1487 94.7179C41.4351 94.4118 41.7809 94.1675 42.1651 93.9999C42.9151 93.6249 43.7401 93.4149 44.5001 93.0599C45.7625 92.4448 46.8068 91.4586 47.4931 90.2335C48.1793 89.0083 48.4749 87.6027 48.3401 86.2049Z" fill="#263238"/>
<path d="M78.0802 131.115L71.1902 141.835C71.4566 142.226 71.8192 142.542 72.243 142.752C72.6669 142.962 73.1377 143.059 73.6102 143.035C75.2702 142.965 77.5502 138.825 77.8202 137.99C78.0902 137.155 77.7252 136.345 77.9702 135.785C78.2152 135.225 78.1202 133.695 78.1202 133.695C78.0852 133.785 79.6102 131.745 78.0802 131.115Z" fill="#FFBE9D"/>
<path d="M69.2852 141.83L72.8752 127.635C72.93 127.426 73.0259 127.23 73.1572 127.058C73.2885 126.886 73.4527 126.743 73.6402 126.635L78.8552 123.66C79.009 123.574 79.1893 123.547 79.3616 123.585C79.534 123.622 79.6865 123.722 79.7902 123.865C79.8514 123.95 79.8934 124.047 79.9133 124.15C79.9332 124.253 79.9304 124.358 79.9052 124.46L76.1052 139.4L69.2852 141.83Z" fill="#263238"/>
<path d="M67.4752 152.83L75.8102 137.435L72.6702 133.37L60.9402 142.27L64.0152 150.73L67.4752 152.83Z" fill="#122750"/>
<path d="M75.9101 140.775C75.9827 140.568 76.0362 140.356 76.0701 140.14C76.1254 139.541 76.066 138.937 75.8951 138.36V138.325V138.29C75.9682 138.173 76.0154 138.042 76.0335 137.906C76.0516 137.77 76.0402 137.631 76.0001 137.5C75.8852 137.203 75.6808 136.95 75.4151 136.775L75.3251 136.715L75.3851 136.62L76.3301 135.21C76.4175 135.097 76.4914 134.975 76.5501 134.845C76.588 134.722 76.5772 134.59 76.5201 134.475C76.3853 134.209 76.1859 133.982 75.9401 133.815L75.8201 133.73L75.9151 133.62C76.1701 133.33 76.4551 133.04 76.7401 132.745C77.2279 132.243 77.6869 131.713 78.1151 131.16C78.3086 130.905 78.4761 130.632 78.6151 130.345C78.6803 130.216 78.7226 130.078 78.7401 129.935C78.7401 129.805 78.6901 129.735 78.6151 129.72H78.5851C78.4246 129.703 78.2626 129.729 78.1151 129.795C77.9448 129.858 77.7779 129.929 77.6151 130.01C77.3101 130.175 77.0251 130.345 76.7651 130.51C76.2651 130.85 75.7901 131.17 75.4251 131.435L74.5701 132.055C74.475 132.139 74.3691 132.209 74.2551 132.265C74.3329 132.165 74.4238 132.076 74.5251 132C74.7101 131.835 74.9851 131.605 75.3401 131.32C75.6951 131.035 76.1351 130.705 76.6551 130.35C76.9201 130.17 77.2001 129.99 77.5151 129.815C77.6765 129.726 77.8435 129.647 78.0151 129.58C78.2088 129.485 78.4281 129.455 78.6401 129.495H78.6101C78.7174 129.51 78.8144 129.566 78.88 129.653C78.9456 129.739 78.9744 129.847 78.9601 129.955C78.9439 130.128 78.8965 130.298 78.8201 130.455C78.6743 130.761 78.4966 131.051 78.2901 131.32C77.8607 131.886 77.3965 132.426 76.9001 132.935C76.6151 133.23 76.3301 133.52 76.0751 133.805V133.61C76.3626 133.807 76.5936 134.076 76.7451 134.39C76.8223 134.561 76.833 134.756 76.7751 134.935C76.7098 135.083 76.6258 135.223 76.5251 135.35C76.1851 135.85 75.8601 136.32 75.5551 136.76V136.6C75.8562 136.807 76.0837 137.105 76.2051 137.45C76.2513 137.608 76.2631 137.774 76.2398 137.937C76.2165 138.1 76.1587 138.256 76.0701 138.395V138.325C76.23 138.925 76.2623 139.551 76.1651 140.165C76.1357 140.329 76.0836 140.489 76.0101 140.64C75.9501 140.73 75.9201 140.78 75.9101 140.775Z" fill="#EB996E"/>
<path d="M79.79 123.86C79.6597 123.977 79.5153 124.078 79.36 124.16C79.075 124.34 78.66 124.595 78.14 124.905L76.315 126L75.235 126.625C74.8421 126.815 74.4756 127.055 74.145 127.34C73.858 127.655 73.6672 128.045 73.595 128.465C73.485 128.885 73.38 129.285 73.28 129.675L72.735 131.72C72.575 132.3 72.44 132.77 72.34 133.09C72.3036 133.263 72.2448 133.431 72.165 133.59C72.1682 133.42 72.1951 133.252 72.245 133.09C72.31 132.76 72.42 132.285 72.555 131.7C72.69 131.115 72.865 130.4 73.055 129.64C73.1484 129.25 73.2484 128.845 73.355 128.425C73.436 127.959 73.6476 127.525 73.965 127.175C74.316 126.878 74.7023 126.627 75.115 126.425L76.205 125.815L78.055 124.815C78.585 124.525 79.015 124.315 79.315 124.145C79.4591 124.028 79.619 123.932 79.79 123.86Z" fill="#455A64"/>
<path d="M76.335 128.71C76.205 129.02 76.19 129.31 76.3 129.355C76.41 129.4 76.605 129.19 76.735 128.88C76.865 128.57 76.88 128.285 76.77 128.235C76.66 128.185 76.465 128.405 76.335 128.71Z" fill="white"/>
<path d="M50.375 120.105C52.1674 120.751 53.8151 121.743 55.2238 123.026C56.6325 124.308 57.7747 125.856 58.585 127.58L69.775 151.39L79.415 155.3L70.915 157.745L63.365 152.2L50.375 120.105Z" fill="#122750"/>
<path d="M70.9251 157.745L66.8651 160.875L46.6051 140.035L35.0251 119.115L36.3651 115.225L45.3201 118.955L48.5251 123.695L49.2401 117.695L49.8151 118.5L50.7501 121.035C50.7501 121.035 59.5401 128.35 61.4401 134.145C63.0001 139 62.5251 149 63.5001 151.7L70.9251 157.745Z" fill="#FAFAFA"/>
<path d="M32.8551 118.845C32.7201 119.25 24.1951 122.675 23.7901 125.66C23.3851 128.645 29.9151 151.725 29.9151 151.725L40.2701 160.875H66.8651L58.4301 145.08C56.6119 141.674 54.3115 138.548 51.6001 135.8C49.1001 133.27 46.1001 130.14 44.5301 128.275C42.8451 126.25 35.7001 116.775 35.7001 116.775L32.8551 118.845Z" fill="#122750"/>
<path d="M38.1902 119.79C38.707 119.976 39.2085 120.201 39.6902 120.465C40.6052 120.915 41.8602 121.545 43.2402 122.26L44.8102 123.08L44.6302 123.2C44.5701 122.267 44.6256 121.33 44.7952 120.41C44.8425 120.046 44.9419 119.691 45.0902 119.355C45.0616 119.717 45.0149 120.078 44.9502 120.435C44.8331 121.345 44.808 122.265 44.8752 123.18V123.4L44.6802 123.3L43.1302 122.5C41.7502 121.785 40.5102 121.125 39.6302 120.635C39.1293 120.39 38.6479 120.108 38.1902 119.79Z" fill="#263238"/>
<path d="M58.6902 140.84C58.5309 140.627 58.3888 140.401 58.2652 140.165L57.1802 138.28C56.2702 136.685 55.0002 134.49 53.5702 132.085C52.1402 129.68 50.8052 127.525 49.8402 125.965L48.6952 124.115C48.5462 123.894 48.4158 123.662 48.3052 123.42C48.492 123.617 48.6594 123.831 48.8052 124.06C49.1002 124.48 49.5152 125.095 50.0202 125.865C51.0202 127.4 52.3802 129.545 53.8202 131.955C55.2602 134.365 56.4952 136.575 57.3652 138.19C57.8052 139 58.1502 139.655 58.3652 140.115C58.4931 140.347 58.6018 140.59 58.6902 140.84Z" fill="#263238"/>
<g opacity="0.3">
<path d="M54.595 156.93C56.14 157.19 57.725 157.43 59.265 157.16C60.805 156.89 62.31 155.895 62.795 154.405C62.8715 153.918 63.0692 153.459 63.37 153.07C63.965 152.52 64.915 152.86 65.72 152.785C66.1681 152.716 66.5943 152.545 66.9655 152.285C67.3367 152.025 67.6428 151.683 67.86 151.285C68.2894 150.488 68.5914 149.63 68.755 148.74C68.8849 148.311 68.939 147.862 68.915 147.415C68.8994 147.192 68.8281 146.977 68.7075 146.789C68.5869 146.601 68.421 146.447 68.225 146.34C67.615 146.065 66.925 146.465 66.385 146.84C62 150 58 153.67 54 157.32" fill="black"/>
</g>
<path d="M64.5301 139.31C64.5301 139.31 66.0551 135.81 66.8651 135.31C67.6751 134.81 71.7201 132.465 71.7201 132.465L71.2201 134.39L75.1751 131.645C75.6751 131.32 78.4801 128.755 78.9801 129.755C79.3451 130.475 77.0401 132.375 76.7301 132.8C75.9601 133.855 76.2301 133.76 76.2301 133.76C76.2301 133.76 77.0651 134.26 76.6451 135.01C76.3019 135.585 75.9245 136.14 75.5151 136.67C75.5151 136.67 76.6151 137.06 75.9751 138.49C76.1598 139.084 76.1975 139.713 76.0851 140.325C75.9051 141.395 73.9751 143.42 73.9751 143.42L64.3251 148L60.4451 141.42L64.5301 139.31Z" fill="#FFBE9D"/>
<path d="M42.1252 132.73L48.2952 145.9L62.0002 139.96C62.0002 139.96 67.6752 143.27 66.8902 146.89L54.5402 157C53.3859 157.948 52.0511 158.652 50.6166 159.069C49.1821 159.486 47.6779 159.607 46.1952 159.425C44.6044 159.23 43.075 158.691 41.7134 157.846C40.3517 157.001 39.1904 155.869 38.3102 154.53L29.3902 140.97L24.3902 132.815C23.5892 131.545 23.1818 130.066 23.2192 128.565C23.2565 127.064 23.737 125.608 24.6002 124.38C25.0716 123.717 25.6698 123.154 26.3602 122.725C28.5952 121.37 35.2152 120.78 42.1252 132.73Z" fill="#122750"/>
<path d="M72.4652 133.5C71.8492 134.031 71.1788 134.495 70.4652 134.885C69.7932 135.348 69.0762 135.741 68.3252 136.06C68.946 135.535 69.6157 135.072 70.3252 134.675C70.9989 134.215 71.7156 133.822 72.4652 133.5Z" fill="#EB996E"/>
<path d="M76.3201 133.37C75.7856 134.073 75.1844 134.723 74.5251 135.31C73.9239 135.956 73.2663 136.546 72.5601 137.075C73.0976 136.375 73.6984 135.725 74.3551 135.135C74.9559 134.489 75.6136 133.898 76.3201 133.37Z" fill="#EB996E"/>
<path d="M75.8051 136.34C75.5931 136.776 75.3091 137.173 74.9651 137.515C74.4651 138.12 73.9651 138.58 73.9351 138.515C74.1492 138.077 74.4348 137.679 74.7801 137.335C75.0641 136.949 75.4105 136.612 75.8051 136.34Z" fill="#EB996E"/>
<path d="M76 138.34C76.055 138.385 75.84 138.705 75.57 139.095C75.3 139.485 75.07 139.795 75.005 139.76C74.94 139.725 75.09 139.355 75.37 138.955C75.65 138.555 75.935 138.295 76 138.34Z" fill="#EB996E"/>
<path d="M52.44 158.32C52.44 158.32 52.44 158.295 52.5 158.26L52.695 158.095L53.47 157.47L56.43 155.13L67 146.86L66.955 146.945C66.9604 146.259 66.8295 145.579 66.57 144.945C66.2736 144.28 65.8921 143.656 65.435 143.09C64.4357 141.91 63.2542 140.897 61.935 140.09H62.05L54.965 143.17L48.345 146L48.235 146.045L48.18 145.94C46.365 142.365 44.68 139.005 42.99 136.085C42.145 134.62 41.31 133.265 40.52 132C39.73 130.735 39.02 129.565 38.275 128.555C37.1786 126.927 35.7206 125.575 34.015 124.605C33.72 124.43 33.445 124.295 33.205 124.18C32.965 124.065 32.77 123.97 32.6 123.9L32.23 123.735C32.1862 123.719 32.1443 123.699 32.105 123.675C33.5884 124.183 34.96 124.973 36.145 126C36.9947 126.742 37.7548 127.581 38.41 128.5C39.16 129.5 39.91 130.68 40.685 131.94C41.46 133.2 42.33 134.55 43.185 136.015C44.905 138.935 46.59 142.295 48.415 145.865L48.25 145.805L54.845 142.935L61.93 139.86L61.99 139.835L62.045 139.87C63.3884 140.696 64.5904 141.732 65.605 142.94C66.0723 143.527 66.4637 144.17 66.77 144.855C67.0375 145.529 67.1717 146.249 67.165 146.975V147.025L67.12 147.06L56.5 155.235L53.5 157.525L52.705 158.125L52.495 158.275L52.44 158.32Z" fill="#263238"/>
<path d="M47.465 150.04C47.39 150.01 47.77 149.07 47.965 147.855C48.16 146.64 48.165 145.625 48.245 145.62C48.4148 146.371 48.4148 147.15 48.245 147.9C48.15 148.663 47.8833 149.395 47.465 150.04Z" fill="#263238"/>
<path d="M122.73 188.725L129.895 197.7C129.895 197.7 141.425 193.435 142.895 194.965L126 209.5L114.265 196L122.73 188.725Z" fill="#122750"/>
<g opacity="0.6">
<path d="M124.04 201.46C123.92 201.649 123.874 201.875 123.911 202.096C123.948 202.317 124.065 202.516 124.24 202.655C124.424 202.782 124.651 202.834 124.872 202.8C125.093 202.765 125.293 202.647 125.43 202.47C125.556 202.268 125.604 202.027 125.563 201.793C125.523 201.558 125.397 201.347 125.21 201.2C125.003 201.088 124.762 201.061 124.535 201.123C124.309 201.186 124.115 201.333 123.995 201.535" fill="white"/>
</g>
<g opacity="0.6">
<path d="M126 209.5L124.87 208.09L141.5 194.68C141.5 194.68 142.535 194.36 142.905 194.965L126 209.5Z" fill="white"/>
</g>
<path d="M130.095 197.38C130.165 197.465 129.785 197.88 129.595 198.47C129.405 199.06 129.5 199.62 129.395 199.65C129.29 199.68 129.005 199.1 129.235 198.36C129.465 197.62 130.05 197.29 130.095 197.38Z" fill="#263238"/>
<path d="M132.5 196.59C132.585 196.655 132.35 197.09 132.37 197.695C132.39 198.3 132.625 198.72 132.54 198.79C132.455 198.86 132 198.435 131.99 197.7C131.98 196.965 132.43 196.5 132.5 196.59Z" fill="#263238"/>
<path d="M135.33 197.85C135.27 197.93 134.8 197.615 134.62 196.985C134.44 196.355 134.68 195.84 134.77 195.875C134.86 195.91 134.835 196.375 134.985 196.875C135.135 197.375 135.405 197.77 135.33 197.85Z" fill="#263238"/>
<path d="M128.235 195.5C128.265 195.605 127.79 195.82 127.35 196.25C126.91 196.68 126.675 197.14 126.57 197.11C126.465 197.08 126.57 196.48 127.07 195.98C127.57 195.48 128.22 195.415 128.235 195.5Z" fill="#263238"/>
<g opacity="0.3">
<path d="M124.15 190.505L125.425 192.105L117.055 199.165L115.845 197.775L124.15 190.505Z" fill="black"/>
</g>
<path d="M126.755 193.735C126.79 193.765 126.505 194.095 125.905 194.455C125.555 194.667 125.181 194.835 124.79 194.955C124.557 195.023 124.32 195.076 124.08 195.115C123.939 195.136 123.796 195.136 123.655 195.115C123.552 195.099 123.456 195.05 123.382 194.977C123.307 194.903 123.258 194.808 123.24 194.705C123.231 194.612 123.245 194.518 123.28 194.431C123.315 194.344 123.37 194.266 123.44 194.205C123.545 194.109 123.665 194.031 123.795 193.975C124.383 193.676 125.036 193.528 125.695 193.545C126.077 193.517 126.457 193.608 126.785 193.805C126.785 193.865 126.355 193.77 125.7 193.805C125.319 193.834 124.943 193.91 124.58 194.03C124.368 194.103 124.162 194.193 123.965 194.3C123.745 194.405 123.59 194.535 123.615 194.655C123.615 194.7 123.615 194.71 123.715 194.73C123.82 194.744 123.926 194.744 124.03 194.73C124.254 194.7 124.476 194.658 124.695 194.605C125.068 194.508 125.431 194.377 125.78 194.215C126.093 194.031 126.419 193.87 126.755 193.735Z" fill="#263238"/>
<path d="M126.75 193.945C126.75 193.98 126.315 193.825 125.825 193.315C125.37 192.834 125.057 192.237 124.92 191.59C124.87 191.439 124.86 191.278 124.89 191.122C124.921 190.966 124.992 190.82 125.095 190.7C125.171 190.635 125.264 190.594 125.363 190.582C125.462 190.571 125.562 190.589 125.65 190.635C125.779 190.696 125.899 190.775 126.005 190.87C126.26 191.09 126.469 191.358 126.619 191.659C126.769 191.961 126.858 192.289 126.88 192.625C126.93 193.345 126.67 193.74 126.635 193.72C126.659 193.365 126.659 193.009 126.635 192.655C126.575 192.286 126.433 191.936 126.22 191.63C126.1 191.451 125.953 191.29 125.785 191.155C125.605 191 125.415 190.91 125.36 190.985C125.313 191.065 125.284 191.154 125.274 191.246C125.265 191.339 125.275 191.432 125.305 191.52C125.344 191.737 125.406 191.95 125.49 192.155C125.628 192.513 125.816 192.85 126.05 193.155C126.43 193.66 126.785 193.89 126.75 193.945Z" fill="#263238"/>
<path d="M114.945 216.395L114.5 228.135C114.5 228.135 126.285 232.53 126.415 234.71L103.615 234.665L103.56 216.34L114.945 216.395Z" fill="#122750"/>
<g opacity="0.6">
<path d="M107.45 227.135C107.231 227.201 107.044 227.346 106.925 227.542C106.806 227.737 106.763 227.97 106.805 228.195C106.865 228.416 107.007 228.606 107.202 228.727C107.397 228.848 107.63 228.89 107.855 228.845C108.085 228.77 108.281 228.615 108.405 228.407C108.529 228.199 108.573 227.953 108.53 227.715C108.446 227.491 108.278 227.308 108.062 227.205C107.845 227.101 107.598 227.085 107.37 227.16" fill="white"/>
</g>
<g opacity="0.6">
<path d="M103.615 234.665L103.685 232.815L125.5 233.55C125.5 233.55 126.5 233.995 126.4 234.71L103.615 234.665Z" fill="white"/>
</g>
<path d="M114.87 228C114.87 228.11 114.31 228.16 113.76 228.5C113.21 228.84 112.92 229.32 112.815 229.275C112.71 229.23 112.88 228.59 113.555 228.17C114.23 227.75 114.895 227.92 114.87 228Z" fill="#263238"/>
<path d="M117.26 229C117.26 229.105 116.8 229.295 116.42 229.765C116.04 230.235 115.92 230.735 115.82 230.73C115.72 230.725 115.64 230.095 116.125 229.52C116.61 228.945 117.255 228.91 117.26 229Z" fill="#263238"/>
<path d="M118.61 231.88C118.51 231.88 118.355 231.345 118.645 230.735C118.935 230.125 119.45 229.885 119.5 229.98C119.55 230.075 119.22 230.395 119 230.9C118.78 231.405 118.72 231.87 118.61 231.88Z" fill="#263238"/>
<path d="M114.675 225.335C114.625 225.435 114.115 225.28 113.485 225.335C112.855 225.39 112.365 225.575 112.31 225.48C112.255 225.385 112.725 224.98 113.465 224.95C114.205 224.92 114.73 225.245 114.675 225.335Z" fill="#263238"/>
<g opacity="0.3">
<path d="M114.855 218.72L114.78 220.81L103.575 220.69L103.565 218.8L114.855 218.72Z" fill="black"/>
</g>
<path d="M114.72 222.96C114.347 223.066 113.953 223.066 113.58 222.96C112.923 222.84 112.295 222.596 111.73 222.24C111.601 222.17 111.484 222.079 111.385 221.97C111.315 221.89 111.272 221.789 111.263 221.683C111.254 221.577 111.279 221.471 111.335 221.38C111.393 221.301 111.468 221.238 111.555 221.193C111.642 221.149 111.738 221.126 111.835 221.125C111.979 221.125 112.122 221.145 112.26 221.185C112.918 221.345 113.525 221.669 114.025 222.125C114.55 222.625 114.73 223.03 114.69 223.05C114.65 223.07 114.385 222.74 113.85 222.335C113.541 222.103 113.206 221.91 112.85 221.76C112.638 221.672 112.419 221.604 112.195 221.555C111.955 221.49 111.75 221.49 111.695 221.595C111.64 221.7 111.67 221.655 111.72 221.725C111.795 221.802 111.881 221.868 111.975 221.92C112.167 222.049 112.367 222.164 112.575 222.265C112.929 222.442 113.299 222.584 113.68 222.69C114.032 222.758 114.379 222.848 114.72 222.96Z" fill="#263238"/>
<path d="M114.575 223.12C114.358 222.796 114.253 222.41 114.275 222.02C114.248 221.343 114.403 220.671 114.725 220.075C114.787 219.925 114.887 219.793 115.015 219.692C115.143 219.592 115.294 219.525 115.455 219.5C115.561 219.498 115.665 219.527 115.754 219.584C115.843 219.641 115.913 219.723 115.955 219.82C116.013 219.954 116.053 220.095 116.075 220.24C116.125 220.581 116.106 220.929 116.02 221.263C115.934 221.597 115.783 221.91 115.575 222.185C115.125 222.775 114.66 222.91 114.65 222.87C114.64 222.83 115.005 222.6 115.345 222.035C115.544 221.708 115.668 221.341 115.71 220.96C115.74 220.741 115.74 220.519 115.71 220.3C115.675 220.06 115.585 219.865 115.495 219.89C115.405 219.915 115.185 220.07 115.09 220.26C114.978 220.458 114.885 220.665 114.81 220.88C114.68 221.247 114.604 221.631 114.585 222.02C114.5 222.69 114.635 223.105 114.575 223.12Z" fill="#263238"/>
<path d="M103.385 160.875L125.945 190.855L115.39 199.92L104.53 185.715L103.385 160.875Z" fill="#263238"/>
<path d="M55.615 162.31C55.615 162.31 91.915 151.25 95.24 151.39C98.565 151.53 104.875 163.535 104.875 163.535L94.685 163.165C92.07 169.58 87.24 176.165 81.8 182.835L60.965 181.865L55.615 162.31Z" fill="#263238"/>
<path d="M85.2851 153.57C85.2851 153.64 81.5751 154.81 76.9551 156.185C72.3351 157.56 68.5701 158.615 68.5501 158.545C68.5301 158.475 72.2551 157.305 76.8801 155.935C81.5051 154.565 85.2651 153.5 85.2851 153.57Z" fill="#263238"/>
<path d="M93.72 162.97H103.91C106.39 162.972 108.809 163.742 110.833 165.174C112.858 166.607 114.388 168.632 115.215 170.97C116.009 173.225 116.359 175.612 116.245 178L115.45 219.5H101.735L101.485 206.25L99.75 181.065L87.875 181.565L81.145 181.145L93.72 162.97Z" fill="#263238"/>
<path d="M94.0251 162.765C93.9796 163.061 93.9145 163.353 93.8301 163.64C93.6341 164.433 93.3937 165.214 93.1101 165.98C92.6956 167.117 92.1941 168.22 91.6101 169.28C90.8826 170.58 90.0463 171.816 89.1101 172.975C87.3825 175.036 85.5325 176.991 83.5701 178.83L81.8101 180.525C81.6034 180.741 81.3793 180.94 81.1401 181.12C81.3234 180.884 81.5221 180.66 81.7351 180.45C82.1301 180.03 82.7351 179.45 83.4401 178.7C85.3598 176.83 87.1838 174.864 88.9051 172.81C90.5845 170.725 91.9428 168.401 92.9351 165.915C93.2951 164.955 93.5701 164.165 93.7301 163.615C93.8054 163.324 93.9041 163.04 94.0251 162.765Z" fill="#455A64"/>
<path d="M106.5 163.25C105.881 163.251 105.262 163.221 104.645 163.16C103.505 163.095 101.925 163.05 100.185 163.085C98.4451 163.12 96.8651 163.225 95.7201 163.3C95.1061 163.371 94.4882 163.402 93.8701 163.395C94.0316 163.339 94.1996 163.303 94.3701 163.29C94.6851 163.24 95.1451 163.18 95.7151 163.115C96.8551 162.995 98.4351 162.86 100.215 162.825C101.717 162.789 103.219 162.841 104.715 162.98C105.285 163.03 105.745 163.095 106.065 163.145C106.214 163.164 106.359 163.199 106.5 163.25Z" fill="#455A64"/>
<path d="M101.675 211.9C101.651 211.786 101.638 211.671 101.635 211.555C101.635 211.3 101.605 210.975 101.58 210.555C101.54 209.66 101.485 208.42 101.42 206.905C101.285 203.825 101.1 199.57 100.805 194.875C100.51 190.18 100.16 185.93 99.905 182.875C99.78 181.375 99.68 180.125 99.61 179.235C99.58 178.825 99.56 178.495 99.54 178.235C99.5257 178.119 99.5257 178.001 99.54 177.885C99.5659 177.998 99.5843 178.114 99.595 178.23L99.715 179.23C99.81 180.115 99.935 181.35 100.095 182.86C100.395 185.93 100.77 190.18 101.07 194.86C101.37 199.54 101.52 203.82 101.61 206.905C101.64 208.405 101.67 209.66 101.69 210.555C101.69 210.965 101.69 211.295 101.69 211.555C101.698 211.67 101.693 211.786 101.675 211.9Z" fill="#263238"/>
<path d="M116.265 176.42C116.34 176.42 116.29 185.92 116.16 197.635C116.03 209.35 115.86 218.85 115.79 218.85C115.72 218.85 115.765 209.35 115.9 197.63C116.035 185.91 116.195 176.42 116.265 176.42Z" fill="#455A64"/>
<path d="M105.075 174.87C104.068 175.264 103.09 175.725 102.145 176.25C101.25 176.859 100.396 177.527 99.5901 178.25C99.7441 177.965 99.9472 177.709 100.19 177.495C101.285 176.378 102.638 175.549 104.13 175.08C104.431 174.956 104.75 174.885 105.075 174.87Z" fill="#263238"/>
<g opacity="0.3">
<path d="M81.145 181.125C83.915 181.625 86.95 180.79 89.32 179.31C91.6867 177.831 93.4026 175.507 94.12 172.81C94.425 171.615 94.515 170.375 94.82 169.18C95.0605 167.953 95.7154 166.846 96.675 166.045C97.835 165.18 100.675 164.63 101.545 163.47C101.545 163.3 98.155 163.69 97.02 163.755C95.78 163.82 93.705 164.135 93.75 163.99C93.4219 165.191 93.0211 166.372 92.55 167.525C90.08 171.77 84.655 178.025 81.145 181.145" fill="black"/>
</g>
<path d="M24.5801 210.47L28.4401 235.705H32.2651L30.3801 210.57L24.5801 210.47Z" fill="#263238"/>
<path d="M92.4751 210.57V235.705H96.5151L98.0201 210.47L92.4751 210.57Z" fill="#263238"/>
<path d="M23.8951 132.5C23.8951 132.5 18.4901 132.715 16.8351 135C13.9201 139 15.5601 142.46 15.3951 143.64C15.2301 144.82 24.5801 210.47 24.5801 210.47H28.4301L98.0001 211.115L101.36 203L99.7501 181.045L81.1451 181.125C81.1451 181.125 73.5251 159.255 66.8651 157.795C62.3651 156.795 51.7601 157.155 45.3651 157.485C43.8028 157.566 42.2466 157.234 40.8535 156.522C39.4605 155.81 38.2796 154.744 37.4301 153.43L23.8951 132.5Z" fill="#455A64"/>
<path d="M85.575 207.89C85.575 207.89 85.19 207.94 84.45 207.975C83.71 208.01 82.62 208.035 81.21 208.045C78.385 208.085 74.29 208.095 69.21 208.09C59.005 208.09 44.78 208.005 28.71 207.865H28.605V207.765C28.315 206.39 28.02 204.975 27.72 203.54C27.42 202.105 27.135 200.635 26.84 199.16C23.34 181.35 21.3 165.03 20.2 153.195C19.645 147.28 19.315 142.48 19.105 139.16C19.015 137.51 18.94 136.225 18.895 135.34C18.895 134.91 18.86 134.58 18.845 134.34C18.83 134.1 18.845 134 18.845 134C18.845 134 18.845 134.115 18.88 134.34C18.915 134.565 18.92 134.905 18.95 135.34C19.01 136.22 19.1 137.505 19.21 139.155C19.45 142.47 19.81 147.265 20.385 153.18C21.5 165 23.555 181.305 27.045 199.105C27.3384 200.582 27.6317 202.04 27.925 203.48C28.2184 204.92 28.5134 206.328 28.81 207.705L28.685 207.605L69.185 207.92L81.185 207.95H84.425C84.7951 207.95 85.07 207.92 85.26 207.92L85.575 207.89Z" fill="#263238"/>
<path d="M84.8401 211C84.8365 210.894 84.8466 210.788 84.8701 210.685C84.9051 210.455 84.9451 210.16 85.0001 209.8C85.0551 209.44 85.1401 208.945 85.2001 208.395C85.2601 207.845 85.3601 207.225 85.4051 206.53C85.4501 205.835 85.5401 205.085 85.5701 204.265C85.6001 203.445 85.6251 202.58 85.6401 201.66C85.6303 199.669 85.5135 197.679 85.2901 195.7C85.0491 193.724 84.7053 191.761 84.2601 189.82C83.8401 188.03 83.3901 186.44 82.9551 185.115C82.7601 184.45 82.5351 183.865 82.3551 183.34C82.1751 182.815 82.0101 182.37 81.8551 182.01L81.5451 181.17C81.502 181.075 81.4718 180.974 81.4551 180.87C81.511 180.959 81.5579 181.052 81.5951 181.15L81.9501 181.97C82.1051 182.33 82.2901 182.77 82.4501 183.29C82.6101 183.81 82.8801 184.395 83.0901 185.06C83.5451 186.375 84.0201 187.97 84.4551 189.765C84.9143 191.713 85.2665 193.684 85.5101 195.67C85.7327 197.662 85.8429 199.666 85.8401 201.67C85.8401 202.595 85.8101 203.47 85.7451 204.29C85.6801 205.11 85.6251 205.87 85.5501 206.56C85.4751 207.25 85.3801 207.88 85.3001 208.425C85.2201 208.97 85.1401 209.425 85.0601 209.825C84.9801 210.225 84.9251 210.475 84.8801 210.705C84.8766 210.805 84.8632 210.903 84.8401 211Z" fill="#263238"/>
<path d="M33.8452 163.935C33.9306 163.848 34.0244 163.769 34.1252 163.7C34.3402 163.535 34.6252 163.325 34.9652 163.055L35.5802 162.6C35.8102 162.445 36.0802 162.295 36.3552 162.125C36.9763 161.724 37.6227 161.363 38.2902 161.045L39.4502 160.5C39.8502 160.3 40.2952 160.155 40.7402 159.97C41.1852 159.785 41.6502 159.595 42.1402 159.44L43.6402 158.94C45.9057 158.273 48.2217 157.792 50.5652 157.5C52.9006 157.192 55.2547 157.048 57.6102 157.07C58.6952 157.07 59.7252 157.14 60.6902 157.175C61.6552 157.21 62.5452 157.325 63.3602 157.44C64.6454 157.606 65.9206 157.841 67.1802 158.145L68.1802 158.425C68.2997 158.454 68.4167 158.493 68.5302 158.54C68.4067 158.53 68.2845 158.509 68.1652 158.475L67.1352 158.24C66.2452 158.055 64.9402 157.81 63.3152 157.625C62.5052 157.52 61.6102 157.47 60.6552 157.39C59.7002 157.31 58.6552 157.285 57.5852 157.31C55.2446 157.304 52.9062 157.453 50.5852 157.755C48.2605 158.046 45.9619 158.518 43.7102 159.165L42.2102 159.63C41.7102 159.78 41.2652 159.98 40.8152 160.13C40.3652 160.28 39.9252 160.45 39.5252 160.63C39.1252 160.81 38.7352 161 38.3652 161.175C37.6989 161.484 37.0511 161.831 36.4252 162.215C36.1452 162.375 35.8802 162.52 35.6402 162.665L35.0202 163.105L34.1552 163.705C34.059 163.791 33.9553 163.868 33.8452 163.935Z" fill="#263238"/>
<path d="M75.2051 167.5C75.2051 167.5 75.2051 167.555 75.1551 167.665C75.1051 167.775 75.0701 167.93 74.9851 168.14C74.7261 168.733 74.3807 169.284 73.9601 169.775C73.2804 170.546 72.4653 171.187 71.5551 171.665C70.9857 171.957 70.3938 172.203 69.7851 172.4C69.0958 172.605 68.3898 172.749 67.6751 172.83C66.0368 172.97 64.3869 172.876 62.7751 172.55C61.0301 172.24 59.2151 171.735 57.2751 171.275C55.2808 170.748 53.2278 170.476 51.1651 170.465C50.0803 170.481 49.0031 170.649 47.9651 170.965C46.8977 171.294 45.8935 171.801 44.9951 172.465C43.2464 173.822 41.7733 175.5 40.6551 177.41C39.5101 179.225 38.6051 181.1 37.6551 182.835C36.776 184.494 35.727 186.057 34.5251 187.5C33.4742 188.774 32.1633 189.809 30.6801 190.535C29.4487 191.129 28.1065 191.457 26.7401 191.5C25.712 191.525 24.6901 191.334 23.7401 190.94C23.3905 190.794 23.0556 190.615 22.7401 190.405C22.4801 190.21 22.2401 190.04 22.1001 189.905L21.7551 189.54C21.6751 189.455 21.6401 189.41 21.6401 189.41C21.6401 189.41 21.6901 189.445 21.7701 189.52L22.1351 189.865C22.3001 190.005 22.5251 190.165 22.7801 190.365C23.0977 190.561 23.4324 190.729 23.7801 190.865C24.7202 191.234 25.7262 191.404 26.7351 191.365C28.0749 191.316 29.3904 190.993 30.6001 190.415C32.0527 189.692 33.3358 188.669 34.3651 187.415C35.5491 185.972 36.5812 184.41 37.4451 182.755C38.4001 181.025 39.3051 179.145 40.4451 177.31C41.5806 175.377 43.0759 173.68 44.8501 172.31C45.7711 171.632 46.7985 171.111 47.8901 170.77C48.9533 170.452 50.0556 170.284 51.1651 170.27C53.2504 170.283 55.3254 170.562 57.3401 171.1C59.2651 171.57 61.0751 172.1 62.8001 172.4C64.3949 172.726 66.0271 172.828 67.6501 172.705C68.3524 172.632 69.0468 172.496 69.7251 172.3C70.3281 172.112 70.915 171.877 71.4801 171.595C72.3807 171.134 73.1918 170.516 73.8751 169.77C74.45 169.098 74.9004 168.33 75.2051 167.5Z" fill="white"/>
<path d="M100.635 199.5L100.415 199.555L99.77 199.685C99.4303 199.769 99.0963 199.874 98.77 200C98.5562 200.077 98.3474 200.167 98.145 200.27C97.9076 200.373 97.6772 200.492 97.455 200.625C96.299 201.291 95.2235 202.088 94.25 203C93.09 204.05 91.85 205.335 90.33 206.6C89.5396 207.274 88.6778 207.859 87.76 208.345C87.2695 208.604 86.7597 208.825 86.235 209.005L85.41 209.23C85.1278 209.294 84.8424 209.342 84.555 209.375C83.3519 209.521 82.1326 209.46 80.95 209.195C79.7019 208.903 78.4958 208.454 77.36 207.86C74.9491 206.561 72.7185 204.953 70.725 203.075C68.625 201.17 66.48 199.155 63.98 197.505C62.7553 196.683 61.4292 196.022 60.035 195.54C58.6814 195.08 57.2527 194.882 55.825 194.955C54.4475 195.05 53.0956 195.374 51.825 195.915C50.6024 196.434 49.4236 197.051 48.3 197.76C46.09 199.125 44.08 200.585 42.035 201.7C37.352 204.219 32.0033 205.225 26.725 204.58C25.588 204.45 24.464 204.224 23.365 203.905C23.4407 203.912 23.5158 203.924 23.59 203.94L24.235 204.08C24.8 204.2 25.645 204.355 26.735 204.48C29.8265 204.822 32.9543 204.606 35.97 203.845C38.0473 203.317 40.0498 202.529 41.93 201.5C43.93 200.385 45.96 198.925 48.175 197.545C49.3078 196.827 50.4966 196.202 51.73 195.675C53.0249 195.117 54.4038 194.779 55.81 194.675C57.2698 194.597 58.731 194.799 60.115 195.27C61.5309 195.757 62.876 196.429 64.115 197.27C66.645 198.935 68.795 200.96 70.89 202.865C72.8655 204.731 75.0758 206.331 77.465 207.625C78.5798 208.232 79.7678 208.695 81 209C82.1553 209.266 83.3478 209.33 84.525 209.19C84.8074 209.159 85.0878 209.112 85.365 209.05L86.175 208.84C86.6902 208.662 87.1916 208.447 87.675 208.195C88.5846 207.722 89.4382 207.148 90.22 206.485C91.72 205.24 92.99 203.985 94.16 202.925C95.1408 202.004 96.2266 201.202 97.395 200.535C97.6218 200.404 97.8573 200.289 98.1 200.19C98.3044 200.085 98.5168 199.997 98.735 199.925C99.0743 199.808 99.4198 199.709 99.77 199.63L100.42 199.525L100.635 199.5Z" fill="white"/>
<path d="M31.0502 144.86C31.0336 145.075 30.9882 145.287 30.9152 145.49C30.7485 146.056 30.524 146.604 30.2452 147.125C29.3367 148.869 27.9154 150.292 26.1729 151.203C24.4305 152.114 22.4506 152.469 20.5002 152.22C19.915 152.152 19.3385 152.023 18.7802 151.835C18.5703 151.778 18.3686 151.694 18.1802 151.585C18.9484 151.792 19.7304 151.944 20.5202 152.04C22.4304 152.236 24.3561 151.866 26.0583 150.977C27.7605 150.088 29.1641 148.719 30.0952 147.04C30.4626 146.336 30.7817 145.607 31.0502 144.86Z" fill="white"/>
<path d="M187.525 79.1602H92.9951C91.0787 79.1602 89.5251 80.7137 89.5251 82.6301V108.22C89.5251 110.137 91.0787 111.69 92.9951 111.69H187.525C189.442 111.69 190.995 110.137 190.995 108.22V82.6301C190.995 80.7137 189.442 79.1602 187.525 79.1602Z" fill="white"/>
<path d="M187.5 111.69C187.725 111.675 187.948 111.648 188.17 111.61C188.82 111.478 189.417 111.16 189.89 110.695C190.241 110.36 190.514 109.952 190.69 109.5C190.894 108.951 190.977 108.364 190.935 107.78C190.935 106.505 190.935 105.03 190.935 103.375C190.935 100.055 190.935 96.0001 190.935 91.2951C190.935 88.9401 190.935 86.4201 190.935 83.7501C190.979 83.081 190.938 82.4091 190.815 81.7501C190.638 81.0791 190.258 80.479 189.727 80.0316C189.197 79.5843 188.541 79.3114 187.85 79.2501C187.145 79.2201 186.4 79.2501 185.66 79.2501L93 79.2901C92.4544 79.2905 91.9171 79.4244 91.435 79.6801C90.9548 79.935 90.5431 80.3021 90.235 80.7501C89.9325 81.1988 89.7406 81.7128 89.675 82.2501C89.63 82.7801 89.675 83.3601 89.675 83.9101V90.5651C89.675 94.9717 89.675 99.3051 89.675 103.565V106.75C89.675 107.28 89.675 107.81 89.675 108.33C89.6957 108.836 89.8289 109.332 90.065 109.78C90.3017 110.222 90.6341 110.607 91.038 110.904C91.442 111.202 91.9073 111.405 92.4 111.5C92.898 111.555 93.3994 111.574 93.9 111.555H107.5L149.145 111.585L177.22 111.625L184.855 111.65H186.855H187.53C187.53 111.65 187.305 111.65 186.855 111.65H184.855H177.22L149.145 111.69L107.5 111.72H93.92C93.3976 111.742 92.8742 111.722 92.355 111.66C91.5481 111.515 90.8152 111.098 90.2784 110.479C89.7416 109.859 89.4333 109.074 89.405 108.255C89.405 107.72 89.405 107.2 89.405 106.67V83.8201C89.405 83.2551 89.405 82.7201 89.43 82.1301C89.4951 81.5479 89.7019 80.9905 90.0323 80.5068C90.3626 80.023 90.8065 79.6276 91.325 79.3551C91.8439 79.0795 92.4225 78.9353 93.01 78.9351L185.645 78.9751C186.39 78.9751 187.115 78.9751 187.85 78.9751C188.575 79.0414 189.263 79.3286 189.82 79.798C190.377 80.2674 190.777 80.8964 190.965 81.6001C191.054 81.9375 191.095 82.2861 191.085 82.6351V83.6351C191.085 86.3051 191.085 88.8251 191.085 91.1801C191.085 95.8851 191.085 99.9401 191.085 103.26C191.085 104.915 191.085 106.39 191.085 107.665C191.127 108.259 191.038 108.854 190.825 109.41C190.605 109.948 190.254 110.422 189.804 110.791C189.355 111.159 188.821 111.41 188.25 111.52C188.085 111.55 187.918 111.568 187.75 111.575L187.5 111.69Z" fill="#263238"/>
<path d="M183.685 85.8352C183.652 85.8355 183.619 85.823 183.595 85.8002C183.572 85.776 183.559 85.7437 183.559 85.7102C183.559 85.6766 183.572 85.6444 183.595 85.6202L186.095 83.2252C186.119 83.2019 186.151 83.189 186.185 83.189C186.219 83.189 186.251 83.2019 186.275 83.2252C186.298 83.2485 186.311 83.2799 186.311 83.3127C186.311 83.3454 186.298 83.3768 186.275 83.4002L183.775 85.7952C183.764 85.8078 183.75 85.8179 183.734 85.8248C183.719 85.8317 183.702 85.8352 183.685 85.8352Z" fill="#263238"/>
<path d="M186.175 85.8453C186.159 85.8459 186.143 85.8432 186.129 85.8371C186.114 85.8311 186.101 85.8219 186.09 85.8103L183.615 83.3953C183.603 83.3841 183.594 83.3705 183.587 83.3555C183.581 83.3404 183.577 83.3242 183.577 83.3078C183.577 83.2914 183.581 83.2752 183.587 83.2601C183.594 83.2451 183.603 83.2315 183.615 83.2203C183.638 83.1974 183.67 83.1846 183.703 83.1846C183.735 83.1846 183.767 83.1974 183.79 83.2203L186.29 85.6403C186.313 85.6637 186.326 85.6951 186.326 85.7278C186.326 85.7605 186.313 85.7919 186.29 85.8153C186.275 85.8299 186.257 85.8403 186.237 85.8455C186.216 85.8508 186.195 85.8507 186.175 85.8453Z" fill="#263238"/>
<path d="M111.39 101.745L110.39 100.3C109.775 99.43 109.445 98.3907 109.445 97.3252V94.0752C109.445 92.8086 108.991 91.584 108.165 90.6236C107.34 89.6631 106.197 89.0304 104.945 88.8402V87.2902C104.945 87.1006 104.87 86.9187 104.736 86.7846C104.602 86.6505 104.42 86.5752 104.23 86.5752C104.136 86.5752 104.044 86.5937 103.957 86.6297C103.871 86.6657 103.792 86.7185 103.726 86.7849C103.66 86.8514 103.608 86.9302 103.573 87.017C103.537 87.1037 103.519 87.1965 103.52 87.2902V88.7902C102.231 88.9431 101.043 89.5635 100.18 90.5338C99.3176 91.5041 98.8409 92.757 98.8401 94.0552V97.4202C98.8391 98.5772 98.45 99.7005 97.7351 100.61L96.8601 101.725L111.39 101.745Z" fill="#122750"/>
<path d="M103.355 104.105C103.751 104.265 104.183 104.312 104.604 104.239C105.024 104.167 105.416 103.978 105.735 103.695C106.009 103.443 106.215 103.127 106.335 102.775L102.1 102.745C102.203 103.047 102.368 103.323 102.584 103.557C102.801 103.791 103.063 103.978 103.355 104.105Z" fill="#122750"/>
<path d="M168.5 90.15C168.5 90.22 157.135 90.28 143.115 90.28C129.095 90.28 117.73 90.22 117.73 90.15C117.73 90.08 129.095 90.02 143.115 90.02C157.135 90.02 168.5 90.08 168.5 90.15Z" fill="#263238"/>
<path d="M180.44 96.295C180.44 96.365 166.395 96.425 149.075 96.425C131.755 96.425 117.705 96.365 117.705 96.295C117.705 96.225 131.745 96.165 149.075 96.165C166.405 96.165 180.44 96.22 180.44 96.295Z" fill="#E0E0E0"/>
<path d="M180.44 100C180.44 100.07 166.395 100.13 149.075 100.13C131.755 100.13 117.705 100.07 117.705 100C117.705 99.9301 131.745 99.8701 149.075 99.8701C166.405 99.8701 180.44 99.9001 180.44 100Z" fill="#E0E0E0"/>
<path d="M171.29 116.77H108.515C106.598 116.77 105.045 118.324 105.045 120.24V135.65C105.045 137.566 106.598 139.12 108.515 139.12H171.29C173.206 139.12 174.76 137.566 174.76 135.65V120.24C174.76 118.324 173.206 116.77 171.29 116.77Z" fill="#FAFAFA"/>
<path d="M171.29 139.12C171.29 139.12 171.445 139.12 171.745 139.07C172.19 139.012 172.619 138.864 173.005 138.635C173.519 138.335 173.947 137.906 174.246 137.391C174.545 136.875 174.705 136.291 174.71 135.695V134.1C174.71 131.84 174.71 129.1 174.685 125.885C174.685 124.285 174.685 122.57 174.685 120.755C174.709 120.302 174.672 119.848 174.575 119.405C174.462 118.956 174.256 118.535 173.97 118.17C173.677 117.79 173.306 117.477 172.881 117.253C172.457 117.029 171.989 116.898 171.51 116.87L108.51 116.9C107.769 116.9 107.049 117.145 106.463 117.597C105.877 118.049 105.457 118.684 105.27 119.4C105.182 119.758 105.147 120.127 105.165 120.495V121.63C105.165 122.385 105.165 123.13 105.165 123.885V134.885C105.165 135.245 105.165 135.61 105.165 135.95C105.202 136.294 105.288 136.631 105.42 136.95C105.692 137.579 106.15 138.11 106.731 138.473C107.312 138.835 107.99 139.012 108.675 138.98H116.86L145.175 139.005L164.27 139.05L169.46 139.075H170.81H171.27C171.27 139.075 171.11 139.075 170.81 139.075H169.46H164.27L145.175 139.115L116.86 139.145H108.695C107.959 139.179 107.231 138.989 106.606 138.6C105.981 138.21 105.489 137.64 105.195 136.965C105.056 136.623 104.965 136.263 104.925 135.895C104.895 135.515 104.925 135.165 104.925 134.805V120.5C104.906 120.11 104.945 119.719 105.04 119.34C105.239 118.564 105.692 117.877 106.325 117.387C106.959 116.897 107.739 116.632 108.54 116.635L171.54 116.68C172.291 116.728 173.008 117.014 173.587 117.496C174.165 117.977 174.576 118.63 174.76 119.36C174.86 119.816 174.897 120.284 174.87 120.75C174.87 122.565 174.87 124.28 174.87 125.88C174.87 129.08 174.87 131.835 174.87 134.095C174.87 134.655 174.87 135.19 174.87 135.69C174.864 136.165 174.76 136.633 174.565 137.065C174.258 137.743 173.745 138.306 173.1 138.675C172.706 138.901 172.271 139.044 171.82 139.095C171.644 139.118 171.467 139.127 171.29 139.12Z" fill="#263238"/>
<path d="M169.74 121.395C169.723 121.395 169.706 121.391 169.691 121.384C169.675 121.377 169.661 121.367 169.65 121.355C169.638 121.344 169.628 121.33 169.622 121.315C169.615 121.3 169.612 121.284 169.612 121.267C169.612 121.251 169.615 121.235 169.622 121.22C169.628 121.205 169.638 121.191 169.65 121.18L171.365 119.535C171.377 119.523 171.391 119.513 171.406 119.507C171.421 119.5 171.438 119.497 171.455 119.497C171.472 119.497 171.488 119.5 171.504 119.507C171.519 119.513 171.533 119.523 171.545 119.535C171.568 119.558 171.581 119.59 171.581 119.622C171.581 119.655 171.568 119.686 171.545 119.71L169.825 121.355C169.814 121.367 169.801 121.377 169.787 121.384C169.772 121.391 169.756 121.395 169.74 121.395Z" fill="#263238"/>
<path d="M171.45 121.4C171.417 121.4 171.384 121.388 171.36 121.365L169.66 119.705C169.642 119.681 169.633 119.651 169.635 119.621C169.637 119.591 169.65 119.563 169.672 119.541C169.693 119.52 169.721 119.507 169.751 119.505C169.781 119.503 169.811 119.512 169.835 119.53L171.535 121.19C171.558 121.213 171.571 121.245 171.571 121.277C171.571 121.31 171.558 121.342 171.535 121.365C171.512 121.387 171.482 121.399 171.45 121.4Z" fill="#263238"/>
<path d="M120.065 132.285L119.365 131.285C118.944 130.686 118.717 129.972 118.715 129.24V127C118.714 126.131 118.403 125.291 117.837 124.632C117.271 123.973 116.489 123.537 115.63 123.405V122.34C115.63 122.207 115.577 122.08 115.483 121.986C115.39 121.893 115.263 121.84 115.13 121.84C114.997 121.84 114.87 121.893 114.776 121.986C114.683 122.08 114.63 122.207 114.63 122.34V123.39C113.744 123.494 112.928 123.92 112.335 124.586C111.742 125.252 111.415 126.113 111.415 127.005V129.315C111.416 130.109 111.15 130.88 110.66 131.505L110.055 132.275L120.065 132.285Z" fill="#455A64"/>
<path d="M114.545 133.91C114.817 134.019 115.113 134.051 115.402 134.001C115.691 133.952 115.96 133.823 116.18 133.63C116.369 133.457 116.51 133.238 116.59 132.995H113.68C113.754 133.198 113.87 133.384 114.018 133.542C114.167 133.699 114.346 133.824 114.545 133.91Z" fill="#455A64"/>
<path d="M159.29 124.32C159.29 124.39 151.48 124.45 141.845 124.45C132.21 124.45 124.405 124.39 124.405 124.32C124.405 124.25 132.215 124.19 141.845 124.19C151.475 124.19 159.29 124.245 159.29 124.32Z" fill="#263238"/>
<path d="M167.5 128.54C167.5 128.615 157.85 128.67 145.95 128.67C134.05 128.67 124.395 128.615 124.395 128.54C124.395 128.465 134.04 128.41 145.95 128.41C157.86 128.41 167.5 128.47 167.5 128.54Z" fill="#E0E0E0"/>
<path d="M167.5 131.07C167.5 131.14 157.85 131.2 145.95 131.2C134.05 131.2 124.395 131.14 124.395 131.07C124.395 131 134.04 130.94 145.95 130.94C157.86 130.94 167.5 131 167.5 131.07Z" fill="#E0E0E0"/>
<path d="M171.025 142.595H108.775C106.859 142.595 105.305 144.149 105.305 146.065V161.305C105.305 163.222 106.859 164.775 108.775 164.775H171.025C172.941 164.775 174.495 163.222 174.495 161.305V146.065C174.495 144.149 172.941 142.595 171.025 142.595Z" fill="#FAFAFA"/>
<path d="M171.025 164.78C171.025 164.78 171.18 164.78 171.475 164.735C171.916 164.675 172.341 164.527 172.725 164.3C173.354 163.938 173.853 163.387 174.15 162.725C174.334 162.305 174.435 161.853 174.445 161.395V159.815C174.445 157.575 174.445 154.84 174.445 151.665C174.445 150.075 174.445 148.375 174.445 146.575C174.471 146.125 174.434 145.674 174.335 145.235C174.224 144.789 174.022 144.372 173.74 144.01C173.451 143.631 173.084 143.318 172.664 143.092C172.244 142.866 171.781 142.732 171.305 142.7L108.805 142.725C108.067 142.73 107.351 142.977 106.767 143.429C106.184 143.88 105.765 144.512 105.575 145.225C105.484 145.579 105.445 145.945 105.46 146.31V149.67C105.46 152.647 105.46 155.573 105.46 158.45V160.595C105.46 160.95 105.46 161.315 105.46 161.65C105.494 161.994 105.579 162.33 105.71 162.65C105.978 163.275 106.43 163.804 107.004 164.167C107.579 164.53 108.25 164.711 108.93 164.685H117.05L145.145 164.71L164.09 164.755L169.24 164.78H170.58H171.035C171.035 164.78 170.88 164.78 170.58 164.78H169.24L164.09 164.805L145.145 164.845L117.05 164.875H108.92C108.191 164.899 107.472 164.704 106.856 164.314C106.24 163.924 105.755 163.359 105.465 162.69C105.325 162.349 105.235 161.991 105.195 161.625C105.195 161.255 105.195 160.905 105.195 160.545C105.195 159.835 105.195 159.12 105.195 158.4V146.29C105.18 145.902 105.222 145.515 105.32 145.14C105.528 144.371 105.983 143.692 106.616 143.209C107.249 142.725 108.024 142.464 108.82 142.465L171.32 142.52C171.821 142.555 172.308 142.697 172.75 142.936C173.191 143.175 173.576 143.505 173.88 143.905C174.172 144.289 174.384 144.728 174.505 145.195C174.601 145.648 174.638 146.112 174.615 146.575C174.615 148.375 174.615 150.075 174.615 151.665C174.615 154.84 174.615 157.575 174.59 159.815C174.59 160.37 174.59 160.9 174.59 161.395C174.573 161.998 174.4 162.587 174.088 163.104C173.776 163.621 173.336 164.048 172.81 164.345C172.418 164.569 171.984 164.71 171.535 164.76C171.366 164.78 171.195 164.787 171.025 164.78Z" fill="#263238"/>
<path d="M169.5 147.19C169.483 147.19 169.466 147.186 169.451 147.179C169.435 147.172 169.421 147.162 169.41 147.15C169.398 147.139 169.388 147.125 169.382 147.11C169.375 147.095 169.372 147.079 169.372 147.062C169.372 147.046 169.375 147.03 169.382 147.015C169.388 147 169.398 146.986 169.41 146.975L171.115 145.34C171.139 145.317 171.171 145.304 171.205 145.304C171.239 145.304 171.271 145.317 171.295 145.34C171.318 145.363 171.331 145.395 171.331 145.427C171.331 145.46 171.318 145.492 171.295 145.515L169.59 147.15C169.579 147.163 169.565 147.173 169.549 147.18C169.534 147.187 169.517 147.19 169.5 147.19Z" fill="#263238"/>
<path d="M171.21 147.195C171.177 147.196 171.144 147.183 171.12 147.16L169.435 145.5C169.411 145.477 169.397 145.445 169.397 145.412C169.397 145.379 169.409 145.347 169.432 145.323C169.456 145.299 169.487 145.285 169.521 145.285C169.554 145.284 169.586 145.297 169.61 145.32L171.295 146.97C171.318 146.994 171.331 147.025 171.331 147.058C171.331 147.09 171.318 147.122 171.295 147.145C171.274 147.172 171.244 147.19 171.21 147.195Z" fill="#263238"/>
<path d="M120.215 158L119.5 157C119.079 156.407 118.854 155.697 118.855 154.97V152.76C118.855 151.896 118.545 151.061 117.983 150.406C117.421 149.75 116.643 149.317 115.79 149.185V148.13C115.79 147.997 115.737 147.87 115.644 147.776C115.55 147.683 115.423 147.63 115.29 147.63C115.157 147.63 115.03 147.683 114.936 147.776C114.843 147.87 114.79 147.997 114.79 148.13V149.17C113.912 149.275 113.103 149.699 112.516 150.36C111.929 151.022 111.605 151.875 111.605 152.76V155.055C111.605 155.843 111.341 156.609 110.855 157.23L110.3 158H120.215Z" fill="#E0E0E0"/>
<path d="M114.735 159.61C115.006 159.718 115.3 159.748 115.587 159.699C115.874 159.65 116.141 159.522 116.36 159.33C116.546 159.158 116.686 158.941 116.765 158.7H113.88C113.953 158.902 114.066 159.087 114.213 159.244C114.36 159.4 114.538 159.525 114.735 159.61Z" fill="#E0E0E0"/>
<path d="M159.14 150.09C159.14 150.165 151.39 150.22 141.83 150.22C132.27 150.22 124.52 150.165 124.52 150.09C124.52 150.015 132.27 149.96 141.83 149.96C151.39 149.96 159.14 150 159.14 150.09Z" fill="#263238"/>
<path d="M167.3 154.28C167.3 154.355 157.72 154.41 145.91 154.41C134.1 154.41 124.52 154.355 124.52 154.28C124.52 154.205 134.095 154.15 145.91 154.15C157.725 154.15 167.3 154.21 167.3 154.28Z" fill="#E0E0E0"/>
<path d="M167.3 156.79C167.3 156.86 157.72 156.92 145.91 156.92C134.1 156.92 124.52 156.86 124.52 156.79C124.52 156.72 134.095 156.66 145.91 156.66C157.725 156.66 167.3 156.72 167.3 156.79Z" fill="#E0E0E0"/>
<path d="M222.23 136.365C217.055 139.05 213.085 143.665 210.23 148.745C207.375 153.825 205.535 159.41 203.73 164.945L202.12 193.5C208.145 183.25 212.98 171.205 214.285 159.395L210.285 159.035C212.975 158.625 215.23 156.68 216.665 154.37C218.1 152.06 218.84 149.4 219.56 146.78L214.66 147.5C218.521 144.899 221.231 140.912 222.23 136.365Z" fill="#455A64"/>
<path d="M222.23 136.365C217.055 139.05 213.085 143.665 210.23 148.745C207.375 153.825 205.535 159.41 203.73 164.945L202.12 193.5C208.145 183.25 212.98 171.205 214.285 159.395L210.285 159.035C212.975 158.625 215.23 156.68 216.665 154.37C218.1 152.06 218.84 149.4 219.56 146.78L214.66 147.5C218.521 144.899 221.231 140.912 222.23 136.365Z" fill="#122750"/>
<g opacity="0.3">
<path d="M222.23 136.365C217.055 139.05 213.085 143.665 210.23 148.745C207.375 153.825 205.535 159.41 203.73 164.945L202.12 193.5C208.145 183.25 212.98 171.205 214.285 159.395L210.285 159.035C212.975 158.625 215.23 156.68 216.665 154.37C218.1 152.06 218.84 149.4 219.56 146.78L214.66 147.5C218.521 144.899 221.231 140.912 222.23 136.365Z" fill="black"/>
</g>
<path d="M201.23 200.195C201.23 200.195 188.155 184.55 188.305 169.61H193.59C193.59 169.61 187.85 165.84 188.305 163.725C188.76 161.61 188.91 153.615 188.91 153.615L193.74 154.825C193.74 154.825 190.12 153.015 189.665 150.145C189.21 147.275 190.72 134 190.72 134C190.72 134 196.605 140.19 198.415 146.525C200.225 152.86 204.98 160.255 203.585 179.57C202.19 198.885 201.23 200.195 201.23 200.195Z" fill="#122750"/>
<path d="M207.855 201.67C207.855 201.67 222.02 192.235 225.165 180.195L220.92 179.04C220.92 179.04 226.36 177.26 226.455 175.465C226.55 173.67 228.18 167.205 228.18 167.205L224.035 167.12C224.035 167.12 227.34 166.455 228.335 164.25C229.33 162.045 231 151.04 231 151.04C231 151.04 224.915 154.725 222.075 159.425C219.235 164.125 213.795 169.025 210.69 184.86C207.585 200.695 207.855 201.67 207.855 201.67Z" fill="#122750"/>
<path d="M194.29 147.645C194.314 147.696 194.331 147.75 194.34 147.805C194.37 147.93 194.41 148.09 194.455 148.305C194.555 148.745 194.695 149.37 194.875 150.16C195.055 150.95 195.27 151.955 195.5 153.105C195.73 154.255 196 155.565 196.27 157.015C196.83 159.915 197.425 163.385 198.03 167.245C198.635 171.105 199.21 175.36 199.735 179.84C200.26 184.32 200.645 188.6 200.95 192.495C201.255 196.39 201.45 199.905 201.57 202.855C201.64 204.33 201.675 205.665 201.71 206.855C201.745 208.045 201.77 209.04 201.775 209.855C201.78 210.67 201.775 211.305 201.775 211.755V212.255C201.78 212.312 201.78 212.368 201.775 212.425C201.766 212.369 201.766 212.311 201.775 212.255C201.775 212.13 201.775 211.97 201.775 211.755C201.775 211.3 201.735 210.665 201.705 209.85C201.675 209.035 201.645 208.015 201.595 206.85C201.545 205.685 201.495 204.35 201.41 202.85C201.27 199.9 201.035 196.39 200.735 192.5C200.435 188.61 200.01 184.335 199.495 179.855C198.98 175.375 198.395 171.13 197.815 167.27C197.235 163.41 196.65 159.94 196.115 157.035C195.86 155.585 195.615 154.27 195.385 153.12C195.155 151.97 194.975 150.975 194.81 150.165C194.645 149.355 194.53 148.745 194.44 148.3C194.405 148.1 194.375 147.94 194.355 147.8C194.328 147.751 194.307 147.699 194.29 147.645Z" fill="#263238"/>
<path d="M199.415 209.775C199.415 209.775 187.45 196.205 183.74 188L186.54 186.805C184.51 187.14 182.425 186.265 180.85 184.94C179.275 183.615 178.115 181.87 176.98 180.15L180.675 179.525C177.281 178.554 174.392 176.314 172.605 173.27C176.965 173.99 180.91 176.385 184.16 179.375C186.739 181.856 189.082 184.571 191.16 187.485C192.204 188.886 193.113 190.383 193.875 191.955C195.885 196.11 199.42 204.79 199.415 209.775Z" fill="#122750"/>
<path d="M225.355 158.94C225.342 158.989 225.324 159.036 225.3 159.08L225.12 159.475C224.945 159.835 224.7 160.34 224.395 160.975C223.755 162.28 222.845 164.175 221.75 166.53C219.55 171.235 216.655 177.8 213.795 185.19C210.935 192.58 208.665 199.39 207.125 204.35C206.355 206.85 205.75 208.85 205.345 210.24C205.145 210.92 204.985 211.455 204.87 211.84L204.735 212.255C204.724 212.304 204.707 212.351 204.685 212.395C204.688 212.346 204.696 212.297 204.71 212.25C204.735 212.14 204.77 212 204.815 211.825C204.915 211.435 205.06 210.895 205.24 210.21C205.615 208.805 206.19 206.78 206.935 204.295C208.435 199.295 210.675 192.49 213.53 185.09C216.385 177.69 219.325 171.13 221.57 166.445C222.69 164.1 223.625 162.215 224.295 160.945C224.625 160.315 224.88 159.815 225.07 159.445L225.275 159.06C225.325 159 225.35 158.935 225.355 158.94Z" fill="#263238"/>
<path d="M200.43 215.595C200.398 215.515 200.378 215.431 200.37 215.345C200.335 215.145 200.295 214.91 200.25 214.625C200.155 214 200 213.095 199.78 211.985C199.56 210.875 199.255 209.565 198.86 208.12C198.465 206.675 197.96 205.12 197.36 203.5C196.76 201.88 196.08 200.38 195.435 199.035C194.79 197.69 194.14 196.505 193.57 195.535C193 194.565 192.525 193.775 192.18 193.24L191.795 192.62C191.744 192.552 191.703 192.476 191.675 192.395C191.675 192.395 191.74 192.455 191.84 192.59L192.27 193.18C192.645 193.68 193.15 194.465 193.74 195.43C194.33 196.395 194.99 197.585 195.665 198.93C196.34 200.275 197.005 201.79 197.62 203.43C198.235 205.07 198.72 206.635 199.12 208.085C199.52 209.535 199.79 210.86 199.985 211.98C200.18 213.1 200.31 214.01 200.365 214.64C200.395 214.93 200.415 215.17 200.435 215.37C200.444 215.445 200.443 215.521 200.43 215.595Z" fill="#263238"/>
<path d="M216.22 212.4H190.035V217.74H216.22V212.4Z" fill="#455A64"/>
<path d="M192.53 217.74L195.36 235.705H211.18L213.82 217.74H192.53Z" fill="#455A64"/>
<path d="M214.61 217.74C214.61 217.82 209.655 217.88 203.55 217.88C197.445 217.88 192.485 217.82 192.485 217.74C192.485 217.66 197.44 217.6 203.55 217.6C209.66 217.6 214.61 217.665 214.61 217.74Z" fill="#263238"/>
<path d="M60.81 85.045L61.355 78.585C58.2134 76.4968 55.9665 73.3091 55.0559 69.6483C54.1454 65.9876 54.6371 62.1187 56.4344 58.8021C58.2316 55.4854 61.2045 52.9611 64.7686 51.7251C68.3326 50.4892 72.2301 50.6311 75.6949 52.123C79.1596 53.6148 81.941 56.3487 83.4923 59.7873C85.0436 63.2258 85.2527 67.1203 84.0783 70.7051C82.9039 74.2899 80.4311 77.3058 77.146 79.1599C73.8608 81.0141 70.0009 81.5723 66.325 80.725L60.81 85.045Z" fill="white"/>
<path d="M60.8101 85.0452L66.3651 80.7652L66.4201 80.7202L66.3551 80.6902L66.3201 80.7752C67.5004 81.0488 68.7086 81.183 69.9201 81.1752C71.3625 81.1576 72.7952 80.9354 74.1751 80.5152C74.9399 80.2846 75.6828 79.9868 76.3951 79.6252C76.7551 79.4302 77.1351 79.2452 77.5001 79.0402L78.5801 78.3302C81.7057 76.0569 83.8505 72.6806 84.5801 68.8852C85.0138 66.776 84.9865 64.5979 84.5001 62.5002C83.953 60.3041 82.9287 58.2555 81.5001 56.5002C80.0218 54.6523 78.1244 53.1834 75.9651 52.2152L75.1201 51.8602C74.8401 51.7352 74.5401 51.6652 74.2551 51.5702C73.9701 51.4752 73.6801 51.3702 73.3851 51.3152L72.5001 51.1252C72.2073 51.0575 71.9098 51.0124 71.6101 50.9902L70.7201 50.8852H69.8301C69.5354 50.8677 69.2399 50.8677 68.9451 50.8852C66.6398 51.016 64.393 51.6618 62.3701 52.7752C60.4531 53.8217 58.7903 55.2779 57.5001 57.0402C55.1908 60.2125 54.1835 64.1485 54.6851 68.0402C54.9284 69.6819 55.4207 71.277 56.1451 72.7702C56.7851 74.0604 57.6087 75.2511 58.5901 76.3052C59.4067 77.1826 60.3248 77.9598 61.3251 78.6202V78.5802C61.0051 82.7102 60.8251 84.7302 60.8251 85.0452C60.8551 84.7302 61.0401 82.7152 61.4151 78.5902V78.5652C60.427 77.9007 59.5192 77.1239 58.7101 76.2502C57.7428 75.1961 56.9312 74.0091 56.3001 72.7252C55.5894 71.243 55.1073 69.6618 54.8701 68.0352C54.3825 64.1819 55.3859 60.2879 57.6751 57.1502C58.9554 55.412 60.6005 53.9751 62.4951 52.9402C64.4957 51.8426 66.7167 51.2071 68.9951 51.0802C69.2865 51.0627 69.5787 51.0627 69.8701 51.0802H70.7501L71.6301 51.1852C71.9248 51.2082 72.2173 51.2533 72.5051 51.3202L73.3801 51.5052C73.6751 51.5602 73.9501 51.6752 74.2401 51.7552C74.5301 51.8352 74.8201 51.9202 75.0951 52.0452L75.9251 52.3952C78.0583 53.3512 79.9332 54.8011 81.3951 56.6252C82.8004 58.3666 83.8042 60.3965 84.3351 62.5702C84.8283 64.6315 84.8743 66.7746 84.4701 68.8552C83.738 72.6163 81.604 75.9585 78.5001 78.2052L77.4351 78.9102C77.0701 79.1202 76.6951 79.3002 76.3401 79.4952C75.6337 79.8545 74.8977 80.1523 74.1401 80.3852C72.7742 80.8083 71.3549 81.0339 69.9251 81.0552C68.7212 81.0705 67.5197 80.9447 66.3451 80.6802L66.3151 80.7652V80.6852C62.8101 83.4652 61.0701 84.8402 60.8101 85.0452Z" fill="#263238"/>
<path d="M67.5802 58.3403L68.0452 67.1203C68.0651 67.4667 68.2106 67.7939 68.4545 68.0406C68.6985 68.2873 69.0241 68.4365 69.3702 68.4603C69.7319 68.4834 70.0887 68.3673 70.3676 68.1358C70.6464 67.9044 70.8262 67.575 70.8702 67.2153L71.9352 58.4053C71.9535 58.2481 71.9384 58.0888 71.8907 57.9379C71.843 57.7869 71.7639 57.6478 71.6586 57.5297C71.5532 57.4116 71.424 57.3172 71.2795 57.2526C71.135 57.1881 70.9784 57.1549 70.8202 57.1553H68.6802C68.5287 57.1563 68.3791 57.1883 68.2404 57.2493C68.1018 57.3103 67.9772 57.3991 67.8741 57.5101C67.7711 57.6211 67.6918 57.752 67.6413 57.8948C67.5907 58.0376 67.5699 58.1892 67.5802 58.3403Z" fill="#122750"/>
<path d="M71.6651 72.8751C71.5316 73.2768 71.282 73.63 70.9479 73.8898C70.6137 74.1497 70.21 74.3046 69.7878 74.335C69.3656 74.3654 68.9438 74.2699 68.5759 74.0606C68.2079 73.8512 67.9104 73.5375 67.7208 73.159C67.5312 72.7805 67.4581 72.3543 67.5108 71.9343C67.5634 71.5143 67.7395 71.1193 68.0167 70.7993C68.2938 70.4794 68.6597 70.2488 69.0679 70.1368C69.4761 70.0248 69.9084 70.0364 70.31 70.1701C70.8483 70.3493 71.2934 70.7349 71.5475 71.2421C71.8016 71.7493 71.8439 72.3367 71.6651 72.8751Z" fill="#122750"/>
</svg>
