<svg width="224" height="223" viewBox="0 0 224 223" fill="none" xmlns="http://www.w3.org/2000/svg">
<path d="M208.733 141.025H135.638V98.7266H208.733V141.025ZM136.084 140.579H208.287V99.1726H136.084V140.579Z" fill="#E0E0E0"/>
<path d="M193.654 121.281H145.428V122.695H193.654V121.281Z" fill="#F0F0F0"/>
<path d="M196.976 126.552H145.428V128.096H196.976V126.552Z" fill="#F0F0F0"/>
<path d="M196.976 131.887H145.428V133.43H196.976V131.887Z" fill="#F0F0F0"/>
<path d="M162.282 113.623H145.428V117.294H162.282V113.623Z" fill="#F0F0F0"/>
<path d="M208.51 98.9495H135.874V105.684H208.51V98.9495Z" fill="#E0E0E0"/>
<path d="M202.921 104.676C202.828 104.587 203.764 103.459 205.009 102.156C206.253 100.854 207.346 99.8683 207.435 99.9531C207.524 100.038 206.592 101.171 205.348 102.477C204.103 103.784 203.011 104.765 202.921 104.676Z" fill="white"/>
<path d="M207.444 104.676C207.355 104.765 206.267 103.784 205.018 102.478C203.769 101.171 202.837 100.042 202.93 99.9531C203.024 99.8639 204.108 100.845 205.357 102.156C206.605 103.468 207.529 104.587 207.444 104.676Z" fill="white"/>
<path d="M118.788 15.1863H46.1526V57.0434H118.788V15.1863Z" fill="#E6E6E6"/>
<path d="M103.936 37.522H55.7102V38.9358H103.936V37.522Z" fill="#F0F0F0"/>
<path d="M107.259 42.7937H55.7102V44.3369H107.259V42.7937Z" fill="#F0F0F0"/>
<path d="M107.259 48.1279H55.7102V49.6711H107.259V48.1279Z" fill="#F0F0F0"/>
<path d="M72.5645 29.8643H55.7102V33.5348H72.5645V29.8643Z" fill="#F0F0F0"/>
<path d="M118.788 15.1863H46.1526V21.9209H118.788V15.1863Z" fill="#E0E0E0"/>
<path d="M112.954 20.8818C112.861 20.797 113.797 19.6642 115.042 18.3619C116.286 17.0595 117.379 16.0739 117.468 16.1631C117.557 16.2523 116.625 17.3807 115.381 18.683C114.136 19.9853 113.044 20.962 112.954 20.8818Z" fill="white"/>
<path d="M117.468 20.8818C117.379 20.971 116.291 19.9898 115.042 18.683C113.793 17.3762 112.861 16.2523 112.954 16.1631C113.048 16.0739 114.132 17.0551 115.381 18.3619C116.63 19.6687 117.562 20.797 117.468 20.8818Z" fill="white"/>
<path d="M91.2788 92.942H18.1973V50.6389H91.2788V92.942ZM18.6433 92.496H90.8328V51.0849H18.6433V92.496Z" fill="#E0E0E0"/>
<path d="M76.204 73.1975H27.978V74.6113H76.204V73.1975Z" fill="#F0F0F0"/>
<path d="M79.5267 78.4692H27.978V80.0124H79.5267V78.4692Z" fill="#F0F0F0"/>
<path d="M79.5267 83.8035H27.978V85.3466H79.5267V83.8035Z" fill="#F0F0F0"/>
<path d="M44.8324 65.5398H27.978V69.2104H44.8324V65.5398Z" fill="#F0F0F0"/>
<path d="M91.0557 50.8618H18.4202V57.5964H91.0557V50.8618Z" fill="#E0E0E0"/>
<path d="M175.622 102.634H89.8562V179.417H175.622V102.634Z" fill="#E6E6E6"/>
<path d="M94.1688 78.447H26.9834V148.25H94.1688V78.447Z" fill="#F0F0F0"/>
<path d="M94.1688 78.447H26.9834V86.0513H94.1688V78.447Z" fill="#E0E0E0"/>
<path d="M32.5317 82.171C32.5195 82.4468 32.4265 82.7129 32.2644 82.9363C32.1023 83.1597 31.8782 83.3306 31.6198 83.4277C31.3614 83.5249 31.0802 83.5441 30.8111 83.4828C30.5419 83.4216 30.2967 83.2827 30.1058 83.0833C29.9149 82.884 29.7867 82.6329 29.7372 82.3614C29.6877 82.0898 29.719 81.8097 29.8273 81.5558C29.9355 81.3019 30.116 81.0854 30.3462 80.9331C30.5764 80.7808 30.8463 80.6995 31.1223 80.6992C31.504 80.7086 31.8665 80.8686 32.1306 81.1444C32.3947 81.4202 32.5389 81.7893 32.5317 82.171V82.171Z" fill="white"/>
<path d="M38.2539 82.171C38.2426 82.4481 38.15 82.7157 37.9877 82.9405C37.8254 83.1654 37.6005 83.3375 37.3412 83.4356C37.0818 83.5336 36.7993 83.5532 36.5288 83.4919C36.2584 83.4306 36.0119 83.2911 35.8202 83.0909C35.6284 82.8906 35.4997 82.6383 35.4502 82.3655C35.4007 82.0926 35.4325 81.8113 35.5417 81.5564C35.6509 81.3015 35.8326 81.0843 36.0643 80.9319C36.2959 80.7795 36.5673 80.6986 36.8446 80.6992C37.2263 80.7086 37.5888 80.8686 37.8529 81.1444C38.1169 81.4202 38.2611 81.7893 38.2539 82.171V82.171Z" fill="white"/>
<path d="M43.9761 82.171C43.9647 82.4481 43.8721 82.7157 43.7098 82.9405C43.5475 83.1654 43.3227 83.3375 43.0633 83.4356C42.8039 83.5336 42.5214 83.5532 42.251 83.4919C41.9806 83.4306 41.7341 83.2911 41.5423 83.0909C41.3505 82.8906 41.2219 82.6383 41.1724 82.3655C41.1229 82.0926 41.1547 81.8113 41.2639 81.5564C41.373 81.3015 41.5548 81.0843 41.7864 80.9319C42.0181 80.7795 42.2895 80.6986 42.5667 80.6992C42.9485 80.7086 43.3109 80.8686 43.575 81.1444C43.8391 81.4202 43.9833 81.7893 43.9761 82.171V82.171Z" fill="white"/>
<path d="M199.14 30.4529H113.374V115.933H199.14V30.4529Z" fill="#F0F0F0"/>
<path d="M199.14 30.4529H113.374V40.4656H199.14V30.4529Z" fill="#E0E0E0"/>
<path d="M120.679 35.3588C120.663 35.7228 120.541 36.0742 120.327 36.3693C120.114 36.6644 119.818 36.8902 119.477 37.0188C119.136 37.1473 118.765 37.1729 118.41 37.0923C118.054 37.0117 117.731 36.8286 117.478 36.5655C117.226 36.3025 117.057 35.9712 116.991 35.6128C116.926 35.2544 116.967 34.8847 117.11 34.5495C117.253 34.2143 117.491 33.9284 117.795 33.7274C118.099 33.5264 118.455 33.419 118.819 33.4187C119.323 33.4304 119.801 33.6411 120.15 34.0047C120.498 34.3683 120.689 34.8552 120.679 35.3588V35.3588Z" fill="white"/>
<path d="M127.668 34.0477C127.915 34.3162 128.078 34.6515 128.136 35.0119C128.194 35.3723 128.145 35.7418 127.994 36.0743C127.844 36.4068 127.599 36.6878 127.29 36.882C126.981 37.0763 126.621 37.1754 126.256 37.1668C125.891 37.1583 125.537 37.0426 125.238 36.8341C124.938 36.6257 124.706 36.3336 124.571 35.9944C124.437 35.6552 124.405 35.2839 124.479 34.9266C124.554 34.5693 124.732 34.2419 124.992 33.9853C125.355 33.6394 125.841 33.4517 126.343 33.4634C126.844 33.4751 127.321 33.6852 127.668 34.0477V34.0477Z" fill="white"/>
<path d="M135.745 35.3588C135.729 35.7228 135.607 36.0742 135.393 36.3693C135.18 36.6644 134.884 36.8902 134.543 37.0188C134.202 37.1473 133.831 37.1729 133.476 37.0923C133.12 37.0117 132.796 36.8286 132.544 36.5655C132.292 36.3025 132.123 35.9712 132.057 35.6128C131.992 35.2544 132.033 34.8847 132.176 34.5495C132.319 34.2143 132.557 33.9284 132.861 33.7274C133.165 33.5264 133.521 33.419 133.885 33.4187C134.389 33.4304 134.867 33.6411 135.216 34.0047C135.564 34.3683 135.755 34.8552 135.745 35.3588V35.3588Z" fill="white"/>
<path d="M180.613 202.096C180.613 202.158 149.642 202.212 111.451 202.212C73.2605 202.212 42.2769 202.158 42.2769 202.096C42.2769 202.034 73.2426 201.98 111.451 201.98C149.66 201.98 180.613 202.038 180.613 202.096Z" fill="#263238"/>
<path d="M150.436 147.497C143.545 142.684 141.984 133.751 142.257 125.718C142.301 124.38 142.154 122.962 142.792 121.789C143.43 120.616 144.919 119.809 146.119 120.371C147.113 120.839 147.546 121.999 148.104 122.958C148.847 124.235 149.938 125.275 151.248 125.959C152.1 126.405 153.157 126.673 154 126.209C155.159 125.571 155.293 123.979 155.284 122.641C155.284 120.152 155.269 117.667 155.24 115.184C155.159 113.851 155.295 112.513 155.641 111.223C156.056 109.957 156.979 108.784 158.241 108.427C159.503 108.07 161.078 108.806 161.363 110.108C161.412 110.66 161.426 111.214 161.403 111.768C161.439 112.325 161.698 112.936 162.219 113.106C162.741 113.275 163.285 112.887 163.687 112.495C165.061 111.157 165.997 109.413 166.867 107.691C167.737 105.97 168.588 104.199 169.837 102.732C171.086 101.264 172.812 100.1 174.743 99.9887C176.674 99.8772 178.686 101.064 179.167 102.937C179.649 104.81 178.556 106.723 177.383 108.244C175.613 110.502 173.527 112.492 171.189 114.154C170.732 114.403 170.368 114.792 170.149 115.264C169.859 116.156 170.702 117.048 171.581 117.329C172.576 117.659 173.655 117.557 174.703 117.681C175.751 117.806 176.866 118.261 177.263 119.242C177.807 120.607 176.665 122.034 175.546 122.971C173.298 124.844 170.746 126.318 168 127.328C167.018 127.685 165.988 128.002 165.194 128.689C164.4 129.376 163.928 130.575 164.405 131.516C164.882 132.457 166.109 132.756 167.139 132.565C168.169 132.373 169.083 131.82 170.065 131.45C171.898 130.758 174.261 130.883 175.417 132.466C175.774 133.012 176.001 133.633 176.078 134.28C176.156 134.928 176.082 135.585 175.863 136.199C175.416 137.422 174.729 138.543 173.842 139.495C170.921 142.985 167.126 145.637 162.844 147.18C158.594 148.652 154.655 149.053 150.432 147.506" fill="#122750"/>
<path d="M177.205 101.09C177.205 101.09 177.165 101.135 177.076 101.215L176.679 101.568C176.331 101.88 175.818 102.335 175.171 102.937C173.338 104.639 171.635 106.477 170.078 108.436C169.084 109.671 168.053 111.072 166.956 112.593C165.859 114.114 164.726 115.755 163.602 117.499C162.404 119.338 161.307 121.24 160.315 123.199C159.798 124.22 159.343 125.286 158.875 126.374L157.492 129.697C155.67 133.882 154.082 138.166 152.738 142.528C151.655 146.097 150.908 149.76 150.508 153.469C150.248 155.971 150.206 158.492 150.383 161.002C150.454 161.894 150.521 162.576 150.583 163.04C150.61 163.263 150.628 163.441 150.646 163.57V163.753C150.627 163.695 150.613 163.636 150.606 163.575C150.583 163.446 150.557 163.272 150.521 163.049C150.441 162.603 150.356 161.898 150.276 161.006C150.061 158.491 150.075 155.963 150.32 153.451C150.696 149.727 151.426 146.047 152.501 142.461C153.835 138.087 155.417 133.792 157.242 129.599L158.66 126.289C159.129 125.206 159.588 124.131 160.11 123.105C161.108 121.141 162.215 119.233 163.424 117.392C164.566 115.608 165.716 113.993 166.8 112.486C167.884 110.978 168.932 109.569 169.922 108.338C171.495 106.385 173.22 104.559 175.082 102.879C175.742 102.286 176.269 101.84 176.625 101.541L177.04 101.206C177.091 101.162 177.146 101.123 177.205 101.09Z" fill="#263238"/>
<path d="M160.168 123.096C160.105 122.912 160.062 122.722 160.039 122.53C159.967 122.159 159.887 121.638 159.793 120.96C159.602 119.622 159.405 117.789 159.196 115.759C158.986 113.73 158.75 111.892 158.553 110.568C158.451 109.908 158.362 109.377 158.299 109.007C158.25 108.817 158.225 108.623 158.223 108.427C158.3 108.606 158.356 108.793 158.388 108.985C158.487 109.35 158.598 109.877 158.723 110.541C158.977 111.879 159.227 113.699 159.436 115.732C159.646 117.766 159.825 119.55 159.963 120.937C160.03 121.562 160.088 122.092 160.132 122.516C160.167 122.707 160.179 122.902 160.168 123.096Z" fill="#263238"/>
<path d="M177.33 119.894C177.113 119.941 176.892 119.968 176.67 119.974C176.224 120.014 175.59 120.068 174.806 120.157C173.236 120.326 171.077 120.639 168.709 121.085C166.34 121.531 164.213 122.035 162.683 122.423C161.921 122.619 161.305 122.797 160.899 122.918C160.683 122.995 160.458 123.048 160.23 123.078C160.436 122.975 160.651 122.889 160.872 122.824C161.292 122.677 161.898 122.472 162.656 122.253C164.177 121.807 166.305 121.276 168.682 120.821C170.696 120.436 172.728 120.154 174.77 119.974C175.559 119.907 176.197 119.88 176.643 119.871C176.872 119.856 177.102 119.863 177.33 119.894Z" fill="#263238"/>
<path d="M152.72 142.149C152.672 142.085 152.633 142.014 152.604 141.939L152.309 141.32C152.055 140.78 151.712 139.982 151.301 139.005C150.472 137.042 149.415 134.295 148.291 131.244C147.167 128.194 146.132 125.446 145.347 123.462C144.964 122.498 144.647 121.709 144.411 121.12L144.161 120.482C144.126 120.409 144.102 120.331 144.09 120.25C144.137 120.315 144.176 120.386 144.206 120.46L144.5 121.08C144.75 121.62 145.098 122.418 145.508 123.395C146.337 125.357 147.394 128.105 148.518 131.155C149.642 134.206 150.677 136.953 151.462 138.938C151.846 139.901 152.162 140.691 152.394 141.279C152.497 141.534 152.581 141.725 152.648 141.917C152.683 141.991 152.707 142.069 152.72 142.149Z" fill="#263238"/>
<path d="M175.501 134.803C175.43 134.844 175.354 134.876 175.274 134.897L174.614 135.12L172.174 135.91C170.114 136.579 167.268 137.533 164.146 138.586C161.024 139.638 158.165 140.575 156.092 141.199C155.057 141.516 154.214 141.757 153.63 141.917L152.956 142.091C152.878 142.116 152.797 142.132 152.715 142.14C152.787 142.099 152.863 142.068 152.943 142.047L153.603 141.824L156.042 141.034C158.103 140.365 160.948 139.411 164.07 138.358C167.192 137.306 170.047 136.369 172.121 135.745C173.16 135.428 173.998 135.187 174.587 135.026L175.261 134.853C175.339 134.828 175.42 134.811 175.501 134.803Z" fill="#263238"/>
<path d="M166.207 26.6172L163.91 27.4378L162.924 24.4363C161.114 18.9014 155.342 15.9623 150.039 17.831C144.736 19.6997 141.913 25.7698 143.724 31.3047L144.71 34.3062L142.404 35.1313C141.525 35.4724 140.811 36.1391 140.41 36.993C140.01 37.8469 139.954 38.8222 140.254 39.7162L146.645 59.2465C146.778 59.6891 146.998 60.1005 147.293 60.4563C147.588 60.8121 147.951 61.1049 148.361 61.3175C148.772 61.5301 149.22 61.6581 149.681 61.6938C150.142 61.7296 150.605 61.6724 151.043 61.5256L174.846 53.0115C175.737 52.671 176.461 51.9984 176.866 51.135C177.271 50.2716 177.326 49.2847 177.018 48.382L170.622 28.8517C170.486 28.4103 170.263 28.0009 169.965 27.6479C169.667 27.2949 169.301 27.0055 168.889 26.7969C168.477 26.5884 168.027 26.465 167.566 26.4341C167.105 26.4032 166.643 26.4655 166.207 26.6172ZM148.064 29.7392C147.575 28.3 147.663 26.7278 148.308 25.3518C148.953 23.9759 150.106 22.903 151.525 22.3579C152.225 22.1182 152.967 22.0221 153.705 22.0753C154.444 22.1285 155.164 22.3299 155.823 22.6674C156.482 23.005 157.066 23.4719 157.54 24.0401C158.015 24.6084 158.37 25.2664 158.585 25.975L159.566 28.9765L149.045 32.7408L148.064 29.7392ZM161.444 47.0708L163.076 52.057C163.106 52.157 163.096 52.2647 163.049 52.3577C163.002 52.4507 162.92 52.522 162.822 52.5565L160.534 53.3727C160.443 53.398 160.345 53.387 160.262 53.3421C160.179 53.2972 160.117 53.2219 160.088 53.1319L158.442 48.1679C157.535 48.1185 156.664 47.793 155.946 47.235C155.229 46.6771 154.699 45.9133 154.428 45.0459C154.04 43.8992 154.111 42.6469 154.625 41.5512C155.14 40.4555 156.059 39.6014 157.189 39.1676C157.747 38.977 158.337 38.9006 158.926 38.9431C159.514 38.9856 160.087 39.146 160.612 39.4149C161.137 39.6838 161.602 40.0555 161.98 40.508C162.358 40.9605 162.642 41.4845 162.813 42.0488C163.1 42.9299 163.124 43.8755 162.881 44.7699C162.639 45.6643 162.141 46.4685 161.448 47.0841L161.444 47.0708Z" fill="#122750"/>
<path d="M163.807 27.3844C163.807 27.4468 159.548 29.048 154.25 30.9524C148.951 32.8568 144.629 34.3866 144.607 34.342C144.585 34.2974 148.866 32.6829 154.169 30.774C159.472 28.8651 163.785 27.3264 163.807 27.3844Z" fill="#263238"/>
<path d="M168.865 28.2048C168.885 28.2435 168.901 28.2838 168.914 28.3253C168.95 28.4145 168.99 28.5304 169.044 28.6731C169.16 28.9987 169.32 29.4492 169.521 30.0111L171.233 34.9974C171.947 37.1115 172.799 39.618 173.744 42.401C174.19 43.797 174.717 45.251 175.207 46.7807C175.47 47.5691 175.583 48.3994 175.542 49.2293C175.504 49.6609 175.381 50.0807 175.181 50.4647C174.966 50.8474 174.68 51.1851 174.338 51.4593C173.649 51.9623 172.884 52.3522 172.072 52.6144L169.775 53.4395L165.426 54.9961L158.063 57.6185L153.09 59.3669L151.752 59.8129L151.395 59.9288C151.357 59.9458 151.316 59.9563 151.275 59.96C151.275 59.96 151.311 59.96 151.386 59.9065L151.734 59.7682L153.072 59.2643L158.018 57.4446L165.369 54.7686L169.708 53.1987L172.005 52.3691C172.794 52.1176 173.536 51.7395 174.204 51.2497C174.522 50.9952 174.789 50.6818 174.989 50.3264C175.178 49.9713 175.291 49.5812 175.323 49.1802C175.364 48.3806 175.255 47.5804 175.002 46.8209C174.52 45.3045 174.012 43.8371 173.553 42.4412C172.625 39.6537 171.769 37.1382 171.091 35.0242C170.413 32.9101 169.842 31.2109 169.449 30.0156C169.262 29.4313 169.119 28.9764 169.003 28.6464L168.896 28.2896C168.883 28.2625 168.872 28.2341 168.865 28.2048Z" fill="#263238"/>
<path d="M156.306 22.0547C156.306 22.0547 156.069 21.9388 155.632 21.7604C155.009 21.521 154.35 21.3883 153.683 21.3679C152.694 21.334 151.71 21.5198 150.802 21.912C149.698 22.4004 148.753 23.1903 148.077 24.1911C147.397 25.189 147.031 26.3683 147.029 27.5762C147.038 28.5662 147.188 29.5498 147.475 30.4975C147.707 31.3092 147.948 31.9559 148.108 32.4064C148.203 32.6352 148.28 32.8707 148.34 33.1111C148.213 32.8971 148.107 32.6716 148.024 32.4376C147.841 31.9916 147.578 31.3583 147.319 30.5421C147.001 29.5845 146.828 28.5848 146.806 27.5762C146.794 26.3227 147.168 25.0958 147.876 24.0617C148.576 23.0244 149.559 22.21 150.708 21.7158C151.645 21.3214 152.66 21.1475 153.674 21.2073C154.356 21.2421 155.025 21.4007 155.65 21.6756C155.817 21.7527 155.978 21.8421 156.132 21.9432C156.195 21.9711 156.254 22.0087 156.306 22.0547Z" fill="#263238"/>
<path d="M156.511 39.5067C156.582 39.4635 156.657 39.4263 156.734 39.3952C156.957 39.2944 157.188 39.2124 157.425 39.1499C157.801 39.0389 158.189 38.9731 158.58 38.9536C159.113 38.925 159.646 39.0055 160.146 39.19C161.288 39.5914 162.336 40.7555 162.853 42.312C163.101 43.1473 163.101 44.0367 162.853 44.8721C162.578 45.7787 162.085 46.6041 161.417 47.276L161.444 47.1556C162.037 48.7835 162.684 50.5496 163.353 52.3916L163.393 52.5031L163.281 52.5433L162.26 52.8822L160.03 53.627L159.918 53.6627L159.883 53.5512C159.272 51.7048 158.603 49.9832 158.099 48.2929L158.197 48.3687C157.325 48.2963 156.494 47.969 155.806 47.4276C155.184 46.9487 154.674 46.3399 154.312 45.6436C153.985 45.0262 153.822 44.3351 153.839 43.6366C153.86 42.9228 154.038 42.2223 154.361 41.5855C154.684 40.9486 155.144 40.391 155.708 39.9527C155.94 39.7643 156.201 39.6138 156.48 39.5067C156.228 39.6562 155.984 39.8184 155.748 39.9928C155.129 40.5168 154.654 41.191 154.37 41.9508C154.126 42.5237 154.012 43.1436 154.036 43.7659C154.06 44.3882 154.221 44.9974 154.508 45.55C154.865 46.2198 155.362 46.8041 155.967 47.2626C156.622 47.7772 157.415 48.0874 158.246 48.1546H158.322L158.344 48.2215C158.835 49.8806 159.508 51.6156 160.128 53.4709L159.981 53.3996L162.211 52.6548L163.228 52.3113L163.156 52.463C162.492 50.621 161.85 48.8504 161.261 47.2225V47.1556L161.314 47.1021C161.963 46.458 162.446 45.667 162.724 44.7962C162.96 43.9972 162.96 43.1467 162.724 42.3477C162.238 40.8491 161.234 39.7118 160.146 39.3104C159.664 39.1247 159.15 39.0382 158.634 39.0562C158.249 39.065 157.866 39.1174 157.492 39.2123C156.828 39.3773 156.515 39.529 156.511 39.5067Z" fill="#263238"/>
<path d="M142.725 168.285L98.174 168.079C95.6013 168.065 93.1393 167.031 91.3288 165.203C89.5184 163.375 88.5075 160.903 88.5182 158.33L88.9909 46.6471C88.9962 45.3724 89.2526 44.1113 89.7455 42.9358C90.2384 41.7603 90.9582 40.6935 91.8636 39.7963C92.7691 38.8992 93.8425 38.1892 95.0224 37.7071C96.2024 37.2251 97.4658 36.9802 98.7405 36.9867L143.287 37.1919C145.86 37.2048 148.322 38.2384 150.133 40.0656C151.945 41.8928 152.957 44.3642 152.947 46.937L152.475 158.615C152.469 159.89 152.213 161.152 151.72 162.328C151.227 163.504 150.508 164.571 149.602 165.469C148.697 166.367 147.624 167.078 146.444 167.561C145.264 168.044 144 168.29 142.725 168.285Z" fill="#455A64"/>
<path d="M143.22 41.0319H134.585C134.304 41.0371 134.026 41.0978 133.767 41.2104C133.509 41.3231 133.276 41.4856 133.08 41.6885C132.885 41.8914 132.731 42.1309 132.628 42.3932C132.525 42.6555 132.475 42.9356 132.48 43.2173V44.7827C132.486 45.0643 132.435 45.3441 132.332 45.6061C132.229 45.8682 132.076 46.1074 131.88 46.3099C131.685 46.5125 131.451 46.6745 131.193 46.7867C130.935 46.8989 130.657 46.959 130.375 46.9637L113.543 46.8879C112.974 46.8727 112.434 46.6321 112.041 46.219C111.649 45.8059 111.437 45.2541 111.451 44.6846V43.1192C111.466 42.5505 111.254 41.9993 110.863 41.5863C110.472 41.1733 109.933 40.9323 109.364 40.9159H106.327L98.7671 40.8802C96.969 40.8695 95.24 41.5718 93.9585 42.8332C92.677 44.0946 91.9476 45.8123 91.93 47.6104L91.484 156.622C91.4798 157.514 91.6515 158.398 91.989 159.224C92.3266 160.049 92.8235 160.8 93.4514 161.434C94.0792 162.068 94.8257 162.571 95.6483 162.917C96.4708 163.262 97.3533 163.441 98.2453 163.446L142.703 163.651C143.595 163.655 144.48 163.483 145.306 163.145C146.132 162.807 146.884 162.31 147.518 161.682C148.152 161.054 148.656 160.307 149.002 159.484C149.347 158.661 149.527 157.777 149.531 156.885L149.977 47.8735C149.988 46.0704 149.282 44.3369 148.015 43.0539C146.748 41.771 145.023 41.0437 143.22 41.0319Z" fill="white"/>
<path d="M137.239 149.107L104.182 148.964C103.838 148.964 103.562 148.589 103.566 148.134L103.602 139.487C103.602 139.041 103.883 138.657 104.226 138.657L137.284 138.809C137.474 138.842 137.644 138.947 137.759 139.102C137.874 139.257 137.924 139.451 137.899 139.643L137.868 148.282C137.868 148.741 137.583 149.111 137.239 149.107Z" fill="#122750"/>
<path d="M114.12 144.96C113.912 144.96 113.712 144.927 113.52 144.86C113.331 144.791 113.184 144.703 113.08 144.596L113.196 144.368C113.295 144.464 113.427 144.545 113.592 144.612C113.76 144.676 113.936 144.708 114.12 144.708C114.296 144.708 114.439 144.687 114.548 144.644C114.66 144.599 114.741 144.539 114.792 144.464C114.845 144.389 114.872 144.307 114.872 144.216C114.872 144.107 114.84 144.019 114.776 143.952C114.715 143.885 114.633 143.833 114.532 143.796C114.431 143.756 114.319 143.721 114.196 143.692C114.073 143.663 113.951 143.632 113.828 143.6C113.705 143.565 113.592 143.52 113.488 143.464C113.387 143.408 113.304 143.335 113.24 143.244C113.179 143.151 113.148 143.029 113.148 142.88C113.148 142.741 113.184 142.615 113.256 142.5C113.331 142.383 113.444 142.289 113.596 142.22C113.748 142.148 113.943 142.112 114.18 142.112C114.337 142.112 114.493 142.135 114.648 142.18C114.803 142.223 114.936 142.283 115.048 142.36L114.948 142.596C114.828 142.516 114.7 142.457 114.564 142.42C114.431 142.383 114.301 142.364 114.176 142.364C114.008 142.364 113.869 142.387 113.76 142.432C113.651 142.477 113.569 142.539 113.516 142.616C113.465 142.691 113.44 142.776 113.44 142.872C113.44 142.981 113.471 143.069 113.532 143.136C113.596 143.203 113.679 143.255 113.78 143.292C113.884 143.329 113.997 143.363 114.12 143.392C114.243 143.421 114.364 143.453 114.484 143.488C114.607 143.523 114.719 143.568 114.82 143.624C114.924 143.677 115.007 143.749 115.068 143.84C115.132 143.931 115.164 144.049 115.164 144.196C115.164 144.332 115.127 144.459 115.052 144.576C114.977 144.691 114.863 144.784 114.708 144.856C114.556 144.925 114.36 144.96 114.12 144.96ZM115.749 144.936V142.836H116.033V144.936H115.749ZM115.893 142.372C115.834 142.372 115.785 142.352 115.745 142.312C115.705 142.272 115.685 142.224 115.685 142.168C115.685 142.112 115.705 142.065 115.745 142.028C115.785 141.988 115.834 141.968 115.893 141.968C115.952 141.968 116.001 141.987 116.041 142.024C116.081 142.061 116.101 142.108 116.101 142.164C116.101 142.223 116.081 142.272 116.041 142.312C116.004 142.352 115.954 142.372 115.893 142.372ZM117.719 145.732C117.527 145.732 117.343 145.704 117.167 145.648C116.991 145.592 116.849 145.512 116.739 145.408L116.883 145.192C116.982 145.28 117.103 145.349 117.247 145.4C117.394 145.453 117.549 145.48 117.711 145.48C117.978 145.48 118.174 145.417 118.299 145.292C118.425 145.169 118.487 144.977 118.487 144.716V144.192L118.527 143.832L118.499 143.472V142.836H118.771V144.68C118.771 145.043 118.682 145.308 118.503 145.476C118.327 145.647 118.066 145.732 117.719 145.732ZM117.667 144.856C117.467 144.856 117.287 144.813 117.127 144.728C116.967 144.64 116.841 144.519 116.747 144.364C116.657 144.209 116.611 144.032 116.611 143.832C116.611 143.632 116.657 143.456 116.747 143.304C116.841 143.149 116.967 143.029 117.127 142.944C117.287 142.859 117.467 142.816 117.667 142.816C117.854 142.816 118.022 142.855 118.171 142.932C118.321 143.009 118.439 143.124 118.527 143.276C118.615 143.428 118.659 143.613 118.659 143.832C118.659 144.051 118.615 144.236 118.527 144.388C118.439 144.54 118.321 144.656 118.171 144.736C118.022 144.816 117.854 144.856 117.667 144.856ZM117.695 144.604C117.85 144.604 117.987 144.572 118.107 144.508C118.227 144.441 118.322 144.351 118.391 144.236C118.461 144.119 118.495 143.984 118.495 143.832C118.495 143.68 118.461 143.547 118.391 143.432C118.322 143.317 118.227 143.228 118.107 143.164C117.987 143.097 117.85 143.064 117.695 143.064C117.543 143.064 117.406 143.097 117.283 143.164C117.163 143.228 117.069 143.317 116.999 143.432C116.933 143.547 116.899 143.68 116.899 143.832C116.899 143.984 116.933 144.119 116.999 144.236C117.069 144.351 117.163 144.441 117.283 144.508C117.406 144.572 117.543 144.604 117.695 144.604ZM120.634 142.816C120.804 142.816 120.954 142.849 121.082 142.916C121.212 142.98 121.314 143.079 121.386 143.212C121.46 143.345 121.498 143.513 121.498 143.716V144.936H121.214V143.744C121.214 143.523 121.158 143.356 121.046 143.244C120.936 143.129 120.782 143.072 120.582 143.072C120.432 143.072 120.302 143.103 120.19 143.164C120.08 143.223 119.995 143.309 119.934 143.424C119.875 143.536 119.846 143.672 119.846 143.832V144.936H119.562V142.836H119.834V143.412L119.79 143.304C119.856 143.152 119.963 143.033 120.11 142.948C120.256 142.86 120.431 142.816 120.634 142.816ZM124.5 144.96C124.142 144.96 123.861 144.857 123.656 144.652C123.45 144.447 123.348 144.143 123.348 143.74V142.136H123.644V143.728C123.644 144.059 123.718 144.303 123.868 144.46C124.017 144.617 124.228 144.696 124.5 144.696C124.774 144.696 124.986 144.617 125.136 144.46C125.285 144.303 125.36 144.059 125.36 143.728V142.136H125.648V143.74C125.648 144.143 125.545 144.447 125.34 144.652C125.137 144.857 124.857 144.96 124.5 144.96ZM127.563 144.956C127.382 144.956 127.218 144.915 127.071 144.832C126.925 144.747 126.807 144.625 126.719 144.468C126.634 144.308 126.591 144.113 126.591 143.884C126.591 143.655 126.634 143.461 126.719 143.304C126.805 143.144 126.921 143.023 127.067 142.94C127.214 142.857 127.379 142.816 127.563 142.816C127.763 142.816 127.942 142.861 128.099 142.952C128.259 143.04 128.385 143.165 128.475 143.328C128.566 143.488 128.611 143.673 128.611 143.884C128.611 144.097 128.566 144.284 128.475 144.444C128.385 144.604 128.259 144.729 128.099 144.82C127.942 144.911 127.763 144.956 127.563 144.956ZM126.479 145.712V142.836H126.751V143.468L126.723 143.888L126.763 144.312V145.712H126.479ZM127.543 144.704C127.693 144.704 127.826 144.671 127.943 144.604C128.061 144.535 128.154 144.439 128.223 144.316C128.293 144.191 128.327 144.047 128.327 143.884C128.327 143.721 128.293 143.579 128.223 143.456C128.154 143.333 128.061 143.237 127.943 143.168C127.826 143.099 127.693 143.064 127.543 143.064C127.394 143.064 127.259 143.099 127.139 143.168C127.022 143.237 126.929 143.333 126.859 143.456C126.793 143.579 126.759 143.721 126.759 143.884C126.759 144.047 126.793 144.191 126.859 144.316C126.929 144.439 127.022 144.535 127.139 144.604C127.259 144.671 127.394 144.704 127.543 144.704Z" fill="#E8E8E3"/>
<path d="M110.775 73.0772L99.3044 73.0251L99.2949 75.1302L110.766 75.1823L110.775 73.0772Z" fill="#122750"/>
<path opacity="0.1" d="M110.775 73.0772L99.3044 73.0251L99.2949 75.1302L110.766 75.1823L110.775 73.0772Z" fill="black"/>
<path d="M144.402 86.0021C144.492 85.993 144.581 85.972 144.665 85.9397C144.789 85.8914 144.896 85.8093 144.975 85.7028C145.054 85.5963 145.101 85.4697 145.111 85.3376C145.111 84.6285 145.111 83.5937 145.111 82.2647C145.111 81.6001 145.111 80.8553 145.111 80.0347C145.111 79.834 145.111 79.6243 145.111 79.4147C145.14 79.2113 145.096 79.0042 144.986 78.8305C144.925 78.7471 144.845 78.6792 144.753 78.632C144.661 78.5848 144.559 78.5596 144.456 78.5584H143.76H137.315L100.012 78.4201C99.9161 78.4185 99.8217 78.44 99.7363 78.4827C99.6509 78.5254 99.577 78.5881 99.521 78.6654C99.4133 78.8399 99.3721 79.0473 99.4051 79.2497C99.4051 79.6957 99.4051 80.1417 99.4051 80.5877C99.4051 81.4797 99.4051 82.3717 99.4051 83.2637C99.4051 83.7097 99.4051 84.1557 99.4051 84.6017C99.3866 84.8094 99.3866 85.0184 99.4051 85.2261C99.4285 85.3151 99.472 85.3976 99.5324 85.4672C99.5927 85.5368 99.6681 85.5916 99.7529 85.6275C99.8408 85.6625 99.9349 85.6792 100.029 85.6766H102.3L112.205 85.7301L128.975 85.8327L140.281 85.9219L143.354 85.9575H144.152C144.335 85.9575 144.424 85.9575 144.424 85.9575H144.152H143.354H140.281H128.975L112.205 85.904L102.3 85.8639H100.029C99.9045 85.8689 99.7799 85.8477 99.6637 85.8014C99.5463 85.7513 99.4419 85.675 99.3584 85.5784C99.2749 85.4818 99.2146 85.3674 99.1821 85.2439C99.1562 85.1269 99.1472 85.0067 99.1553 84.8871V84.5571C99.1553 84.1111 99.1553 83.6651 99.1553 83.2191C99.1553 82.3271 99.1553 81.4351 99.1553 80.5431C99.1553 80.0971 99.1553 79.6511 99.1553 79.2051C99.1468 79.0863 99.1468 78.9671 99.1553 78.8483C99.172 78.7171 99.2228 78.5926 99.3025 78.487C99.3794 78.3794 99.4813 78.2919 99.5993 78.2321C99.7173 78.1723 99.8481 78.142 99.9804 78.1436L137.284 78.3488L143.729 78.3934H144.424C144.547 78.3935 144.668 78.4231 144.776 78.4798C144.885 78.5365 144.978 78.6185 145.049 78.719C145.174 78.9129 145.225 79.146 145.191 79.3746C145.191 79.5842 145.191 79.7938 145.191 79.9945C145.191 80.8062 145.191 81.5511 145.191 82.2245C145.191 83.5625 145.16 84.5883 145.151 85.3019C145.14 85.4391 145.091 85.5704 145.008 85.6802C144.925 85.79 144.812 85.8739 144.683 85.9219C144.599 85.9742 144.501 86.002 144.402 86.0021Z" fill="#E0E0E0"/>
<path d="M123.73 80.6589H102.75V82.6258H123.73V80.6589Z" fill="#122750"/>
<path opacity="0.2" d="M123.73 80.6589H102.75V82.6258H123.73V80.6589Z" fill="white"/>
<path d="M110.697 92.2813L99.2261 92.2292L99.2165 94.3343L110.688 94.3864L110.697 92.2813Z" fill="#122750"/>
<path opacity="0.1" d="M110.697 92.2813L99.2261 92.2292L99.2165 94.3343L110.688 94.3864L110.697 92.2813Z" fill="black"/>
<path d="M144.112 105.207C144.202 105.196 144.292 105.179 144.38 105.158C144.504 105.118 144.619 105.052 144.716 104.965C144.813 104.877 144.89 104.769 144.942 104.649C145.012 104.469 145.039 104.275 145.022 104.083C145.022 103.869 145.022 103.637 145.022 103.378C145.022 102.861 145.022 102.272 145.022 101.594V98.7622C145.043 98.5572 144.998 98.3507 144.893 98.1735C144.783 97.9917 144.61 97.8568 144.406 97.7944C144.184 97.7548 143.958 97.7428 143.733 97.7587H137.315L100.141 97.6205C99.941 97.6209 99.748 97.694 99.5979 97.8261C99.4477 97.9582 99.3507 98.1403 99.3248 98.3385C99.3248 98.7622 99.3248 99.2305 99.3248 99.6765C99.3248 100.569 99.3248 101.461 99.3248 102.353C99.3248 102.799 99.3248 103.245 99.3248 103.691C99.3081 103.899 99.3171 104.109 99.3515 104.315C99.4072 104.496 99.5218 104.653 99.6771 104.761C99.8418 104.865 100.035 104.915 100.23 104.904H100.85H102.139L112.009 104.953L128.721 105.055L139.987 105.144L143.051 105.18H143.849H144.117H143.849H143.051H139.987H128.721L112 105.162L102.13 105.127H100.19C99.9488 105.141 99.7094 105.077 99.5076 104.944C99.3047 104.803 99.1566 104.597 99.0884 104.36C99.0484 104.133 99.0364 103.902 99.0527 103.673C99.0527 103.227 99.0527 102.781 99.0527 102.335C99.0527 101.443 99.0527 100.551 99.0527 99.6587C99.0527 99.2127 99.0527 98.7667 99.0527 98.3207C99.0852 98.0657 99.2096 97.8312 99.4025 97.6613C99.5955 97.4914 99.8437 97.3976 100.101 97.3975L137.275 97.6026L143.693 97.6517C143.932 97.637 144.172 97.6535 144.406 97.7007C144.638 97.7765 144.834 97.9353 144.955 98.1467C145.07 98.3432 145.12 98.5712 145.098 98.7979C145.098 99.0075 145.098 99.2127 145.098 99.4178C145.098 100.225 145.098 100.965 145.098 101.648C145.098 102.33 145.098 102.906 145.098 103.432C145.098 103.686 145.098 103.922 145.098 104.141C145.114 104.34 145.082 104.541 145.004 104.725C144.946 104.848 144.862 104.957 144.759 105.045C144.655 105.133 144.533 105.197 144.402 105.234C144.305 105.242 144.206 105.233 144.112 105.207Z" fill="#E0E0E0"/>
<path d="M110.611 112.319L99.1396 112.267L99.1301 114.372L110.601 114.424L110.611 112.319Z" fill="#122750"/>
<path opacity="0.1" d="M110.611 112.319L99.1396 112.267L99.1301 114.372L110.601 114.424L110.611 112.319Z" fill="black"/>
<path d="M144.023 125.237C144.113 125.226 144.202 125.21 144.29 125.188C144.414 125.148 144.529 125.083 144.626 124.996C144.722 124.909 144.8 124.803 144.852 124.684C144.922 124.504 144.95 124.31 144.933 124.117C144.933 123.899 144.933 123.671 144.933 123.408C144.933 122.895 144.933 122.302 144.933 121.624V118.792C144.954 118.587 144.909 118.381 144.803 118.203C144.691 118.025 144.518 117.892 144.317 117.829C144.095 117.788 143.869 117.774 143.644 117.789H137.226L100.052 117.65C99.8518 117.651 99.6588 117.724 99.5087 117.856C99.3585 117.988 99.2615 118.17 99.2355 118.368C99.2355 118.814 99.2355 119.26 99.2355 119.706C99.2355 120.598 99.2355 121.49 99.2355 122.382C99.2355 122.828 99.2355 123.274 99.2355 123.72C99.2189 123.927 99.2279 124.136 99.2623 124.34C99.3157 124.522 99.4308 124.68 99.5879 124.786C99.7516 124.893 99.9459 124.943 100.141 124.929H102.081L111.951 124.983L128.663 125.085L139.929 125.174L142.993 125.21H143.791C143.969 125.21 144.059 125.21 144.059 125.21C144.059 125.21 143.969 125.21 143.791 125.21H142.993H139.929H128.663L111.951 125.161L102.081 125.121H100.141C99.8995 125.137 99.6595 125.073 99.4585 124.938C99.2556 124.797 99.1075 124.591 99.0393 124.354C98.9993 124.127 98.9873 123.896 99.0036 123.667C99.0036 123.221 99.0036 122.775 99.0036 122.329C99.0036 121.437 99.0036 120.545 99.0036 119.653C99.0036 119.207 99.0036 118.761 99.0036 118.293C99.0352 118.038 99.1586 117.804 99.3508 117.634C99.543 117.464 99.7907 117.37 100.047 117.369L137.221 117.575L143.639 117.624C143.878 117.609 144.118 117.625 144.353 117.673C144.585 117.748 144.78 117.907 144.901 118.119C145.017 118.315 145.067 118.543 145.044 118.77C145.044 118.979 145.044 119.189 145.044 119.39C145.044 120.197 145.044 120.937 145.044 121.62C145.044 122.302 145.044 122.877 145.044 123.404C145.044 123.658 145.044 123.894 145.044 124.113C145.061 124.312 145.029 124.513 144.951 124.697C144.893 124.82 144.809 124.929 144.705 125.017C144.601 125.105 144.479 125.169 144.348 125.206C144.244 125.241 144.132 125.252 144.023 125.237Z" fill="#E0E0E0"/>
<path d="M123.282 100.42L102.302 100.325L102.293 102.292L123.273 102.387L123.282 100.42Z" fill="#122750"/>
<path opacity="0.2" d="M123.282 100.42L102.302 100.325L102.293 102.292L123.273 102.387L123.282 100.42Z" fill="white"/>
<path d="M104.2 121.597C104.186 121.777 104.121 121.948 104.011 122.091C103.901 122.233 103.752 122.34 103.582 122.399C103.412 122.457 103.228 122.465 103.054 122.42C102.88 122.375 102.723 122.28 102.602 122.147C102.481 122.013 102.402 121.847 102.375 121.67C102.348 121.492 102.373 121.31 102.448 121.146C102.524 120.983 102.645 120.845 102.798 120.75C102.95 120.655 103.128 120.607 103.308 120.612C103.556 120.625 103.789 120.737 103.956 120.921C104.123 121.106 104.211 121.349 104.2 121.597Z" fill="#122750"/>
<path d="M107.041 121.611C107.049 121.736 107.032 121.863 106.99 121.981C106.948 122.1 106.882 122.209 106.796 122.301C106.71 122.393 106.606 122.467 106.49 122.517C106.375 122.567 106.25 122.593 106.124 122.593C105.998 122.593 105.873 122.567 105.758 122.517C105.642 122.467 105.538 122.393 105.452 122.301C105.366 122.209 105.3 122.1 105.258 121.981C105.216 121.863 105.199 121.736 105.208 121.611C105.199 121.485 105.216 121.359 105.258 121.24C105.3 121.121 105.366 121.012 105.452 120.92C105.538 120.828 105.642 120.754 105.758 120.704C105.873 120.654 105.998 120.628 106.124 120.628C106.25 120.628 106.375 120.654 106.49 120.704C106.606 120.754 106.71 120.828 106.796 120.92C106.882 121.012 106.948 121.121 106.99 121.24C107.032 121.359 107.049 121.485 107.041 121.611Z" fill="#122750"/>
<path d="M109.886 121.624C109.873 121.804 109.807 121.975 109.698 122.118C109.588 122.26 109.439 122.367 109.269 122.426C109.098 122.484 108.915 122.492 108.741 122.447C108.566 122.402 108.409 122.307 108.289 122.173C108.168 122.04 108.089 121.874 108.062 121.696C108.034 121.519 108.06 121.337 108.135 121.173C108.21 121.01 108.332 120.872 108.484 120.777C108.637 120.682 108.814 120.634 108.994 120.639C109.242 120.653 109.474 120.765 109.641 120.949C109.808 121.134 109.896 121.376 109.886 121.624Z" fill="#122750"/>
<path d="M112.727 121.638C112.714 121.817 112.648 121.989 112.539 122.131C112.429 122.274 112.28 122.381 112.11 122.439C111.939 122.498 111.756 122.505 111.582 122.46C111.408 122.415 111.25 122.32 111.13 122.187C111.009 122.053 110.93 121.888 110.903 121.71C110.875 121.532 110.901 121.35 110.976 121.187C111.051 121.023 111.173 120.885 111.325 120.79C111.478 120.695 111.655 120.647 111.835 120.652C112.083 120.667 112.316 120.778 112.482 120.963C112.649 121.147 112.737 121.389 112.727 121.638Z" fill="#122750"/>
<path d="M115.568 121.646C115.556 121.826 115.491 121.998 115.382 122.141C115.272 122.284 115.123 122.392 114.953 122.451C114.783 122.51 114.599 122.518 114.425 122.474C114.25 122.43 114.093 122.335 113.972 122.202C113.85 122.068 113.771 121.902 113.744 121.724C113.716 121.546 113.741 121.364 113.816 121.201C113.891 121.037 114.013 120.899 114.166 120.804C114.319 120.708 114.496 120.66 114.676 120.665C114.923 120.68 115.155 120.791 115.322 120.974C115.488 121.158 115.577 121.399 115.568 121.646Z" fill="#122750"/>
<path d="M118.414 121.66C118.401 121.839 118.337 122.01 118.229 122.153C118.121 122.295 117.973 122.403 117.804 122.463C117.635 122.523 117.453 122.533 117.279 122.49C117.105 122.447 116.947 122.355 116.825 122.224C116.703 122.093 116.621 121.929 116.591 121.752C116.561 121.576 116.583 121.394 116.655 121.23C116.727 121.066 116.845 120.926 116.995 120.828C117.145 120.73 117.32 120.678 117.499 120.679C117.75 120.688 117.988 120.797 118.159 120.98C118.33 121.164 118.422 121.409 118.414 121.66Z" fill="#122750"/>
<path d="M121.254 121.673C121.263 121.799 121.246 121.925 121.204 122.044C121.162 122.163 121.096 122.272 121.01 122.364C120.924 122.456 120.82 122.529 120.704 122.58C120.589 122.63 120.464 122.656 120.338 122.656C120.212 122.656 120.087 122.63 119.972 122.58C119.856 122.529 119.752 122.456 119.666 122.364C119.58 122.272 119.514 122.163 119.472 122.044C119.43 121.925 119.413 121.799 119.421 121.673C119.413 121.547 119.43 121.421 119.472 121.302C119.514 121.184 119.58 121.075 119.666 120.983C119.752 120.89 119.856 120.817 119.972 120.767C120.087 120.716 120.212 120.69 120.338 120.69C120.464 120.69 120.589 120.716 120.704 120.767C120.82 120.817 120.924 120.89 121.01 120.983C121.096 121.075 121.162 121.184 121.204 121.302C121.246 121.421 121.263 121.547 121.254 121.673Z" fill="#122750"/>
<path d="M124.096 121.687C124.083 121.865 124.019 122.037 123.911 122.179C123.803 122.322 123.655 122.43 123.486 122.49C123.317 122.55 123.135 122.559 122.961 122.517C122.787 122.474 122.629 122.381 122.507 122.25C122.385 122.119 122.304 121.955 122.273 121.779C122.243 121.602 122.265 121.421 122.337 121.256C122.409 121.092 122.527 120.953 122.677 120.855C122.827 120.757 123.002 120.705 123.181 120.705C123.433 120.715 123.67 120.823 123.841 121.007C124.013 121.191 124.104 121.435 124.096 121.687Z" fill="#122750"/>
<path d="M126.937 121.7C126.924 121.88 126.86 122.052 126.75 122.195C126.641 122.338 126.492 122.446 126.322 122.505C126.152 122.564 125.968 122.572 125.794 122.528C125.619 122.483 125.461 122.389 125.34 122.255C125.219 122.122 125.14 121.956 125.112 121.778C125.085 121.6 125.11 121.418 125.185 121.254C125.26 121.091 125.381 120.953 125.534 120.857C125.687 120.762 125.865 120.714 126.045 120.719C126.292 120.734 126.524 120.845 126.69 121.028C126.857 121.211 126.945 121.452 126.937 121.7Z" fill="#122750"/>
<g opacity="0.2">
<path d="M104.2 121.597C104.186 121.777 104.121 121.948 104.011 122.091C103.901 122.233 103.752 122.34 103.582 122.399C103.412 122.457 103.228 122.465 103.054 122.42C102.88 122.375 102.723 122.28 102.602 122.147C102.481 122.013 102.402 121.847 102.375 121.67C102.348 121.492 102.373 121.31 102.448 121.146C102.524 120.983 102.645 120.845 102.798 120.75C102.95 120.655 103.128 120.607 103.308 120.612C103.556 120.625 103.789 120.737 103.956 120.921C104.123 121.106 104.211 121.349 104.2 121.597Z" fill="white"/>
<path d="M107.041 121.611C107.049 121.736 107.032 121.863 106.99 121.981C106.948 122.1 106.882 122.209 106.796 122.301C106.71 122.393 106.606 122.467 106.49 122.517C106.375 122.567 106.25 122.593 106.124 122.593C105.998 122.593 105.873 122.567 105.758 122.517C105.642 122.467 105.538 122.393 105.452 122.301C105.366 122.209 105.3 122.1 105.258 121.981C105.216 121.863 105.199 121.736 105.208 121.611C105.199 121.485 105.216 121.359 105.258 121.24C105.3 121.121 105.366 121.012 105.452 120.92C105.538 120.828 105.642 120.754 105.758 120.704C105.873 120.654 105.998 120.628 106.124 120.628C106.25 120.628 106.375 120.654 106.49 120.704C106.606 120.754 106.71 120.828 106.796 120.92C106.882 121.012 106.948 121.121 106.99 121.24C107.032 121.359 107.049 121.485 107.041 121.611Z" fill="white"/>
<path d="M109.886 121.624C109.873 121.804 109.807 121.975 109.698 122.118C109.588 122.26 109.439 122.367 109.269 122.426C109.098 122.484 108.915 122.492 108.741 122.447C108.566 122.402 108.409 122.307 108.289 122.173C108.168 122.04 108.089 121.874 108.062 121.696C108.034 121.519 108.06 121.337 108.135 121.173C108.21 121.01 108.332 120.872 108.484 120.777C108.637 120.682 108.814 120.634 108.994 120.639C109.242 120.653 109.474 120.765 109.641 120.949C109.808 121.134 109.896 121.376 109.886 121.624Z" fill="white"/>
<path d="M112.727 121.637C112.714 121.817 112.648 121.988 112.539 122.131C112.429 122.273 112.28 122.38 112.11 122.439C111.939 122.497 111.756 122.505 111.582 122.46C111.408 122.415 111.25 122.32 111.13 122.187C111.009 122.053 110.93 121.887 110.903 121.71C110.875 121.532 110.901 121.35 110.976 121.186C111.051 121.023 111.173 120.885 111.325 120.79C111.478 120.695 111.655 120.647 111.835 120.652C112.083 120.667 112.316 120.778 112.482 120.963C112.649 121.147 112.737 121.389 112.727 121.637Z" fill="white"/>
<path d="M115.568 121.646C115.556 121.826 115.491 121.998 115.382 122.141C115.272 122.284 115.123 122.392 114.953 122.451C114.783 122.51 114.599 122.518 114.425 122.474C114.25 122.43 114.093 122.335 113.972 122.202C113.85 122.068 113.771 121.902 113.744 121.724C113.716 121.546 113.741 121.364 113.816 121.201C113.891 121.037 114.013 120.899 114.166 120.804C114.319 120.708 114.496 120.66 114.676 120.665C114.923 120.68 115.155 120.791 115.322 120.974C115.488 121.158 115.577 121.399 115.568 121.646Z" fill="white"/>
<path d="M118.414 121.66C118.401 121.838 118.337 122.01 118.229 122.152C118.121 122.295 117.973 122.403 117.804 122.463C117.635 122.523 117.453 122.532 117.279 122.49C117.105 122.447 116.947 122.355 116.825 122.224C116.703 122.093 116.621 121.929 116.591 121.752C116.561 121.575 116.583 121.394 116.655 121.23C116.727 121.065 116.845 120.926 116.995 120.828C117.145 120.73 117.32 120.678 117.499 120.678C117.75 120.688 117.988 120.796 118.159 120.98C118.33 121.164 118.422 121.408 118.414 121.66Z" fill="white"/>
<path d="M121.255 121.673C121.263 121.799 121.246 121.925 121.204 122.044C121.162 122.163 121.096 122.272 121.01 122.364C120.924 122.456 120.82 122.529 120.705 122.58C120.589 122.63 120.464 122.656 120.338 122.656C120.212 122.656 120.087 122.63 119.972 122.58C119.856 122.529 119.752 122.456 119.666 122.364C119.58 122.272 119.514 122.163 119.472 122.044C119.43 121.925 119.413 121.799 119.422 121.673C119.413 121.547 119.43 121.421 119.472 121.302C119.514 121.184 119.58 121.075 119.666 120.983C119.752 120.89 119.856 120.817 119.972 120.767C120.087 120.716 120.212 120.69 120.338 120.69C120.464 120.69 120.589 120.716 120.705 120.767C120.82 120.817 120.924 120.89 121.01 120.983C121.096 121.075 121.162 121.184 121.204 121.302C121.246 121.421 121.263 121.547 121.255 121.673Z" fill="white"/>
<path d="M124.096 121.687C124.083 121.865 124.019 122.037 123.911 122.179C123.803 122.322 123.655 122.43 123.486 122.49C123.317 122.55 123.135 122.559 122.961 122.517C122.787 122.474 122.629 122.381 122.507 122.25C122.385 122.119 122.304 121.955 122.273 121.779C122.243 121.602 122.265 121.421 122.337 121.256C122.409 121.092 122.527 120.953 122.677 120.855C122.827 120.757 123.002 120.705 123.181 120.705C123.433 120.715 123.67 120.823 123.841 121.007C124.013 121.191 124.104 121.435 124.096 121.687Z" fill="white"/>
<path d="M126.937 121.7C126.924 121.879 126.86 122.052 126.75 122.195C126.641 122.338 126.492 122.446 126.322 122.505C126.152 122.564 125.968 122.572 125.794 122.527C125.619 122.483 125.461 122.388 125.34 122.255C125.219 122.122 125.14 121.956 125.112 121.778C125.085 121.6 125.11 121.418 125.185 121.254C125.26 121.09 125.381 120.952 125.534 120.857C125.687 120.762 125.865 120.714 126.045 120.719C126.292 120.734 126.524 120.845 126.69 121.028C126.857 121.211 126.945 121.452 126.937 121.7Z" fill="white"/>
</g>
<path d="M122.9 57.3155C123.21 57.1791 123.473 56.9545 123.656 56.6698C123.839 56.3851 123.935 56.0529 123.93 55.7144C123.942 55.4943 123.909 55.2742 123.832 55.0675C123.756 54.8607 123.639 54.6717 123.487 54.5118C123.335 54.352 123.153 54.2247 122.95 54.1377C122.748 54.0507 122.53 54.0059 122.309 54.0059C122.089 54.0059 121.871 54.0507 121.668 54.1377C121.466 54.2247 121.283 54.352 121.132 54.5118C120.98 54.6717 120.862 54.8607 120.786 55.0675C120.71 55.2742 120.677 55.4943 120.688 55.7144C120.681 56.0563 120.776 56.3925 120.96 56.6807C121.144 56.9688 121.41 57.1959 121.723 57.3333C119.225 57.708 119.337 60.4197 119.337 60.4197L125.242 60.4464C125.242 60.4464 125.38 57.6857 122.9 57.3155Z" fill="#122750"/>
<path opacity="0.1" d="M122.9 57.3155C123.21 57.1791 123.473 56.9545 123.656 56.6698C123.839 56.3851 123.935 56.0529 123.93 55.7144C123.942 55.4943 123.909 55.2742 123.832 55.0675C123.756 54.8607 123.639 54.6717 123.487 54.5118C123.335 54.352 123.153 54.2247 122.95 54.1377C122.748 54.0507 122.53 54.0059 122.309 54.0059C122.089 54.0059 121.871 54.0507 121.668 54.1377C121.466 54.2247 121.283 54.352 121.132 54.5118C120.98 54.6717 120.862 54.8607 120.786 55.0675C120.71 55.2742 120.677 55.4943 120.688 55.7144C120.681 56.0563 120.776 56.3925 120.96 56.6807C121.144 56.9688 121.41 57.1959 121.723 57.3333C119.225 57.708 119.337 60.4197 119.337 60.4197L125.242 60.4464C125.242 60.4464 125.38 57.6857 122.9 57.3155Z" fill="black"/>
<path d="M132.496 62.1954L111.449 62.0999L111.438 64.6153L132.484 64.7108L132.496 62.1954Z" fill="#122750"/>
<path opacity="0.2" d="M132.496 62.1954L111.449 62.0999L111.438 64.6153L132.484 64.7108L132.496 62.1954Z" fill="white"/>
<path d="M55.1216 75.2312H54.912L54.3054 75.2758C53.9772 75.2956 53.6507 75.3388 53.3287 75.4052C53.1201 75.4345 52.9131 75.4747 52.7087 75.5256L52.0174 75.7174C50.8408 76.0784 49.7307 76.6282 48.7304 77.3453C47.4089 78.3045 46.3053 79.5327 45.4925 80.949C45.0147 81.7654 44.6344 82.6351 44.3596 83.5402C44.0708 84.524 43.9045 85.5396 43.8646 86.5641C43.838 87.1023 43.8469 87.6416 43.8913 88.1786C43.8913 88.4507 43.9671 88.7227 44.0028 88.9993C44.0328 89.278 44.085 89.5539 44.1589 89.8244C44.56 91.614 45.3737 93.2852 46.5352 94.7046C47.6968 96.124 49.1739 97.2523 50.8489 97.9995C52.0612 98.5226 53.3605 98.8146 54.6801 98.8603C56.0429 98.9353 57.4071 98.7397 58.6941 98.285L59.0865 98.1378H59.1401L59.1847 98.1646L64.8087 101.019L64.6437 101.162C64.0416 99.2974 63.4618 97.4911 62.8998 95.7562V95.6893L62.9489 95.6402C64.3132 94.266 65.326 92.5831 65.9014 90.7342C66.4226 89.0438 66.5747 87.2613 66.3474 85.5071C66.1453 83.9481 65.644 82.4428 64.8712 81.0738C64.205 79.8979 63.3456 78.8425 62.329 77.9518C61.4902 77.2469 60.5619 76.656 59.5682 76.1946C58.8163 75.8703 58.0332 75.6237 57.2312 75.4587L56.3392 75.3115L55.6925 75.2625L55.3 75.2357H55.1662C55.2107 75.2308 55.2555 75.2308 55.3 75.2357H55.6969L56.3436 75.2625L57.2356 75.3918C58.0477 75.5447 58.8414 75.7824 59.6039 76.1009C60.6147 76.5569 61.5597 77.1464 62.4137 77.8537C63.449 78.7404 64.3266 79.796 65.0094 80.9757C65.8042 82.3594 66.3209 83.8851 66.5303 85.4669C66.7764 87.2482 66.6349 89.0617 66.1155 90.7833C65.5363 92.6707 64.5079 94.3893 63.1184 95.7918L63.1451 95.6759C63.7071 97.4108 64.2914 99.2171 64.8979 101.077L64.9827 101.349L64.7284 101.22L59.1044 98.3697H59.2025L58.8011 98.5169C57.4894 98.9785 56.0999 99.1785 54.7113 99.1056C53.3633 99.0543 52.0368 98.7518 50.7999 98.2136C48.4404 97.2031 46.4773 95.4469 45.2115 93.214C44.629 92.1827 44.2035 91.0703 43.9493 89.9136C43.8797 89.6361 43.8275 89.3546 43.7932 89.0706C43.7575 88.7896 43.6995 88.5131 43.6862 88.2366C43.5654 86.6497 43.7332 85.054 44.1812 83.5268C44.4629 82.6092 44.8537 81.7288 45.3453 80.9044C46.1776 79.4752 47.3041 78.2392 48.6501 77.2784C49.6669 76.5594 50.7956 76.0139 51.9907 75.6639L52.6909 75.4855C52.897 75.4377 53.1054 75.4004 53.3153 75.374C53.6407 75.3137 53.9702 75.2779 54.301 75.2669L54.912 75.2446C54.9814 75.2353 55.0515 75.2308 55.1216 75.2312Z" fill="#122750"/>
<path d="M57.6639 85.6319H56.8388L55.0548 83.1254V81.4796C55.0548 81.4796 53.7792 81.3994 53.9309 83.5535C54.0825 85.7077 53.9309 85.1591 53.9309 85.1591C53.9309 85.1591 51.2237 85.1591 51.0007 85.4044C50.7777 85.6497 50.7643 88.2633 50.7331 89.7217C50.716 90.0733 50.8169 90.4205 51.0197 90.7082C51.2225 90.9958 51.5156 91.2075 51.8525 91.3095C51.947 91.3356 52.0444 91.3491 52.1424 91.3496C52.8203 91.3496 56.2679 90.801 56.2679 90.801H57.6907L57.6639 85.6319Z" fill="#122750"/>
<path d="M60.023 85.1904L59.5146 90.8279H58.1052V85.3064L60.023 85.1904Z" fill="#122750"/>
<path d="M76.8329 199.96V196.146L69.9957 196.097L69.9377 201.864L70.3614 201.895C72.248 202.016 79.9594 202.194 81.226 201.802C82.6354 201.364 76.8329 199.96 76.8329 199.96Z" fill="#122750"/>
<path d="M81.3865 201.445C81.3865 201.507 78.8264 201.561 75.6732 201.561C72.52 201.561 69.96 201.507 69.96 201.445C69.96 201.382 72.52 201.329 75.6732 201.329C78.8264 201.329 81.3865 201.382 81.3865 201.445Z" fill="#263238"/>
<path d="M76.9532 200.74C76.8953 200.709 76.9532 200.508 77.0915 200.294C77.2298 200.08 77.4171 199.991 77.4617 200.035C77.5063 200.08 77.4126 200.249 77.2788 200.432C77.145 200.615 77.0112 200.771 76.9532 200.74Z" fill="#263238"/>
<path d="M77.3905 200.99C77.3281 200.99 77.3593 200.74 77.4931 200.504C77.6269 200.267 77.8053 200.125 77.8544 200.16C77.9034 200.196 77.8231 200.397 77.6983 200.606C77.5734 200.816 77.4485 201.012 77.3905 200.99Z" fill="#263238"/>
<path d="M72.0206 201.427C71.9938 201.427 71.8913 201.347 71.7441 201.177C71.5644 200.959 71.3643 200.759 71.1464 200.58C70.9322 200.408 70.677 200.296 70.4061 200.254C70.1965 200.227 70.0627 200.254 70.0493 200.227C70.0359 200.2 70.1652 200.107 70.4105 200.089C70.7343 200.082 71.0501 200.189 71.3025 200.392C71.5391 200.585 71.7386 200.819 71.8913 201.084C71.9938 201.28 72.0474 201.409 72.0206 201.427Z" fill="#263238"/>
<path d="M76.9757 200.022C77.0069 200.076 76.8909 200.209 76.6947 200.281C76.4985 200.352 76.3245 200.325 76.3156 200.281C76.3067 200.236 76.4449 200.143 76.6144 200.08C76.7839 200.018 76.94 199.969 76.9757 200.022Z" fill="#263238"/>
<path d="M76.8686 199.652C76.8686 199.719 76.6902 199.772 76.4583 199.777C76.2263 199.781 76.0435 199.728 76.0479 199.665C76.0524 199.603 76.2353 199.545 76.4583 199.54C76.6813 199.536 76.8596 199.589 76.8686 199.652Z" fill="#263238"/>
<path d="M93.6693 199.96V196.146L86.8322 196.097L86.7742 201.806L87.1979 201.837C89.0844 201.958 96.8002 202.194 98.0624 201.802C99.4718 201.364 93.6693 199.96 93.6693 199.96Z" fill="#122750"/>
<path d="M98.2231 201.454C98.2231 201.516 95.6675 201.57 92.5098 201.57C89.3521 201.57 86.801 201.516 86.801 201.454C86.801 201.391 89.3566 201.338 92.5098 201.338C95.663 201.338 98.2231 201.391 98.2231 201.454Z" fill="#263238"/>
<path d="M93.79 200.74C93.7364 200.709 93.79 200.508 93.9282 200.294C94.0665 200.08 94.2538 199.991 94.2984 200.035C94.343 200.08 94.2493 200.249 94.1155 200.432C93.9817 200.615 93.8479 200.771 93.79 200.74Z" fill="#263238"/>
<path d="M94.227 200.99C94.169 200.99 94.1958 200.74 94.334 200.504C94.4723 200.267 94.6462 200.125 94.6953 200.16C94.7444 200.196 94.6596 200.397 94.5347 200.606C94.4099 200.816 94.2894 201.012 94.227 200.99Z" fill="#263238"/>
<path d="M88.857 201.427C88.8303 201.427 88.7322 201.347 88.5805 201.177C88.4008 200.959 88.2007 200.759 87.9829 200.58C87.7686 200.408 87.5134 200.296 87.2425 200.254C87.0374 200.227 86.8991 200.254 86.8857 200.227C86.8723 200.2 87.0017 200.107 87.247 200.089C87.5707 200.082 87.8865 200.189 88.139 200.392C88.3767 200.584 88.5764 200.818 88.7277 201.084C88.8303 201.28 88.8838 201.409 88.857 201.427Z" fill="#263238"/>
<path d="M93.8121 200.022C93.8433 200.076 93.7274 200.209 93.5311 200.281C93.3349 200.352 93.1609 200.325 93.152 200.281C93.1431 200.236 93.2814 200.143 93.4508 200.08C93.6203 200.018 93.7764 199.969 93.8121 200.022Z" fill="#263238"/>
<path d="M93.714 199.652C93.714 199.719 93.5356 199.772 93.3036 199.777C93.0717 199.781 92.8933 199.728 92.8978 199.665C92.9022 199.603 93.0806 199.545 93.3036 199.54C93.5266 199.536 93.714 199.589 93.714 199.652Z" fill="#263238"/>
<path d="M118.86 86.7201C118.681 86.5372 118.24 86.6264 118.24 86.6264C118.284 86.3696 118.284 86.1072 118.24 85.8504C118.159 85.6006 117.597 85.6497 117.597 85.6497C117.571 85.4394 117.571 85.2267 117.597 85.0164C117.602 84.9697 117.592 84.9229 117.569 84.8822C117.545 84.8415 117.51 84.8089 117.468 84.7889C117.202 84.6805 116.917 84.6288 116.63 84.6373C116.286 84.392 117.678 82.4429 118.195 81.8185C118.712 81.1941 118.619 80.708 118.159 80.708C117.843 80.708 116.219 82.5812 115.72 83.2101C115.22 83.8389 113.896 85.5872 113.851 84.1913C113.806 82.7953 113.244 81.7427 112.892 81.5643C112.54 81.3859 112.165 81.8052 112.357 82.1932C112.525 82.634 112.63 83.0965 112.669 83.5669C112.717 83.9415 112.701 84.3218 112.62 84.6908C112.472 85.3774 112.271 86.0514 112.018 86.7067H111.982C111.982 86.7067 102.25 96.0415 101.546 96.706C100.917 97.3037 88.2684 95.9969 85.7306 95.7293C84.8683 95.6031 83.9975 95.5435 83.126 95.5509C82.0244 95.5999 81.8281 95.756 80.731 95.7694C77.9602 95.8002 75.1958 96.0432 72.4621 96.4964C71.2243 96.7069 70.0681 97.2532 69.1196 98.0759C68.1711 98.8986 67.4667 99.9659 67.0834 101.162C64.5278 109.145 58.7387 128.042 57.7174 138.657C56.9456 140.056 56.2488 141.496 55.6301 142.97C54.912 144.923 55.086 144.99 55.3268 145.035C55.978 145.155 56.7183 141.649 56.9948 142.497C57.2714 143.344 55.5899 146.676 56.2723 146.774C57.1643 146.899 57.8735 143.206 57.9582 142.912C58.0429 142.617 58.4845 142.711 58.4042 142.987C58.2749 143.38 57.0216 147.541 57.8958 147.675C58.3774 147.746 58.431 146.868 58.431 146.868C58.431 146.868 59.323 142.885 59.7288 142.965C60.1347 143.045 59.7021 145.396 59.4969 146.181C59.2917 146.966 59.5772 147.363 59.9964 147.171C60.2819 147.037 60.9642 144.651 61.1516 143.875C61.3389 143.099 61.8072 140.949 62.436 142.194C63.0649 143.438 64.0193 144.16 64.4118 144.178C64.5003 144.168 64.5836 144.132 64.6512 144.074C64.7187 144.016 64.7674 143.939 64.7909 143.853C64.8144 143.767 64.8117 143.676 64.7831 143.592C64.7545 143.508 64.7013 143.434 64.6304 143.38C64.2928 143.05 64.003 142.675 63.7696 142.265C63.5615 141.946 63.4106 141.592 63.3236 141.221C63.1439 140.481 63.0393 139.725 63.0114 138.965L62.94 138.519C63.9391 133.572 66.8158 119.055 70.968 109.783L72.6717 113.288L73.4121 115.884L68.8718 127.092L88.2371 126.838L85.3471 115.715L88.8571 104.119C92.6525 104.203 102.398 104.346 104.021 103.61C106.064 102.718 116.63 89.3738 116.63 89.3738C117.318 88.8386 117.978 88.2669 118.605 87.6611C118.605 87.6611 119.248 87.1215 118.86 86.7201Z" fill="#FFBE9D"/>
<path d="M68.0199 118.81C68.5819 116.892 71.4675 107.41 71.4675 107.41C71.4675 107.41 72.8858 115.139 72.5111 116.072C72.1665 116.87 71.7594 117.639 71.2936 118.373C68.0199 123.355 68.4481 125.848 68.4481 125.848L88.2282 125.246C88.2728 122.481 86.6359 116.049 86.297 115.023C85.958 113.998 87.0864 110.639 87.0864 110.639C87.0864 110.639 89.3164 108.369 89.2361 107.201C89.1938 106.151 89.064 105.107 88.8481 104.079L100.89 104.525L100.511 96.3628L83.2151 94.6323C82.613 96.3316 77.1674 95.4976 77.1674 95.4976C71.2891 95.6938 70.9234 96.7731 68.4793 98.6731C66.0352 100.573 61.99 116.879 61.99 116.879L68.0199 118.81Z" fill="#122750"/>
<path d="M79.7141 116.879C79.3713 116.94 79.0222 116.958 78.6749 116.932C78.0282 116.932 77.1407 116.888 76.1639 116.79C75.1872 116.691 74.3041 116.553 73.6753 116.428C73.3285 116.384 72.9885 116.297 72.6628 116.17C73.0115 116.17 73.3595 116.203 73.702 116.268C74.3353 116.348 75.214 116.46 76.1862 116.558C77.1585 116.656 78.0416 116.723 78.6794 116.767C79.027 116.772 79.3735 116.809 79.7141 116.879Z" fill="#263238"/>
<path d="M81.0698 115.197C80.7269 115.365 80.3643 115.49 79.9905 115.567C78.2111 116.035 76.3753 116.253 74.5359 116.214C74.1553 116.227 73.7746 116.191 73.4031 116.107C73.7787 116.06 74.1574 116.04 74.5359 116.049C75.2361 116.027 76.1995 115.978 77.261 115.853C78.3225 115.728 79.268 115.55 79.937 115.407C80.3086 115.308 80.6873 115.238 81.0698 115.197Z" fill="#263238"/>
<path d="M87.7242 107.696C87.7152 108.036 87.6688 108.374 87.5859 108.704C87.47 109.323 87.2916 110.171 87.0641 111.099C86.8366 112.026 86.6181 112.883 86.4219 113.462C86.3429 113.794 86.2262 114.116 86.074 114.421C86.0988 114.082 86.1617 113.747 86.2613 113.422C86.4308 112.726 86.6226 111.924 86.8366 111.045C87.0507 110.166 87.2559 109.364 87.4254 108.668C87.4857 108.333 87.5861 108.007 87.7242 107.696Z" fill="#263238"/>
<path d="M68.2297 117.673C67.1979 117.513 66.1796 117.276 65.1835 116.963C64.1657 116.725 63.1669 116.412 62.1953 116.027C63.2266 116.189 64.2447 116.426 65.2415 116.736C66.2596 116.973 67.2584 117.286 68.2297 117.673Z" fill="#263238"/>
<path d="M89.0623 103.98C88.8941 104.009 88.7221 104.009 88.5539 103.98C88.088 103.933 87.6306 103.823 87.1936 103.655C86.464 103.381 85.7998 102.957 85.2437 102.411C84.6876 101.865 84.2519 101.208 83.9645 100.484C83.6469 99.6867 83.5113 98.8288 83.5676 97.9727C83.5875 97.2665 83.7986 96.5791 84.1786 95.9835C84.4458 95.5823 84.845 95.2873 85.307 95.1495C85.4304 95.1154 85.558 95.0989 85.6861 95.1004C85.7753 95.1004 85.8199 95.1004 85.8199 95.1004C85.8199 95.1004 85.6326 95.1004 85.3337 95.2209C84.9099 95.3774 84.5505 95.6709 84.3124 96.0549C83.7058 97.0093 83.5364 98.7532 84.1831 100.381C84.4841 101.149 84.9553 101.838 85.5612 102.397C86.0577 102.854 86.6296 103.223 87.2515 103.485C87.8352 103.716 88.4424 103.882 89.0623 103.98Z" fill="#263238"/>
<path d="M99.4585 104.364C99.3469 102.996 99.3112 101.624 99.3515 100.252C99.3165 98.8815 99.3582 97.5101 99.4763 96.1443C99.588 97.5105 99.6237 98.8818 99.5834 100.252C99.6209 101.624 99.5792 102.997 99.4585 104.364Z" fill="#263238"/>
<path d="M83.0993 95.1317C83.1484 94.1371 83.251 93.0132 83.251 93.0132C83.251 93.0132 85.7129 92.7411 85.8601 90.1989C86.0072 87.6567 85.8601 81.7918 85.8601 81.7918L81.4001 79.5083L76.4495 83.4019L77.2121 96.1129L81.7524 96.4028C82.0994 96.4124 82.4361 96.284 82.6886 96.0457C82.9411 95.8074 83.0888 95.4787 83.0993 95.1317Z" fill="#FFBE9D"/>
<path d="M83.5408 88.1875C83.5408 88.1875 83.5408 88.2366 83.5007 88.2946C83.4675 88.3366 83.4246 88.37 83.3756 88.3917C83.3267 88.4135 83.2732 88.423 83.2197 88.4195C82.9343 88.4195 82.6578 88.0894 82.5596 87.7059C82.513 87.5199 82.513 87.3254 82.5596 87.1394C82.5688 87.0583 82.5981 86.9807 82.6448 86.9137C82.6915 86.8467 82.7542 86.7925 82.8272 86.7559C82.8872 86.7311 82.9546 86.7311 83.0146 86.7559C83.059 86.778 83.0951 86.814 83.1171 86.8585C83.1484 86.9343 83.1171 86.9833 83.1171 86.9789C83.1171 86.9744 83.1171 86.9343 83.0725 86.8897C83.0492 86.8577 83.0149 86.8355 82.9763 86.8273C82.9376 86.8191 82.8972 86.8254 82.8629 86.8451C82.8082 86.8782 82.7627 86.9245 82.7308 86.9799C82.6988 87.0353 82.6814 87.0978 82.6801 87.1617C82.6425 87.3276 82.6425 87.4998 82.6801 87.6657C82.7693 88.0136 83.0101 88.2946 83.2242 88.3213C83.2661 88.327 83.3087 88.324 83.3493 88.3125C83.39 88.301 83.4279 88.2812 83.4606 88.2544C83.5141 88.2188 83.5319 88.1831 83.5408 88.1875Z" fill="#EB996E"/>
<path d="M87.3898 80.4182C87.0464 79.2497 85.8021 78.6699 84.6692 78.3488C82.9432 77.8582 81.0789 77.6441 79.3931 78.264C77.7072 78.884 75.6823 79.9722 75.6823 81.832C74.6878 81.7517 74.1169 82.6214 73.7244 83.7008C73.4735 84.3583 73.3231 85.05 73.2784 85.7524C73.1535 88.1875 72.4711 91.5504 70.8923 93.3344C70.0003 94.329 68.7649 95.0158 68.2564 96.2557C67.8104 97.3305 68.0423 98.6061 67.6276 99.6943C67.2574 100.653 66.4412 101.336 65.8436 102.17C65.2347 103.116 64.8764 104.201 64.8023 105.324C64.7281 106.447 64.9407 107.57 65.4199 108.588C65.9025 109.579 66.582 110.463 67.4171 111.183C68.2521 111.904 69.2251 112.447 70.2768 112.78C72.3601 113.414 74.5817 113.435 76.6769 112.842C78.2494 112.466 79.7163 111.739 80.9674 110.715C82.2476 109.67 83.1269 108.214 83.4561 106.594C83.7728 104.774 83.2643 102.923 82.8852 101.113C81.6989 95.3904 82.0378 95.0916 83.5364 89.7797C83.5721 89.6861 83.5899 89.588 83.6167 89.4943C83.6434 89.4007 83.6568 89.356 83.6747 89.2847C83.7172 89.0747 83.7396 88.8611 83.7416 88.6469C83.5227 88.7283 83.2851 88.7455 83.0568 88.6965C82.8284 88.6476 82.6188 88.5344 82.4526 88.3704C82.286 88.1955 82.1698 87.9788 82.1164 87.7432C82.063 87.5077 82.0744 87.262 82.1493 87.0324C82.2546 86.7812 82.4114 86.555 82.6096 86.3683C82.8078 86.1816 83.043 86.0386 83.3 85.9486C83.7951 85.7435 84.3258 85.6364 84.8119 85.4089C85.8422 84.9183 86.5558 83.9015 87.0419 82.8355C87.4416 82.0967 87.565 81.2397 87.3898 80.4182Z" fill="#263238"/>
<path d="M83.7192 88.3079C83.8134 88.4471 83.8913 88.5968 83.9511 88.7539C84.0849 89.0348 84.2633 89.4318 84.4596 89.8912L84.4952 89.9759H84.4016L83.9556 90.016C83.6478 90.016 83.3892 90.074 83.0859 90.0696C83.0595 90.0636 83.035 90.0511 83.0147 90.0332C82.9944 90.0152 82.979 89.9925 82.9699 89.967C82.9566 89.9264 82.9566 89.8827 82.9699 89.8421C82.9802 89.782 82.9936 89.7224 83.0101 89.6637L83.0903 89.347C83.1307 89.1358 83.1935 88.9295 83.2777 88.7316C83.2694 88.9469 83.238 89.1607 83.184 89.3693L83.1216 89.686C83.0993 89.793 83.0591 89.9581 83.1216 89.9447C83.3446 89.9447 83.6612 89.8956 83.9556 89.8778L84.4016 89.8376L84.3436 89.9358C84.1518 89.4898 83.9913 89.0705 83.8976 88.7806C83.8154 88.6326 83.7553 88.4733 83.7192 88.3079Z" fill="#122750"/>
<path d="M68.4481 125.848L88.2282 125.246L96.836 158.847L95.2527 197.391H84.794L86.074 159.668L78.4251 136.275L79.6026 198.885L69.0324 199.041L67.9218 140.191C67.8727 138.554 67.3375 134.866 67.5382 133.242L68.4481 125.848Z" fill="#263238"/>
<path d="M81.0566 136.753C80.7328 136.773 80.4078 136.753 80.0888 136.695C79.4911 136.623 78.6749 136.498 77.7785 136.32C76.882 136.142 76.0792 135.936 75.4994 135.771C75.1895 135.703 74.8897 135.595 74.6074 135.45C74.6074 135.383 76.0614 135.731 77.8454 136.092C79.6294 136.454 81.0655 136.686 81.0566 136.753Z" fill="#455A64"/>
<path d="M95.1456 195.277C95.1456 195.339 92.7773 195.393 89.856 195.393C86.9347 195.393 84.562 195.339 84.562 195.277C84.562 195.214 86.9303 195.161 89.856 195.161C92.7818 195.161 95.1456 195.21 95.1456 195.277Z" fill="#455A64"/>
<path d="M79.5089 197.257C79.5089 197.324 77.2076 197.373 74.371 197.373C71.5345 197.373 69.2375 197.324 69.2375 197.257C69.2375 197.19 71.5389 197.141 74.371 197.141C77.2031 197.141 79.5089 197.194 79.5089 197.257Z" fill="#455A64"/>
<path d="M78.1443 197.096C78.0818 197.096 77.8053 183.417 77.5243 166.545C77.2433 149.673 77.0783 135.985 77.1363 135.985C77.1943 135.985 77.4797 149.66 77.7562 166.541C78.0328 183.422 78.2112 197.096 78.1443 197.096Z" fill="#455A64"/>
<path d="M93.7407 195.276C93.7358 195.216 93.7358 195.154 93.7407 195.094V194.558C93.7407 194.077 93.7763 193.385 93.8031 192.507C93.8655 190.723 93.9547 188.132 94.0662 184.956C94.3071 178.569 94.646 169.765 95.0162 160.047C95.0162 159.953 95.0162 159.864 95.0162 159.784V159.815C92.6747 150.449 90.5562 141.948 89.0175 135.798L87.2335 128.524C87.0284 127.672 86.8723 127.007 86.7608 126.543C86.7072 126.325 86.6716 126.155 86.6403 126.026C86.623 125.968 86.6125 125.908 86.6091 125.848C86.6323 125.904 86.6502 125.962 86.6626 126.022C86.6983 126.146 86.7429 126.316 86.8054 126.53C86.9258 126.976 87.0997 127.654 87.3227 128.501C87.7687 130.223 88.3976 132.703 89.1825 135.758C90.7346 141.904 92.8754 150.382 95.2481 159.761V159.793C95.2481 159.873 95.2481 159.967 95.2481 160.056C94.8512 169.774 94.4899 178.574 94.2268 184.96C94.0885 188.14 93.9726 190.714 93.8923 192.507C93.8477 193.399 93.812 194.077 93.7897 194.558C93.7897 194.786 93.763 194.964 93.7585 195.094C93.7592 195.155 93.7532 195.216 93.7407 195.276Z" fill="#455A64"/>
<path d="M90.329 158.999C89.5778 159.246 88.8039 159.418 88.0187 159.512C87.0554 159.677 86.2347 159.793 85.8645 159.811V159.722C85.985 159.757 86.0474 159.78 86.0474 159.797C86.0474 159.815 85.9716 159.797 85.8467 159.797H85.5791L85.8467 159.717C86.1946 159.614 87.0152 159.445 87.9786 159.271C88.7512 159.103 89.5385 159.012 90.329 158.999Z" fill="#455A64"/>
<path d="M90.146 160.279C89.4503 160.311 88.7532 160.279 88.0632 160.185C87.3665 160.171 86.6725 160.095 85.9893 159.958C87.3831 159.844 88.7862 159.952 90.146 160.279Z" fill="#455A64"/>
<path opacity="0.2" d="M68.3633 126.557C68.5975 126.858 68.8926 127.106 69.2292 127.285C69.5658 127.464 69.9364 127.57 70.3168 127.596C71.1134 127.69 71.9192 127.675 72.7118 127.551C77.8185 126.985 83.2285 126.463 88.2281 125.246C81.7567 125.607 74.9195 125.486 68.448 125.848L68.3811 126.401" fill="black"/>
<g opacity="0.2">
<path d="M75.031 135.677L78.6793 149.834L78.4251 136.275L75.031 135.677Z" fill="black"/>
</g>
</svg>
