<svg width="48" height="48" viewBox="0 0 48 48" fill="none" xmlns="http://www.w3.org/2000/svg">
<g clip-path="url(#clip0_251_5034)">
<path d="M39.3502 5.51629C36.8161 3.4076 33.8728 1.84661 30.7057 0.931685C27.5386 0.0167595 24.2163 -0.23227 20.9482 0.200287C14.9023 0.985723 9.38192 4.04263 5.50799 8.7503C1.63407 13.458 -0.303041 19.4635 0.0900002 25.5475C0.483042 31.6315 3.17677 37.3379 7.62422 41.508C12.0717 45.6781 17.9395 47.9993 24.0362 48.0003H38.0002C40.6513 47.9971 43.193 46.9425 45.0677 45.0679C46.9424 43.1932 47.997 40.6515 48.0002 38.0003V22.6183V22.4923C47.7885 19.2232 46.9122 16.0316 45.4249 13.1127C43.9376 10.1938 41.8706 7.609 39.3502 5.51629ZM16.0002 14.0003H24.0002C24.5306 14.0003 25.0393 14.211 25.4144 14.5861C25.7894 14.9611 26.0002 15.4699 26.0002 16.0003C26.0002 16.5307 25.7894 17.0394 25.4144 17.4145C25.0393 17.7896 24.5306 18.0003 24.0002 18.0003H16.0002C15.4697 18.0003 14.961 17.7896 14.5859 17.4145C14.2109 17.0394 14.0002 16.5307 14.0002 16.0003C14.0002 15.4699 14.2109 14.9611 14.5859 14.5861C14.961 14.211 15.4697 14.0003 16.0002 14.0003ZM32.0002 34.0003H16.0002C15.4697 34.0003 14.961 33.7896 14.5859 33.4145C14.2109 33.0394 14.0002 32.5307 14.0002 32.0003C14.0002 31.4699 14.2109 30.9611 14.5859 30.5861C14.961 30.211 15.4697 30.0003 16.0002 30.0003H32.0002C32.5306 30.0003 33.0393 30.211 33.4144 30.5861C33.7894 30.9611 34.0002 31.4699 34.0002 32.0003C34.0002 32.5307 33.7894 33.0394 33.4144 33.4145C33.0393 33.7896 32.5306 34.0003 32.0002 34.0003ZM32.0002 26.0003H16.0002C15.4697 26.0003 14.961 25.7896 14.5859 25.4145C14.2109 25.0394 14.0002 24.5307 14.0002 24.0003C14.0002 23.4699 14.2109 22.9611 14.5859 22.5861C14.961 22.211 15.4697 22.0003 16.0002 22.0003H32.0002C32.5306 22.0003 33.0393 22.211 33.4144 22.5861C33.7894 22.9611 34.0002 23.4699 34.0002 24.0003C34.0002 24.5307 33.7894 25.0394 33.4144 25.4145C33.0393 25.7896 32.5306 26.0003 32.0002 26.0003Z" fill="#122750"/>
</g>
<defs>
<clipPath id="clip0_251_5034">
<rect width="48" height="48" fill="#122750"/>
</clipPath>
</defs>
</svg>
