<svg width="48" height="48" viewBox="0 0 48 48" fill="none" xmlns="http://www.w3.org/2000/svg">
<g clip-path="url(#clip0_251_5033)">
<path d="M47.9998 22.4944C47.7106 17.8144 46.0581 13.3214 43.2462 9.56925C40.4343 5.81707 36.5858 2.96978 32.1752 1.37838C27.7647 -0.213011 22.9848 -0.478938 18.4249 0.613386C13.8651 1.70571 9.7245 4.10853 6.51372 7.52563C3.30294 10.9427 1.1623 15.2247 0.3557 19.8437C-0.450898 24.4627 0.111809 29.2168 1.97445 33.5198C3.83709 37.8229 6.91823 41.4868 10.838 44.0599C14.7578 46.633 19.3449 48.0028 24.0338 48.0004H37.9998C40.6512 47.9978 43.1932 46.9433 45.068 45.0685C46.9428 43.1938 47.9972 40.6517 47.9998 38.0004V22.4944ZM43.9998 38.0004C43.9998 39.5917 43.3677 41.1178 42.2425 42.243C41.1172 43.3683 39.5911 44.0004 37.9998 44.0004H24.0338C21.2117 43.9991 18.4215 43.403 15.8452 42.251C13.2689 41.099 10.9644 39.4169 9.08182 37.3144C7.19016 35.2129 5.76968 32.7313 4.9156 30.036C4.06153 27.3406 3.79361 24.4938 4.12982 21.6864C4.66069 17.2583 6.65019 13.1328 9.7847 9.96024C12.9192 6.78772 17.0204 4.74861 21.4418 4.16439C22.3043 4.0563 23.1726 4.00153 24.0418 4.00039C28.7028 3.98768 33.2194 5.6162 36.7998 8.60039C38.8909 10.3383 40.6072 12.4827 41.8449 14.9037C43.0825 17.3246 43.8156 19.9717 43.9998 22.6844V38.0004Z" fill="#122750"/>
<path d="M15.9995 17.9997H23.9995C24.5299 17.9997 25.0387 17.789 25.4137 17.414C25.7888 17.0389 25.9995 16.5302 25.9995 15.9998C25.9995 15.4693 25.7888 14.9606 25.4137 14.5855C25.0387 14.2105 24.5299 13.9998 23.9995 13.9998H15.9995C15.4691 13.9998 14.9604 14.2105 14.5853 14.5855C14.2102 14.9606 13.9995 15.4693 13.9995 15.9998C13.9995 16.5302 14.2102 17.0389 14.5853 17.414C14.9604 17.789 15.4691 17.9997 15.9995 17.9997Z" fill="#122750"/>
<path d="M31.9995 22.0002H15.9995C15.4691 22.0002 14.9604 22.211 14.5853 22.586C14.2102 22.9611 13.9995 23.4698 13.9995 24.0003C13.9995 24.5307 14.2102 25.0394 14.5853 25.4145C14.9604 25.7896 15.4691 26.0003 15.9995 26.0003H31.9995C32.5299 26.0003 33.0387 25.7896 33.4137 25.4145C33.7888 25.0394 33.9995 24.5307 33.9995 24.0003C33.9995 23.4698 33.7888 22.9611 33.4137 22.586C33.0387 22.211 32.5299 22.0002 31.9995 22.0002Z" fill="#122750"/>
<path d="M31.9995 30H15.9995C15.4691 30 14.9604 30.2107 14.5853 30.5858C14.2102 30.9609 13.9995 31.4696 13.9995 32C13.9995 32.5304 14.2102 33.0392 14.5853 33.4142C14.9604 33.7893 15.4691 34 15.9995 34H31.9995C32.5299 34 33.0387 33.7893 33.4137 33.4142C33.7888 33.0392 33.9995 32.5304 33.9995 32C33.9995 31.4696 33.7888 30.9609 33.4137 30.5858C33.0387 30.2107 32.5299 30 31.9995 30Z" fill="#122750"/>
</g>
<defs>
<clipPath id="clip0_251_5033">
<rect width="48" height="48" fill="white"/>
</clipPath>
</defs>
</svg>
