<svg width="16" height="17" viewBox="0 0 16 17" fill="none" xmlns="http://www.w3.org/2000/svg">
<g clip-path="url(#clip0_1340_9756)">
<path d="M8 8.5C8.79113 8.5 9.56449 8.26541 10.2223 7.82588C10.8801 7.38635 11.3928 6.76164 11.6955 6.03074C11.9983 5.29983 12.0775 4.49556 11.9231 3.71964C11.7688 2.94372 11.3878 2.23098 10.8284 1.67157C10.269 1.11216 9.55629 0.731202 8.78036 0.576861C8.00444 0.42252 7.20017 0.501733 6.46927 0.804484C5.73836 1.10723 5.11365 1.61992 4.67412 2.27772C4.2346 2.93552 4 3.70888 4 4.5C4.00106 5.56054 4.42283 6.57734 5.17274 7.32726C5.92266 8.07718 6.93946 8.49894 8 8.5ZM8 1.83334C8.52742 1.83334 9.04299 1.98973 9.48152 2.28275C9.92005 2.57577 10.2618 2.99224 10.4637 3.47951C10.6655 3.96678 10.7183 4.50296 10.6154 5.02024C10.5125 5.53753 10.2586 6.01268 9.88562 6.38562C9.51268 6.75856 9.03752 7.01254 8.52024 7.11543C8.00296 7.21832 7.46678 7.16551 6.97951 6.96368C6.49224 6.76185 6.07577 6.42005 5.78275 5.98152C5.48973 5.54299 5.33333 5.02742 5.33333 4.5C5.33333 3.79276 5.61428 3.11448 6.11438 2.61438C6.61448 2.11429 7.29276 1.83334 8 1.83334V1.83334Z" fill="#404040"/>
<path d="M8 9.83398C6.40924 9.83575 4.88414 10.4685 3.75931 11.5933C2.63447 12.7181 2.00176 14.2432 2 15.834C2 16.0108 2.07024 16.1804 2.19526 16.3054C2.32029 16.4304 2.48986 16.5007 2.66667 16.5007C2.84348 16.5007 3.01305 16.4304 3.13807 16.3054C3.2631 16.1804 3.33333 16.0108 3.33333 15.834C3.33333 14.5963 3.825 13.4093 4.70017 12.5342C5.57534 11.659 6.76232 11.1673 8 11.1673C9.23768 11.1673 10.4247 11.659 11.2998 12.5342C12.175 13.4093 12.6667 14.5963 12.6667 15.834C12.6667 16.0108 12.7369 16.1804 12.8619 16.3054C12.987 16.4304 13.1565 16.5007 13.3333 16.5007C13.5101 16.5007 13.6797 16.4304 13.8047 16.3054C13.9298 16.1804 14 16.0108 14 15.834C13.9982 14.2432 13.3655 12.7181 12.2407 11.5933C11.1159 10.4685 9.59076 9.83575 8 9.83398V9.83398Z" fill="#404040"/>
</g>
<defs>
<clipPath id="clip0_1340_9756">
<rect width="16" height="16" fill="white" transform="translate(0 0.5)"/>
</clipPath>
</defs>
</svg>
