<svg width="20" height="20" viewBox="0 0 20 20" fill="none" xmlns="http://www.w3.org/2000/svg">
<path d="M16.5042 3.49604C16.4 3.39188 16.2587 3.33337 16.1114 3.33337C15.9641 3.33337 15.8228 3.39188 15.7186 3.49604L10.0002 9.21447L4.28173 3.49604C4.17754 3.39188 4.03626 3.33337 3.88894 3.33337C3.74163 3.33337 3.60034 3.39188 3.49616 3.49604C3.39201 3.60022 3.3335 3.7415 3.3335 3.88882C3.3335 4.03614 3.39201 4.17742 3.49616 4.28161L9.21459 10L3.49616 15.7185C3.39201 15.8227 3.3335 15.9639 3.3335 16.1113C3.3335 16.2586 3.39201 16.3999 3.49616 16.504C3.60034 16.6082 3.74163 16.6667 3.88894 16.6667C4.03626 16.6667 4.17754 16.6082 4.28173 16.504L10.0002 10.7856L15.7186 16.504C15.8228 16.6082 15.9641 16.6667 16.1114 16.6667C16.2587 16.6667 16.4 16.6082 16.5042 16.504C16.6083 16.3999 16.6668 16.2586 16.6668 16.1113C16.6668 15.9639 16.6083 15.8227 16.5042 15.7185L10.7857 10L16.5042 4.28161C16.6083 4.17742 16.6668 4.03614 16.6668 3.88882C16.6668 3.7415 16.6083 3.60022 16.5042 3.49604Z" fill="#999999"/>
</svg>
