<svg width="13" height="14" viewBox="0 0 13 14" fill="none" xmlns="http://www.w3.org/2000/svg">
<g clip-path="url(#clip0_973_9266)">
<path d="M7.04183 11.3333C7.75986 11.3325 8.44824 11.0469 8.95596 10.5391C9.46369 10.0314 9.7493 9.34304 9.75016 8.62501V3.88163C9.751 3.59691 9.69533 3.31485 9.58635 3.05181C9.47738 2.78877 9.31728 2.54997 9.11533 2.34926L7.90091 1.13484C7.7002 0.932895 7.4614 0.772794 7.19836 0.66382C6.93532 0.554846 6.65326 0.499167 6.36854 0.500009H3.79183C3.0738 0.50087 2.38542 0.786487 1.8777 1.29421C1.36997 1.80194 1.08436 2.49031 1.0835 3.20834V8.62501C1.08436 9.34304 1.36997 10.0314 1.8777 10.5391C2.38542 11.0469 3.0738 11.3325 3.79183 11.3333H7.04183ZM2.16683 8.62501V3.20834C2.16683 2.77737 2.33803 2.36404 2.64278 2.05929C2.94753 1.75455 3.36085 1.58334 3.79183 1.58334C3.79183 1.58334 6.45629 1.59093 6.50016 1.59634V2.66668C6.50016 2.95399 6.6143 3.22954 6.81746 3.43271C7.02063 3.63587 7.29618 3.75001 7.5835 3.75001H8.65383C8.65925 3.79388 8.66683 8.62501 8.66683 8.62501C8.66683 9.05599 8.49562 9.46931 8.19088 9.77406C7.88613 10.0788 7.47281 10.25 7.04183 10.25H3.79183C3.36085 10.25 2.94753 10.0788 2.64278 9.77406C2.33803 9.46931 2.16683 9.05599 2.16683 8.62501ZM11.9168 4.83334V10.7917C11.916 11.5097 11.6304 12.1981 11.1226 12.7058C10.6149 13.2135 9.92653 13.4991 9.2085 13.5H4.3335C4.18984 13.5 4.05206 13.4429 3.95048 13.3414C3.8489 13.2398 3.79183 13.102 3.79183 12.9583C3.79183 12.8147 3.8489 12.6769 3.95048 12.5753C4.05206 12.4737 4.18984 12.4167 4.3335 12.4167H9.2085C9.63947 12.4167 10.0528 12.2455 10.3575 11.9407C10.6623 11.636 10.8335 11.2227 10.8335 10.7917V4.83334C10.8335 4.68968 10.8906 4.55191 10.9921 4.45033C11.0937 4.34874 11.2315 4.29168 11.3752 4.29168C11.5188 4.29168 11.6566 4.34874 11.7582 4.45033C11.8598 4.55191 11.9168 4.68968 11.9168 4.83334Z" fill="#234F9D"/>
</g>
<defs>
<clipPath id="clip0_973_9266">
<rect width="13" height="13" fill="white" transform="translate(0 0.5)"/>
</clipPath>
</defs>
</svg>
