<svg width="24" height="24" viewBox="0 0 24 24" fill="none" xmlns="http://www.w3.org/2000/svg">
<g clip-path="url(#clip0_999_8871)">
<path d="M22.9498 9.59982C22.7623 9.41235 22.5079 9.30703 22.2428 9.30703C21.9776 9.30703 21.7233 9.41235 21.5358 9.59982L10.6438 20.5388C10.1795 21.0032 9.62829 21.3715 9.02164 21.6229C8.41499 21.8742 7.76478 22.0036 7.10813 22.0036C5.78197 22.0037 4.51008 21.477 3.57228 20.5393C2.63447 19.6016 2.10757 18.3298 2.10747 17.0037C2.10738 15.6775 2.63411 14.4056 3.57178 13.4678L14.1208 2.87582C14.6849 2.32071 15.4455 2.01099 16.2369 2.01412C17.0283 2.01725 17.7864 2.33297 18.3461 2.89252C18.9058 3.45208 19.2217 4.21012 19.225 5.00153C19.2283 5.79294 18.9188 6.5536 18.3638 7.11782L7.81478 17.7098C7.62453 17.8921 7.37124 17.9938 7.10778 17.9938C6.84431 17.9938 6.59103 17.8921 6.40078 17.7098C6.21331 17.5223 6.10799 17.268 6.10799 17.0028C6.10799 16.7377 6.21331 16.4833 6.40078 16.2958L15.7928 6.86082C15.9749 6.67222 16.0757 6.41961 16.0735 6.15742C16.0712 5.89522 15.966 5.64441 15.7806 5.459C15.5952 5.27359 15.3444 5.16842 15.0822 5.16615C14.82 5.16387 14.5674 5.26466 14.3788 5.44682L4.98678 14.8818C4.70815 15.1604 4.48713 15.4911 4.33633 15.8552C4.18553 16.2192 4.10792 16.6093 4.10792 17.0033C4.10792 17.3973 4.18553 17.7875 4.33633 18.1515C4.48713 18.5155 4.70815 18.8462 4.98678 19.1248C5.5584 19.6703 6.31816 19.9746 7.10828 19.9746C7.8984 19.9746 8.65816 19.6703 9.22978 19.1248L19.7778 8.53182C20.6958 7.59012 21.2058 6.32467 21.1974 5.00959C21.1889 3.69451 20.6627 2.4357 19.7328 1.50584C18.8028 0.575987 17.5439 0.0499642 16.2288 0.0417243C14.9137 0.0334843 13.6483 0.54369 12.7068 1.46182L2.15778 12.0538C0.844957 13.3666 0.107422 15.1472 0.107422 17.0038C0.107422 18.8604 0.844957 20.641 2.15778 21.9538C3.4706 23.2666 5.25117 24.0042 7.10778 24.0042C8.96439 24.0042 10.745 23.2666 12.0578 21.9538L22.9498 11.0178C23.0432 10.9249 23.1173 10.8144 23.1679 10.6927C23.2185 10.5711 23.2446 10.4406 23.2446 10.3088C23.2446 10.177 23.2185 10.0466 23.1679 9.9249C23.1173 9.80322 23.0432 9.69275 22.9498 9.59982Z" fill="white"/>
</g>
<defs>
<clipPath id="clip0_999_8871">
<rect width="24" height="24" fill="white"/>
</clipPath>
</defs>
</svg>
