<svg width="20" height="20" viewBox="0 0 20 20" fill="none" xmlns="http://www.w3.org/2000/svg">
<g clip-path="url(#clip0_1126_1532)">
<path d="M15.8333 0H4.16667C3.062 0.00132321 2.00296 0.440735 1.22185 1.22185C0.440735 2.00296 0.00132321 3.062 0 4.16667L0 15.8333C0.00132321 16.938 0.440735 17.997 1.22185 18.7782C2.00296 19.5593 3.062 19.9987 4.16667 20H15.8333C16.938 19.9987 17.997 19.5593 18.7782 18.7782C19.5593 17.997 19.9987 16.938 20 15.8333V4.16667C19.9987 3.062 19.5593 2.00296 18.7782 1.22185C17.997 0.440735 16.938 0.00132321 15.8333 0V0ZM5.83333 18.3333V17.5C5.83333 16.3949 6.27232 15.3351 7.05372 14.5537C7.83512 13.7723 8.89493 13.3333 10 13.3333C11.1051 13.3333 12.1649 13.7723 12.9463 14.5537C13.7277 15.3351 14.1667 16.3949 14.1667 17.5V18.3333H5.83333ZM18.3333 15.8333C18.3333 16.4964 18.0699 17.1323 17.6011 17.6011C17.1323 18.0699 16.4964 18.3333 15.8333 18.3333V17.5C15.8333 15.9529 15.2188 14.4692 14.1248 13.3752C13.0308 12.2812 11.5471 11.6667 10 11.6667C8.4529 11.6667 6.96917 12.2812 5.87521 13.3752C4.78125 14.4692 4.16667 15.9529 4.16667 17.5V18.3333C3.50363 18.3333 2.86774 18.0699 2.3989 17.6011C1.93006 17.1323 1.66667 16.4964 1.66667 15.8333V4.16667C1.66667 3.50363 1.93006 2.86774 2.3989 2.3989C2.86774 1.93006 3.50363 1.66667 4.16667 1.66667H15.8333C16.4964 1.66667 17.1323 1.93006 17.6011 2.3989C18.0699 2.86774 18.3333 3.50363 18.3333 4.16667V15.8333Z" fill="#999999"/>
<path d="M10.0003 3.33362C9.34106 3.33362 8.69659 3.52911 8.14843 3.89539C7.60026 4.26166 7.17302 4.78225 6.92073 5.39134C6.66844 6.00043 6.60243 6.67065 6.73104 7.31725C6.85966 7.96386 7.17713 8.5578 7.6433 9.02397C8.10948 9.49015 8.70342 9.80762 9.35003 9.93624C9.99663 10.0649 10.6669 9.99884 11.2759 9.74655C11.885 9.49426 12.4056 9.06702 12.7719 8.51885C13.1382 7.97069 13.3337 7.32622 13.3337 6.66695C13.3337 5.7829 12.9825 4.93505 12.3574 4.30993C11.7322 3.68481 10.8844 3.33362 10.0003 3.33362ZM10.0003 8.33362C9.67069 8.33362 9.34846 8.23587 9.07438 8.05273C8.8003 7.8696 8.58667 7.6093 8.46053 7.30476C8.33438 7.00021 8.30138 6.6651 8.36569 6.3418C8.42999 6.0185 8.58873 5.72153 8.82182 5.48844C9.0549 5.25535 9.35188 5.09662 9.67518 5.03231C9.99848 4.968 10.3336 5.00101 10.6381 5.12715C10.9427 5.2533 11.203 5.46692 11.3861 5.741C11.5692 6.01508 11.667 6.33732 11.667 6.66695C11.667 7.10898 11.4914 7.5329 11.1788 7.84546C10.8663 8.15802 10.4424 8.33362 10.0003 8.33362Z" fill="#999999"/>
</g>
<defs>
<clipPath id="clip0_1126_1532">
<rect width="20" height="20" fill="white"/>
</clipPath>
</defs>
</svg>
