<svg width="22" height="22" viewBox="0 0 22 22" fill="none" xmlns="http://www.w3.org/2000/svg">
<path d="M11.0901 13.6455C9.67487 13.6455 8.52759 14.7928 8.52759 16.208V21.333H13.6526V16.208C13.6526 14.7928 12.5053 13.6455 11.0901 13.6455Z" fill="#404040"/>
<path d="M15.3609 16.2083V21.3333H18.7776C20.1928 21.3333 21.3401 20.186 21.3401 18.7708V10.98C21.3403 10.5362 21.1678 10.1098 20.8592 9.79096L13.6005 1.94371C12.3197 0.557956 10.1581 0.472873 8.77235 1.75364C8.70652 1.8145 8.6431 1.87788 8.58228 1.94371L1.33637 9.7884C1.01838 10.1086 0.839968 10.5415 0.840088 10.9928V18.7708C0.840088 20.186 1.98737 21.3333 3.40259 21.3333H6.81924V16.2083C6.83522 13.8792 8.71573 11.9771 10.9862 11.9224C13.3327 11.8657 15.343 13.8002 15.3609 16.2083Z" fill="#404040"/>
<path d="M11.0901 13.6455C9.67487 13.6455 8.52759 14.7928 8.52759 16.208V21.333H13.6526V16.208C13.6526 14.7928 12.5053 13.6455 11.0901 13.6455Z" fill="#404040"/>
</svg>
