<svg width="48" height="48" viewBox="0 0 48 48" fill="none" xmlns="http://www.w3.org/2000/svg">
<path d="M24 29.9836C20.6863 29.9836 18 32.67 18 35.9836V47.9836H30V35.9836C30 32.67 27.3137 29.9836 24 29.9836Z" fill="#FFFFFF"/>
<path d="M34 35.9844V47.9844H42C45.3137 47.9844 48 45.2981 48 41.9844V23.7424C48.0005 22.7034 47.5967 21.705 46.874 20.9584L29.878 2.58436C26.8792 -0.660324 21.8178 -0.859543 18.5731 2.13933C18.419 2.28183 18.2705 2.43024 18.1281 2.58436L1.16203 20.9524C0.417469 21.7021 -0.000281108 22.7159 1.41921e-07 23.7724V41.9844C1.41921e-07 45.2981 2.68631 47.9844 6 47.9844H14V35.9844C14.0374 30.5308 18.4405 26.0773 23.7568 25.949C29.2509 25.8165 33.9581 30.3458 34 35.9844Z" fill="#FFFFFF"/>
<path d="M24 29.9836C20.6863 29.9836 18 32.67 18 35.9836V47.9836H30V35.9836C30 32.67 27.3137 29.9836 24 29.9836Z" fill="#FFFFFF"/>
</svg>
