<svg width="24" height="24" viewBox="0 0 24 24" fill="none" xmlns="http://www.w3.org/2000/svg">
<g clip-path="url(#clip0_3014_16072)">
<path d="M12 13C15.5899 13 18.5 10.0899 18.5 6.5C18.5 2.91015 15.5899 0 12 0C8.41015 0 5.5 2.91015 5.5 6.5C5.5 10.0899 8.41015 13 12 13Z" fill="white"/>
<path d="M16.3799 15H7.62008C6.19638 15.0017 4.83147 15.568 3.82476 16.5748C2.81805 17.5815 2.25172 18.9464 2.25 20.3701V25.8333H21.75V20.3701C21.7483 18.9464 21.182 17.5815 20.1752 16.5748C19.1685 15.568 17.8036 15.0017 16.3799 15V15Z" fill="white"/>
</g>
<defs>
<clipPath id="clip0_3014_16072">
<rect width="24" height="24" fill="white"/>
</clipPath>
</defs>
</svg>
