<svg width="24" height="24" viewBox="0 0 24 24" fill="none" xmlns="http://www.w3.org/2000/svg">
<g clip-path="url(#clip0_861_15336)">
<path d="M12.8359 0.0278035C11.1214 -0.0921554 9.40123 0.157549 7.79166 0.760021C6.18209 1.36249 4.7207 2.30367 3.50639 3.51988C2.29209 4.73608 1.35319 6.19893 0.753226 7.80945C0.153267 9.41996 -0.0937531 11.1406 0.028881 12.8548C0.469881 19.2078 6.08188 23.9998 13.0829 23.9998H18.9999C20.3255 23.9982 21.5963 23.4709 22.5337 22.5336C23.471 21.5962 23.9983 20.3254 23.9999 18.9998V12.3398C24.0372 9.25725 22.907 6.2747 20.8362 3.99098C18.7654 1.70725 15.9074 0.291441 12.8359 0.0278035ZM11.9999 4.9998C12.3977 4.9998 12.7792 5.15784 13.0605 5.43914C13.3418 5.72045 13.4999 6.10198 13.4999 6.4998C13.4999 6.89763 13.3418 7.27916 13.0605 7.56046C12.7792 7.84177 12.3977 7.9998 11.9999 7.9998C11.6021 7.9998 11.2205 7.84177 10.9392 7.56046C10.6579 7.27916 10.4999 6.89763 10.4999 6.4998C10.4999 6.10198 10.6579 5.72045 10.9392 5.43914C11.2205 5.15784 11.6021 4.9998 11.9999 4.9998ZM13.9999 17.9998C13.9999 18.265 13.8945 18.5194 13.707 18.7069C13.5195 18.8944 13.2651 18.9998 12.9999 18.9998C12.7347 18.9998 12.4803 18.8944 12.2928 18.7069C12.1052 18.5194 11.9999 18.265 11.9999 17.9998V11.9998H10.9999C10.7347 11.9998 10.4803 11.8944 10.2928 11.7069C10.1052 11.5194 9.99988 11.265 9.99988 10.9998C9.99988 10.7346 10.1052 10.4802 10.2928 10.2927C10.4803 10.1052 10.7347 9.9998 10.9999 9.9998H11.9999C12.5303 9.9998 13.039 10.2105 13.4141 10.5856C13.7892 10.9607 13.9999 11.4694 13.9999 11.9998V17.9998Z" fill="#173468"/>
</g>
<defs>
<clipPath id="clip0_861_15336">
<rect width="24" height="24" fill="white"/>
</clipPath>
</defs>
</svg>
