<svg width="48" height="48" viewBox="0 0 48 48" fill="none" xmlns="http://www.w3.org/2000/svg">
<g clip-path="url(#clip0_78_3208)">
<path d="M39.07 6.24404L35.758 2.92804C34.8313 1.99667 33.7292 1.25832 32.5153 0.755728C31.3014 0.253139 29.9998 -0.00371198 28.686 4.05309e-05H16C13.3488 0.00321625 10.8071 1.0578 8.93244 2.93248C7.05776 4.80716 6.00318 7.34885 6 10V38C6.00318 40.6512 7.05776 43.1929 8.93244 45.0676C10.8071 46.9423 13.3488 47.9969 16 48H32C34.6512 47.9969 37.1929 46.9423 39.0676 45.0676C40.9422 43.1929 41.9968 40.6512 42 38V13.314C42.0032 12.0004 41.7459 10.6992 41.243 9.48563C40.7401 8.27207 40.0015 7.1703 39.07 6.24404ZM36.242 9.07204C36.5257 9.35468 36.7797 9.66564 37 10H32V5.00004C32.3339 5.22268 32.6453 5.47721 32.93 5.76004L36.242 9.07204ZM38 38C38 39.5913 37.3679 41.1175 36.2426 42.2427C35.1174 43.3679 33.5913 44 32 44H16C14.4087 44 12.8826 43.3679 11.7574 42.2427C10.6321 41.1175 10 39.5913 10 38V10C10 8.40874 10.6321 6.88262 11.7574 5.7574C12.8826 4.63218 14.4087 4.00004 16 4.00004H28V10C28 11.0609 28.4214 12.0783 29.1716 12.8285C29.9217 13.5786 30.9391 14 32 14H38V38ZM32 18C32.5304 18 33.0391 18.2108 33.4142 18.5858C33.7893 18.9609 34 19.4696 34 20C34 20.5305 33.7893 21.0392 33.4142 21.4143C33.0391 21.7893 32.5304 22 32 22H16C15.4696 22 14.9609 21.7893 14.5858 21.4143C14.2107 21.0392 14 20.5305 14 20C14 19.4696 14.2107 18.9609 14.5858 18.5858C14.9609 18.2108 15.4696 18 16 18H32ZM34 28C34 28.5305 33.7893 29.0392 33.4142 29.4143C33.0391 29.7893 32.5304 30 32 30H16C15.4696 30 14.9609 29.7893 14.5858 29.4143C14.2107 29.0392 14 28.5305 14 28C14 27.4696 14.2107 26.9609 14.5858 26.5858C14.9609 26.2108 15.4696 26 16 26H32C32.5304 26 33.0391 26.2108 33.4142 26.5858C33.7893 26.9609 34 27.4696 34 28ZM33.616 34.826C33.9269 35.2537 34.0558 35.7872 33.9744 36.3096C33.8931 36.8321 33.6082 37.3011 33.182 37.614C31.1556 39.058 28.7556 39.8864 26.27 40C24.8178 39.993 23.4096 39.5002 22.27 38.6C21.614 38.15 21.364 38 20.87 38C19.5329 38.207 18.2712 38.7537 17.206 39.588C16.7835 39.8892 16.2605 40.0144 15.7474 39.9372C15.2343 39.86 14.7713 39.5864 14.4562 39.1742C14.141 38.762 13.9984 38.2434 14.0585 37.728C14.1185 37.2126 14.3765 36.7408 14.778 36.412C16.5404 35.0439 18.6566 34.2071 20.878 34C22.2103 34.0213 23.4982 34.4818 24.542 35.31C25.0178 35.738 25.6303 35.9826 26.27 36C27.9053 35.8775 29.4779 35.3188 30.824 34.382C31.2532 34.0709 31.7884 33.9429 32.3119 34.0262C32.8354 34.1094 33.3045 34.3971 33.616 34.826Z" fill="#FFFFFF"/>
</g>
<defs>
<clipPath id="clip0_78_3208">
<rect width="48" height="48" fill="white"/>
</clipPath>
</defs>
</svg>
