<svg width="48" height="48" viewBox="0 0 48 48" fill="none" xmlns="http://www.w3.org/2000/svg">
<g clip-path="url(#clip0_78_3209)">
<path d="M32 0.6C33.4116 1.08396 34.696 1.87965 35.758 2.928L39.07 6.244C40.1196 7.30458 40.9161 8.58852 41.4 10H32V0.6ZM42 14V38C41.9968 40.6512 40.9422 43.1929 39.0676 45.0676C37.1929 46.9422 34.6512 47.9968 32 48H16C13.3488 47.9968 10.8071 46.9422 8.93244 45.0676C7.05776 43.1929 6.00318 40.6512 6 38V10C6.00318 7.34881 7.05776 4.80712 8.93244 2.93244C10.8071 1.05776 13.3488 0.00317572 16 0L28 0V10C28 11.0609 28.4214 12.0783 29.1716 12.8284C29.9217 13.5786 30.9391 14 32 14H42ZM33.616 34.826C33.4617 34.6125 33.2667 34.4316 33.0423 34.2936C32.8179 34.1557 32.5684 34.0635 32.3083 34.0222C32.0481 33.9809 31.7823 33.9915 31.5262 34.0532C31.2701 34.115 31.0288 34.2267 30.816 34.382C29.4722 35.3174 27.9026 35.8761 26.27 36C25.6303 35.9825 25.0178 35.7379 24.542 35.31C23.4982 34.4818 22.2103 34.0213 20.878 34C18.6593 34.2086 16.5461 35.0453 14.786 36.412C14.5676 36.5677 14.3827 36.7658 14.2424 36.9944C14.102 37.2231 14.0091 37.4776 13.9692 37.7429C13.9293 38.0082 13.9431 38.2788 14.0099 38.5386C14.0767 38.7984 14.1951 39.0421 14.3581 39.2552C14.521 39.4684 14.7251 39.6465 14.9583 39.7791C15.1915 39.9117 15.449 39.9961 15.7155 40.0271C15.9819 40.0582 16.2519 40.0353 16.5094 39.9599C16.7668 39.8844 17.0064 39.758 17.214 39.588C18.2792 38.7537 19.5409 38.2069 20.878 38C21.37 38 21.62 38.156 22.278 38.6C23.4176 39.5002 24.8258 39.993 26.278 40C28.7636 39.8864 31.1636 39.0579 33.19 37.614C33.6149 37.2998 33.8983 36.8303 33.9781 36.3079C34.0579 35.7855 33.9277 35.2527 33.616 34.826ZM34 28C34 27.4696 33.7893 26.9609 33.4142 26.5858C33.0391 26.2107 32.5304 26 32 26H16C15.4696 26 14.9609 26.2107 14.5858 26.5858C14.2107 26.9609 14 27.4696 14 28C14 28.5304 14.2107 29.0391 14.5858 29.4142C14.9609 29.7893 15.4696 30 16 30H32C32.5304 30 33.0391 29.7893 33.4142 29.4142C33.7893 29.0391 34 28.5304 34 28ZM34 20C34 19.4696 33.7893 18.9609 33.4142 18.5858C33.0391 18.2107 32.5304 18 32 18H16C15.4696 18 14.9609 18.2107 14.5858 18.5858C14.2107 18.9609 14 19.4696 14 20C14 20.5304 14.2107 21.0391 14.5858 21.4142C14.9609 21.7893 15.4696 22 16 22H32C32.5304 22 33.0391 21.7893 33.4142 21.4142C33.7893 21.0391 34 20.5304 34 20Z" fill="#FFFFFF"/>
</g>
<defs>
<clipPath id="clip0_78_3209">
<rect width="48" height="48" fill="white"/>
</clipPath>
</defs>
</svg>
