<svg width="70" height="50" viewBox="0 0 70 50" fill="none" xmlns="http://www.w3.org/2000/svg">
<defs>
<linearGradient id="paint0_linear_973_9257" x1="28.1948" y1="21.9897" x2="64.9167" y2="21.9897" gradientUnits="userSpaceOnUse">
<stop stop-color="#FFCA06"/>
<stop offset="0.330844" stop-color="#FBAA18"/>
<stop offset="0.694742" stop-color="#FFC907"/>
<stop offset="1" stop-color="#FAA619"/>
</linearGradient>
</defs>
<path fill-rule="evenodd" clip-rule="evenodd" d="M5.06316 26.4811C5.06316 25.5844 5.04737 24.8319 5 24.1609H6.64337L6.72042 25.3137H6.76653C7.139 24.7045 7.82016 23.9841 9.09074 23.9841C10.0825 23.9841 10.8571 24.5616 11.1819 25.4255H11.2138C11.4776 24.9935 11.7865 24.6737 12.1425 24.4488C12.5613 24.1451 13.0417 23.9841 13.6615 23.9841C14.9161 23.9841 16.1857 24.8642 16.1857 27.3611V31.9536H14.3268V27.6496C14.3268 26.3535 13.8937 25.5844 12.9802 25.5844C12.3284 25.5844 11.8476 26.0654 11.6475 26.6257C11.6005 26.8172 11.5541 27.0574 11.5541 27.2799V31.9536H9.69453V27.4409C9.69453 26.3535 9.2769 25.5844 8.39363 25.5844C7.68089 25.5844 7.20121 26.1614 7.03037 26.7043C6.95237 26.8976 6.92111 27.121 6.92111 27.3446V31.9536H5.06316V26.4811Z" fill="#173468"/>
<path fill-rule="evenodd" clip-rule="evenodd" d="M23.4281 30.0819C23.4281 30.7856 23.4591 31.4726 23.5366 31.954H21.8163L21.6929 31.0901H21.6458C21.1813 31.6988 20.3912 32.1301 19.4152 32.1301C17.8966 32.1301 17.0449 30.9949 17.0449 29.81C17.0449 27.841 18.733 26.8497 21.5219 26.8655V26.737C21.5219 26.2247 21.3202 25.3771 19.9881 25.3771C19.2441 25.3771 18.4691 25.6174 17.9582 25.9529L17.5859 24.6737C18.1447 24.321 19.1216 23.9845 20.3135 23.9845C22.7313 23.9845 23.4281 25.5698 23.4281 27.2653V30.0819ZM21.5683 28.1458C20.2207 28.1135 18.9351 28.4175 18.9351 29.6019C18.9351 30.3692 19.4152 30.722 20.0197 30.722C20.7779 30.722 21.3365 30.2097 21.5064 29.6498C21.5525 29.5058 21.5683 29.3452 21.5683 29.2176V28.1458Z" fill="#173468"/>
<path fill-rule="evenodd" clip-rule="evenodd" d="M24.7458 26.4811C24.7458 25.5844 24.7288 24.8319 24.6836 24.1609H26.3554L26.4489 25.329H26.4946C26.8204 24.7216 27.6414 23.9841 28.8961 23.9841C30.2134 23.9841 31.5766 24.8642 31.5766 27.3292V31.9536H29.6713V27.5537C29.6713 26.4328 29.2685 25.5844 28.2304 25.5844C27.4712 25.5844 26.9446 26.1446 26.7427 26.737C26.6818 26.9134 26.6656 27.154 26.6656 27.3765V31.9536H24.7458V26.4811Z" fill="#173468"/>
<path fill-rule="evenodd" clip-rule="evenodd" d="M39.8385 21.0298V29.7609C39.8385 30.5609 39.869 31.4266 39.9001 31.954H38.1958L38.1195 30.722H38.0879C37.6384 31.5866 36.7229 32.1302 35.6241 32.1302C33.8278 32.1302 32.402 30.5462 32.402 28.1458C32.3862 25.5372 33.9664 23.9845 35.7789 23.9845C36.8166 23.9845 37.5609 24.4332 37.9011 25.0097H37.9326V21.0298H39.8385ZM37.9326 27.4085C37.9326 27.2501 37.9166 27.0572 37.8868 26.8977C37.7161 26.1295 37.1115 25.505 36.2439 25.505C35.02 25.505 34.3382 26.6258 34.3382 28.0821C34.3382 29.5059 35.02 30.5462 36.2284 30.5462C37.0027 30.5462 37.6848 30.0023 37.8705 29.1544C37.9166 28.9776 37.9326 28.7858 37.9326 28.577V27.4085Z" fill="#173468"/>
<path fill-rule="evenodd" clip-rule="evenodd" d="M41.1851 31.9536H43.1081V24.1614H41.1851V31.9536Z" fill="#173468"/>
<path fill-rule="evenodd" clip-rule="evenodd" d="M44.4545 26.6731C44.4545 25.6174 44.4384 24.8642 44.3921 24.1608H46.0501L46.1108 25.6485H46.175C46.5462 24.5444 47.4295 24.1608 48.2348 24.1608C48.4203 24.1608 48.5286 24.128 48.684 24.1608V25.8896C48.5286 25.8576 48.3586 25.8257 48.1261 25.8257C47.2122 25.8257 46.592 26.4332 46.4218 27.3127C46.3917 27.4889 46.3604 27.6978 46.3604 27.9229V31.954H44.4545V26.6731Z" fill="#173468"/>
<path fill-rule="evenodd" clip-rule="evenodd" d="M49.5674 31.9536H51.4875V24.1614H49.5674V31.9536Z" fill="#173468"/>
<path fill-rule="evenodd" clip-rule="evenodd" d="M49.1127 14.7396C47.9593 15.4295 45.2388 17.0412 44.2232 17.6414C43.6042 17.9671 42.1707 18.1093 41.3599 16.98C41.3454 16.9597 40.2815 15.5866 40.2381 15.5349C40.2076 15.4984 39.5198 14.4446 37.9873 14.4117C37.7609 14.4061 36.6351 14.3999 35.5366 15.0448C34.0766 15.9064 30.6809 17.9116 30.6809 17.9116C30.6799 17.9116 30.6799 17.9134 30.6782 17.9134C29.2824 18.7383 28.1948 19.3806 28.1948 19.3806L29.4798 21.0107C30.0809 21.7816 31.4364 22.3781 32.6119 21.681C32.6119 21.681 36.9555 19.083 36.9714 19.0755C38.8499 18.0113 40.2994 18.0113 41.2614 18.4073C42.1249 18.7842 42.8762 19.7233 42.8762 19.7233C42.8762 19.7233 43.858 20.98 44.0312 21.1999C44.5898 21.9102 45.5145 21.6311 45.5145 21.6311C45.5145 21.6311 45.8571 21.591 46.3736 21.2743C46.3736 21.2743 50.5808 18.7545 50.5835 18.7537C51.9195 17.9441 53.1447 17.7929 53.7709 17.8524C55.7323 18.0366 56.3416 19.4519 57.192 20.4392C57.6929 21.02 58.1448 21.3498 58.8359 21.3331C59.29 21.3232 59.803 21.0388 59.8786 20.9874L64.9167 17.9842C64.9167 17.9842 64.3998 17.18 63.3411 15.9288C62.3936 14.8124 61.3871 15.3175 60.5847 15.728C60.2476 15.9002 59.0261 16.7395 57.816 17.325C56.9538 17.742 55.7152 17.6166 55.0365 16.7502C54.9959 16.6976 53.8977 15.3243 53.7823 15.1554C53.3391 14.5819 52.4743 14.0684 51.366 14.0684C50.6921 14.0684 49.9275 14.2582 49.1127 14.7396Z" fill="url(#paint0_linear_973_9257)"/>
</svg>
