<svg width="48" height="48" viewBox="0 0 48 48" fill="none" xmlns="http://www.w3.org/2000/svg">
<g clip-path="url(#clip0_78_3210)">
<path d="M14.8481 42C15.6235 43.7828 16.9026 45.3003 18.5285 46.3662C20.1543 47.4321 22.0561 47.9999 24.0001 47.9999C25.9442 47.9999 27.846 47.4321 29.4718 46.3662C31.0977 45.3003 32.3768 43.7828 33.1521 42H14.8481Z" fill="#FFFFFF"/>
<path d="M44.7841 25.098L41.3121 13.652C40.2002 9.64867 37.7829 6.13153 34.4438 3.65898C31.1048 1.18644 27.0355 -0.099783 22.8819 0.00453779C18.7284 0.108859 14.7288 1.59774 11.518 4.23479C8.30733 6.87184 6.06959 10.5059 5.1601 14.56L2.4641 25.634C2.10577 27.1055 2.08636 28.6392 2.40733 30.1193C2.72829 31.5994 3.38126 32.9873 4.31695 34.1781C5.25264 35.369 6.4466 36.3318 7.80874 36.9939C9.17087 37.656 10.6656 38 12.1801 38H35.2141C36.7756 38 38.3154 37.6344 39.7101 36.9324C41.1049 36.2305 42.3159 35.2116 43.2462 33.9575C44.1764 32.7033 44.8 31.2488 45.0671 29.7103C45.3342 28.1719 45.2372 26.5923 44.7841 25.098Z" fill="#FFFFFF"/>
</g>
<defs>
<clipPath id="clip0_78_3210">
<rect width="22" height="22" fill="white"/>
</clipPath>
</defs>
</svg>
