<svg width="48" height="48" viewBox="0 0 48 48" fill="none" xmlns="http://www.w3.org/2000/svg">
<g clip-path="url(#clip0_82_2713)">
<path d="M34.0005 27.9999C34.0005 28.5304 33.7898 29.0391 33.4147 29.4141C33.0396 29.7892 32.5309 29.9999 32.0005 29.9999H16.0005C15.4701 29.9999 14.9613 29.7892 14.5863 29.4141C14.2112 29.0391 14.0005 28.5304 14.0005 27.9999C14.0005 27.4695 14.2112 26.9608 14.5863 26.5857C14.9613 26.2106 15.4701 25.9999 16.0005 25.9999H32.0005C32.5309 25.9999 33.0396 26.2106 33.4147 26.5857C33.7898 26.9608 34.0005 27.4695 34.0005 27.9999ZM26.0005 33.9999H16.0005C15.4701 33.9999 14.9613 34.2106 14.5863 34.5857C14.2112 34.9608 14.0005 35.4695 14.0005 35.9999C14.0005 36.5304 14.2112 37.0391 14.5863 37.4141C14.9613 37.7892 15.4701 37.9999 16.0005 37.9999H26.0005C26.5309 37.9999 27.0396 37.7892 27.4147 37.4141C27.7898 37.0391 28.0005 36.5304 28.0005 35.9999C28.0005 35.4695 27.7898 34.9608 27.4147 34.5857C27.0396 34.2106 26.5309 33.9999 26.0005 33.9999ZM44.0005 20.9699V37.9999C43.9973 40.6511 42.9427 43.1928 41.0681 45.0675C39.1934 46.9422 36.6517 47.9967 34.0005 47.9999H14.0005C11.3493 47.9967 8.8076 46.9422 6.93293 45.0675C5.05825 43.1928 4.00366 40.6511 4.00049 37.9999V9.99992C4.00366 7.34873 5.05825 4.80704 6.93293 2.93236C8.8076 1.05769 11.3493 0.00309974 14.0005 -7.5973e-05H23.0305C24.8697 -0.00480982 26.6917 0.355099 28.3909 1.05884C30.0902 1.76259 31.6331 2.7962 32.9305 4.09992L39.8985 11.0719C41.203 12.3684 42.2372 13.9108 42.9413 15.6099C43.6455 17.3089 44.0055 19.1308 44.0005 20.9699ZM30.1025 6.92792C29.473 6.31825 28.7664 5.79377 28.0005 5.36792V13.9999C28.0005 14.5304 28.2112 15.0391 28.5863 15.4141C28.9613 15.7892 29.4701 15.9999 30.0005 15.9999H38.6325C38.2064 15.2343 37.6812 14.5282 37.0705 13.8999L30.1025 6.92792ZM40.0005 20.9699C40.0005 20.6399 39.9365 20.3239 39.9065 19.9999H30.0005C28.4092 19.9999 26.8831 19.3678 25.7578 18.2426C24.6326 17.1173 24.0005 15.5912 24.0005 13.9999V4.09392C23.6765 4.06392 23.3585 3.99992 23.0305 3.99992H14.0005C12.4092 3.99992 10.8831 4.63207 9.75785 5.75728C8.63263 6.8825 8.00049 8.40862 8.00049 9.99992V37.9999C8.00049 39.5912 8.63263 41.1173 9.75785 42.2426C10.8831 43.3678 12.4092 43.9999 14.0005 43.9999H34.0005C35.5918 43.9999 37.1179 43.3678 38.2431 42.2426C39.3683 41.1173 40.0005 39.5912 40.0005 37.9999V20.9699Z" fill="#FFFFFF"/>
</g>
<defs>
<clipPath id="clip0_82_2713">
<rect width="48" height="48" fill="white"/>
</clipPath>
</defs>
</svg>
