<svg width="48" height="48" viewBox="0 0 48 48" fill="none" xmlns="http://www.w3.org/2000/svg">
<g clip-path="url(#clip0_82_2715)">
<path d="M28.0005 14V0.92C29.8506 1.61867 31.5311 2.70262 32.9305 4.1L39.8985 11.072C41.2974 12.4698 42.3822 14.1498 43.0805 16H30.0005C29.4701 16 28.9613 15.7893 28.5863 15.4142C28.2112 15.0391 28.0005 14.5304 28.0005 14ZM44.0005 20.97V38C43.9973 40.6512 42.9427 43.1929 41.0681 45.0676C39.1934 46.9422 36.6517 47.9968 34.0005 48H14.0005C11.3493 47.9968 8.8076 46.9422 6.93293 45.0676C5.05825 43.1929 4.00366 40.6512 4.00049 38V10C4.00366 7.34881 5.05825 4.80712 6.93293 2.93244C8.8076 1.05776 11.3493 0.00317572 14.0005 0L23.0305 0C23.3565 0 23.6785 0.026 24.0005 0.048V14C24.0005 15.5913 24.6326 17.1174 25.7578 18.2426C26.8831 19.3679 28.4092 20 30.0005 20H43.9525C43.9745 20.322 44.0005 20.644 44.0005 20.97ZM28.0005 38C28.0005 37.4696 27.7898 36.9609 27.4147 36.5858C27.0396 36.2107 26.5309 36 26.0005 36H16.0005C15.4701 36 14.9613 36.2107 14.5863 36.5858C14.2112 36.9609 14.0005 37.4696 14.0005 38C14.0005 38.5304 14.2112 39.0391 14.5863 39.4142C14.9613 39.7893 15.4701 40 16.0005 40H26.0005C26.5309 40 27.0396 39.7893 27.4147 39.4142C27.7898 39.0391 28.0005 38.5304 28.0005 38ZM34.0005 30C34.0005 29.4696 33.7898 28.9609 33.4147 28.5858C33.0396 28.2107 32.5309 28 32.0005 28H16.0005C15.4701 28 14.9613 28.2107 14.5863 28.5858C14.2112 28.9609 14.0005 29.4696 14.0005 30C14.0005 30.5304 14.2112 31.0391 14.5863 31.4142C14.9613 31.7893 15.4701 32 16.0005 32H32.0005C32.5309 32 33.0396 31.7893 33.4147 31.4142C33.7898 31.0391 34.0005 30.5304 34.0005 30Z" fill="#FFFFFF"/>
</g>
<defs>
<clipPath id="clip0_82_2715">
<rect width="48" height="48" fill="white"/>
</clipPath>
</defs>
</svg>
