<svg width="48" height="48" viewBox="0 0 48 48" fill="none" xmlns="http://www.w3.org/2000/svg">
<g clip-path="url(#clip0_78_3214)">
<path d="M38 0H10C7.34881 0.00317572 4.80712 1.05776 2.93244 2.93244C1.05776 4.80712 0.00317572 7.34881 0 10L0 38C0.00317572 40.6512 1.05776 43.1929 2.93244 45.0676C4.80712 46.9422 7.34881 47.9968 10 48V42C10 38.287 11.475 34.726 14.1005 32.1005C16.726 29.475 20.287 28 24 28C27.713 28 31.274 29.475 33.8995 32.1005C36.525 34.726 38 38.287 38 42V48C40.6512 47.9968 43.1929 46.9422 45.0676 45.0676C46.9422 43.1929 47.9968 40.6512 48 38V10C47.9968 7.34881 46.9422 4.80712 45.0676 2.93244C43.1929 1.05776 40.6512 0.00317572 38 0V0ZM24 24C22.4177 24 20.871 23.5308 19.5554 22.6518C18.2398 21.7727 17.2145 20.5233 16.609 19.0615C16.0035 17.5997 15.845 15.9911 16.1537 14.4393C16.4624 12.8874 17.2243 11.462 18.3431 10.3431C19.462 9.22433 20.8874 8.4624 22.4393 8.15372C23.9911 7.84504 25.5997 8.00346 27.0615 8.60896C28.5233 9.21447 29.7727 10.2398 30.6518 11.5554C31.5308 12.871 32 14.4177 32 16C32 18.1217 31.1571 20.1566 29.6569 21.6569C28.1566 23.1571 26.1217 24 24 24Z" fill="#FFFFFF"/>
<path d="M23.9995 20C26.2086 20 27.9995 18.2091 27.9995 16C27.9995 13.7909 26.2086 12 23.9995 12C21.7904 12 19.9995 13.7909 19.9995 16C19.9995 18.2091 21.7904 20 23.9995 20Z" fill="#FFFFFF"/>
<path d="M23.9995 32.0007C21.3483 32.0039 18.8066 33.0585 16.932 34.9332C15.0573 36.8078 14.0027 39.3495 13.9995 42.0007V48.0007H33.9995V42.0007C33.9963 39.3495 32.9417 36.8078 31.0671 34.9332C29.1924 33.0585 26.6507 32.0039 23.9995 32.0007Z" fill="#FFFFFF"/>
</g>
<defs>
<clipPath id="clip0_78_3214">
<rect width="48" height="48" fill="white"/>
</clipPath>
</defs>
</svg>
 