<svg width="48" height="48" viewBox="0 0 48 48" fill="none" xmlns="http://www.w3.org/2000/svg">
<g clip-path="url(#clip0_78_3215)">
<path d="M38 0H10C7.34881 0.00317572 4.80712 1.05776 2.93244 2.93244C1.05776 4.80712 0.00317572 7.34881 0 10L0 38C0.00317572 40.6512 1.05776 43.1929 2.93244 45.0676C4.80712 46.9422 7.34881 47.9968 10 48H38C40.6512 47.9968 43.1929 46.9422 45.0676 45.0676C46.9422 43.1929 47.9968 40.6512 48 38V10C47.9968 7.34881 46.9422 4.80712 45.0676 2.93244C43.1929 1.05776 40.6512 0.00317572 38 0V0ZM14 44V42C14 39.3478 15.0536 36.8043 16.9289 34.9289C18.8043 33.0536 21.3478 32 24 32C26.6522 32 29.1957 33.0536 31.0711 34.9289C32.9464 36.8043 34 39.3478 34 42V44H14ZM44 38C44 39.5913 43.3679 41.1174 42.2426 42.2426C41.1174 43.3679 39.5913 44 38 44V42C38 38.287 36.525 34.726 33.8995 32.1005C31.274 29.475 27.713 28 24 28C20.287 28 16.726 29.475 14.1005 32.1005C11.475 34.726 10 38.287 10 42V44C8.4087 44 6.88258 43.3679 5.75736 42.2426C4.63214 41.1174 4 39.5913 4 38V10C4 8.4087 4.63214 6.88258 5.75736 5.75736C6.88258 4.63214 8.4087 4 10 4H38C39.5913 4 41.1174 4.63214 42.2426 5.75736C43.3679 6.88258 44 8.4087 44 10V38Z" fill="#FFFFFF"/>
<path d="M24 8.00049C22.4178 8.00049 20.871 8.46968 19.5554 9.34873C18.2399 10.2278 17.2145 11.4772 16.609 12.939C16.0035 14.4008 15.845 16.0094 16.1537 17.5612C16.4624 19.1131 17.2243 20.5385 18.3431 21.6573C19.462 22.7762 20.8874 23.5381 22.4393 23.8468C23.9911 24.1555 25.5997 23.997 27.0615 23.3915C28.5233 22.786 29.7727 21.7606 30.6518 20.445C31.5308 19.1295 32 17.5827 32 16.0005C32 13.8788 31.1572 11.8439 29.6569 10.3436C28.1566 8.84334 26.1217 8.00049 24 8.00049ZM24 20.0005C23.2089 20.0005 22.4355 19.7659 21.7777 19.3264C21.1199 18.8868 20.6072 18.2621 20.3045 17.5312C20.0017 16.8003 19.9225 15.9961 20.0769 15.2201C20.2312 14.4442 20.6122 13.7315 21.1716 13.1721C21.731 12.6127 22.4437 12.2317 23.2196 12.0773C23.9956 11.923 24.7998 12.0022 25.5307 12.305C26.2616 12.6077 26.8864 13.1204 27.3259 13.7782C27.7654 14.436 28 15.2094 28 16.0005C28 17.0614 27.5786 18.0788 26.8284 18.8289C26.0783 19.5791 25.0609 20.0005 24 20.0005Z" fill="#FFFFFF"/>
</g>
<defs>
<clipPath id="clip0_78_3215">
<rect width="48" height="48" fill="white"/>
</clipPath>
</defs>
</svg>
