<svg width="18" height="24" viewBox="0 0 18 24" fill="none" xmlns="http://www.w3.org/2000/svg">
<path d="M17.9995 24.0001H15.9996V18.9572C15.9988 18.1732 15.687 17.4216 15.1326 16.8672C14.5783 16.3129 13.8266 16.0011 13.0426 16.0003H4.95686C4.17288 16.0011 3.42124 16.3129 2.86688 16.8672C2.31252 17.4216 2.00074 18.1732 1.99994 18.9572V24.0001H0V18.9572C0.00158778 17.6431 0.524337 16.3832 1.45358 15.454C2.38283 14.5247 3.64271 14.002 4.95686 14.0004H13.0426C14.3568 14.002 15.6167 14.5247 16.5459 15.454C17.4752 16.3832 17.9979 17.6431 17.9995 18.9572V24.0001Z" fill="white"/>
<path d="M8.99984 11.9997C7.81318 11.9997 6.65317 11.6478 5.66651 10.9885C4.67984 10.3292 3.91083 9.3922 3.45671 8.29587C3.0026 7.19955 2.88378 5.99318 3.11529 4.82933C3.34679 3.66547 3.91822 2.5964 4.75731 1.75731C5.5964 0.918221 6.66547 0.346793 7.82933 0.115288C8.99318 -0.116217 10.1995 0.00259964 11.2959 0.456713C12.3922 0.910826 13.3292 1.67984 13.9885 2.66651C14.6478 3.65317 14.9997 4.81318 14.9997 5.99984C14.9981 7.5906 14.3654 9.11576 13.2406 10.2406C12.1158 11.3654 10.5906 11.9981 8.99984 11.9997ZM8.99984 1.99995C8.20873 1.99995 7.4354 2.23454 6.77762 2.67405C6.11984 3.11356 5.60716 3.73826 5.30442 4.46914C5.00168 5.20003 4.92247 6.00427 5.0768 6.78017C5.23114 7.55608 5.61209 8.26879 6.17149 8.82818C6.73088 9.38758 7.44359 9.76853 8.2195 9.92287C8.9954 10.0772 9.79964 9.99799 10.5305 9.69525C11.2614 9.39251 11.8861 8.87983 12.3256 8.22205C12.7651 7.56428 12.9997 6.79094 12.9997 5.99984C12.9997 4.939 12.5783 3.92161 11.8282 3.17149C11.0781 2.42136 10.0607 1.99995 8.99984 1.99995Z" fill="white"/>
</svg>
