<svg width="250" height="250" viewBox="0 0 250 250" fill="none" xmlns="http://www.w3.org/2000/svg">
<path d="M48.1895 202.75V206.51H76.3394V202.75H48.1895Z" fill="#E0E0E0"/>
<path d="M52.0296 202.9C52.1246 202.9 52.2046 203.69 52.2046 204.665C52.2046 205.64 52.1246 206.425 52.0296 206.425C51.9346 206.425 51.8496 205.635 51.8496 204.665C51.8496 203.695 51.9296 202.9 52.0296 202.9Z" fill="#FAFAFA"/>
<path d="M51.4152 202.825C51.5152 202.825 51.5902 203.615 51.5902 204.585C51.5902 205.555 51.5152 206.35 51.4152 206.35C51.3152 206.35 51.2402 205.56 51.2402 204.585C51.2402 203.61 51.3152 202.825 51.4152 202.825Z" fill="#FAFAFA"/>
<path d="M74.1652 202.9C74.2652 202.9 74.3452 203.69 74.3452 204.665C74.3452 205.64 74.2652 206.425 74.1652 206.425C74.0652 206.425 73.9902 205.635 73.9902 204.665C73.9902 203.695 74.0702 202.9 74.1652 202.9Z" fill="#FAFAFA"/>
<path d="M73.555 202.825C73.65 202.825 73.73 203.615 73.73 204.585C73.73 205.555 73.65 206.35 73.555 206.35C73.46 206.35 73.375 205.56 73.375 204.585C73.375 203.61 73.455 202.825 73.555 202.825Z" fill="#FAFAFA"/>
<path d="M69.8746 204.74C69.8746 204.84 66.6496 204.915 62.6746 204.915C58.6996 204.915 55.4746 204.84 55.4746 204.74C55.4746 204.64 58.6996 204.565 62.6746 204.565C66.6496 204.565 69.8746 204.64 69.8746 204.74Z" fill="#FAFAFA"/>
<path d="M48.0703 219.68V227.2H76.2203V219.68H48.0703Z" fill="#E0E0E0"/>
<path d="M76.5798 225.085C76.5798 225.085 76.5348 225.12 76.4298 225.17C76.3248 225.22 76.1698 225.295 75.9598 225.385C75.3479 225.644 74.7064 225.827 74.0498 225.93C72.9976 226.121 71.912 225.966 70.9548 225.49C70.3626 225.175 69.8577 224.718 69.4848 224.16C69.0567 223.525 68.8787 222.754 68.9848 221.995C69.0462 221.583 69.2191 221.196 69.4848 220.875C69.627 220.699 69.8081 220.559 70.0137 220.465C70.2194 220.372 70.4439 220.327 70.6698 220.335C70.9022 220.354 71.1282 220.421 71.3338 220.531C71.5394 220.641 71.7201 220.792 71.8648 220.975C72.1727 221.338 72.3627 221.786 72.4098 222.26C72.4481 222.748 72.3814 223.238 72.214 223.698C72.0467 224.157 71.7827 224.576 71.4398 224.925C70.7273 225.678 69.7667 226.149 68.7348 226.25C67.6722 226.352 66.6001 226.219 65.5948 225.86C64.5203 225.524 63.5667 224.883 62.8498 224.015C62.48 223.549 62.2572 222.983 62.2098 222.39C62.1799 222.081 62.2181 221.77 62.3218 221.478C62.4255 221.186 62.5921 220.92 62.8098 220.7C63.048 220.471 63.36 220.335 63.6898 220.315C64.0157 220.306 64.3366 220.397 64.6098 220.575C65.1374 220.921 65.5089 221.459 65.6448 222.075C65.7625 222.676 65.7221 223.298 65.5275 223.879C65.333 224.46 64.9909 224.981 64.5348 225.39C63.6411 226.144 62.5313 226.596 61.3648 226.68C60.2591 226.807 59.1391 226.696 58.0798 226.355C57.04 226.028 56.1526 225.337 55.5798 224.41C55.2949 223.97 55.1183 223.469 55.0644 222.947C55.0106 222.426 55.0809 221.899 55.2698 221.41C55.3633 221.165 55.5173 220.947 55.7175 220.778C55.9177 220.608 56.1576 220.492 56.4148 220.44C56.6621 220.395 56.916 220.403 57.1604 220.461C57.4047 220.52 57.6344 220.628 57.8348 220.78C58.1857 221.088 58.4369 221.494 58.5562 221.945C58.6755 222.397 58.6576 222.874 58.5048 223.315C58.2311 224.103 57.7385 224.797 57.0848 225.315C56.0019 226.232 54.6429 226.76 53.2248 226.815C52.3616 226.846 51.5016 226.694 50.7006 226.371C49.8995 226.048 49.1753 225.561 48.5748 224.94C48.4545 224.816 48.341 224.686 48.2348 224.55C48.1972 224.505 48.1638 224.456 48.1348 224.405C48.7291 225.061 49.4393 225.602 50.2298 226C51.1611 226.457 52.1934 226.671 53.2298 226.62C54.5979 226.542 55.9021 226.015 56.9398 225.12C57.5488 224.627 58.0064 223.972 58.2598 223.23C58.3922 222.843 58.4073 222.426 58.3032 222.031C58.1991 221.636 57.9805 221.281 57.6748 221.01C57.5068 220.885 57.315 220.796 57.1112 220.747C56.9074 220.699 56.6959 220.693 56.4898 220.73C56.2807 220.773 56.0863 220.869 55.9251 221.01C55.764 221.15 55.6417 221.329 55.5698 221.53C55.4054 221.972 55.3473 222.446 55.4003 222.914C55.4533 223.382 55.6159 223.831 55.8748 224.225C56.4116 225.082 57.2385 225.717 58.2048 226.015C59.2183 226.336 60.2887 226.439 61.3448 226.315C62.4364 226.234 63.4751 225.812 64.3148 225.11C64.7266 224.739 65.0353 224.268 65.2105 223.742C65.3858 223.216 65.4217 222.654 65.3148 222.11C65.202 221.581 64.8883 221.117 64.4398 220.815C64.2375 220.665 63.989 220.591 63.7378 220.606C63.4865 220.62 63.2483 220.723 63.0648 220.895C62.883 221.079 62.7439 221.3 62.6575 221.544C62.5711 221.788 62.5394 222.048 62.5648 222.305C62.6069 222.83 62.8035 223.331 63.1298 223.745C63.8037 224.559 64.6976 225.161 65.7048 225.48C66.6648 225.825 67.6887 225.957 68.7048 225.865C69.6559 225.773 70.5427 225.344 71.2048 224.655C71.5204 224.339 71.7645 223.959 71.9206 223.541C72.0767 223.122 72.1412 222.675 72.1098 222.23C72.0929 221.825 71.9393 221.438 71.6741 221.132C71.409 220.826 71.0478 220.619 70.6498 220.545C70.4645 220.539 70.2802 220.576 70.1112 220.652C69.9422 220.728 69.7929 220.842 69.6748 220.985C69.4309 221.269 69.27 221.615 69.2098 221.985C69.1075 222.685 69.2697 223.398 69.6648 223.985C70.0115 224.519 70.4835 224.96 71.0398 225.27C71.9636 225.744 73.0147 225.91 74.0398 225.745C74.6885 225.656 75.3256 225.497 75.9398 225.27C76.3598 225.165 76.5748 225.07 76.5798 225.085Z" fill="#FAFAFA"/>
<path d="M50.585 206.615V219.665H76.22V206.615H50.585Z" fill="#EBEBEB"/>
<path d="M54.845 207.065C54.94 207.065 55.02 209.89 55.02 213.38C55.02 216.87 54.94 219.695 54.845 219.695C54.75 219.695 54.665 216.87 54.665 213.38C54.665 209.89 54.745 207.065 54.845 207.065Z" fill="#E0E0E0"/>
<path d="M56.7904 206.9C56.8854 206.9 56.9654 209.695 56.9654 213.135C56.9654 216.575 56.8854 219.37 56.7904 219.37C56.6954 219.37 56.6104 216.58 56.6104 213.135C56.6104 209.69 56.6904 206.9 56.7904 206.9Z" fill="#E0E0E0"/>
<path d="M73.3245 206.5C73.4195 206.5 73.4995 209.44 73.4995 213.07C73.4995 216.7 73.4195 219.635 73.3245 219.635C73.2295 219.635 73.1445 216.695 73.1445 213.07C73.1445 209.445 73.2245 206.5 73.3245 206.5Z" fill="#E0E0E0"/>
<path d="M71.0404 206.66C71.1354 206.66 71.2153 209.52 71.2153 213.055C71.2153 216.59 71.1354 219.45 71.0404 219.45C70.9454 219.45 70.8604 216.59 70.8604 213.055C70.8604 209.52 70.9404 206.66 71.0404 206.66Z" fill="#E0E0E0"/>
<path d="M209.035 178.13C211.695 176.755 214.82 176.58 217.775 177.065C219.36 177.33 221.01 177.8 222.09 178.995C223.17 180.19 223.37 182.28 222.135 183.3C221.395 183.91 220.37 184.005 219.41 183.99C217.1 183.965 214.54 183.56 212.695 184.95C211.64 185.74 210.94 187.06 209.695 187.45C208.45 187.84 207.075 187.105 206.425 185.995C205.824 184.837 205.691 183.493 206.055 182.24C206.202 181.372 206.547 180.549 207.064 179.837C207.581 179.124 208.255 178.54 209.035 178.13Z" fill="#EBEBEB"/>
<path d="M202.945 166.375C204.57 168.695 207.73 167.925 209.195 166.51C210.66 165.095 211.28 163.04 211.84 161.08C213.13 156.61 214.425 151.915 213.47 147.36C213.241 145.978 212.634 144.687 211.715 143.63C211.251 143.109 210.658 142.718 209.995 142.497C209.333 142.276 208.625 142.232 207.94 142.37C206.35 142.795 205.36 144.37 204.645 145.835C202.538 150.217 201.433 155.013 201.41 159.875C201.41 162.135 201.67 164.505 202.945 166.375Z" fill="#EBEBEB"/>
<path d="M198.5 169.705C200.265 167.61 200.6 164.555 199.815 161.935C199.03 159.315 197.255 157.075 195.21 155.255C192.804 153.113 190.004 151.46 186.965 150.39C185.79 149.917 184.526 149.702 183.26 149.76C182.627 149.797 182.013 149.987 181.471 150.316C180.929 150.645 180.475 151.101 180.15 151.645C179.28 153.3 180.115 155.305 181.015 156.945C182.601 159.828 184.41 162.583 186.425 165.185C188.05 167.28 189.925 169.345 192.38 170.29C194.835 171.235 197.425 171.12 198.735 169.405" fill="#EBEBEB"/>
<path d="M202.835 201.385C202.92 201.039 202.971 200.686 202.985 200.33C203.06 199.565 203.15 198.6 203.265 197.455C203.408 196.037 203.623 194.626 203.91 193.23C204.286 191.525 204.799 189.853 205.445 188.23C206.078 186.618 206.935 185.103 207.99 183.73C208.849 182.611 209.948 181.697 211.205 181.055C212.059 180.635 212.973 180.35 213.915 180.21C214.269 180.199 214.621 180.149 214.965 180.06C214.609 180.021 214.25 180.021 213.895 180.06C212.917 180.134 211.96 180.383 211.07 180.795C209.747 181.42 208.587 182.343 207.68 183.49C206.577 184.884 205.687 186.434 205.04 188.09C204.394 189.732 203.892 191.426 203.54 193.155C203.267 194.568 203.079 195.995 202.975 197.43C202.885 198.65 202.85 199.64 202.835 200.325C202.797 200.677 202.797 201.033 202.835 201.385Z" fill="#E0E0E0"/>
<path d="M203.035 199.17C203.065 199.005 203.075 198.837 203.065 198.67C203.065 198.305 203.065 197.84 203.065 197.27C203.065 196.06 203.065 194.3 203.125 192.13C203.235 187.79 203.625 183.13 204.33 176.53C205.015 170.34 205.93 163.13 206.9 158.445C207.105 157.38 207.315 156.42 207.515 155.58C207.715 154.74 207.86 154.015 208.015 153.43C208.17 152.845 208.255 152.43 208.34 152.07C208.385 151.906 208.415 151.739 208.43 151.57C208.354 151.715 208.296 151.87 208.26 152.03C208.15 152.38 208.015 152.825 207.85 153.37C207.685 153.915 207.485 154.67 207.275 155.51C207.065 156.35 206.825 157.305 206.6 158.37C205.399 163.911 204.496 169.512 203.895 175.15C203.175 181.75 202.85 187.76 202.82 192.11C202.795 194.285 202.82 196.045 202.895 197.26C202.93 197.83 202.96 198.295 202.98 198.66C202.977 198.832 202.996 199.003 203.035 199.17Z" fill="#E0E0E0"/>
<path d="M203.065 187.58C203.103 187.094 203.103 186.606 203.065 186.12C203.01 185.18 202.88 183.82 202.615 182.16C202.297 180.214 201.867 178.287 201.33 176.39C200.7 174.055 199.892 171.772 198.915 169.56C197.242 165.482 194.842 161.743 191.83 158.525C191.305 157.975 190.748 157.458 190.16 156.975C189.905 156.76 189.66 156.545 189.45 156.375L188.805 155.93C188.416 155.633 188.003 155.369 187.57 155.14C187.5 155.235 189.315 156.3 191.605 158.74C194.518 161.986 196.855 165.707 198.515 169.74C199.471 171.937 200.277 174.195 200.93 176.5C201.565 178.62 201.985 180.57 202.305 182.21C202.625 183.85 202.78 185.21 202.885 186.135C202.906 186.621 202.967 187.104 203.065 187.58Z" fill="#E0E0E0"/>
<path d="M191.085 206.265L192.25 222.175H212.685L213.85 206.265H191.085Z" fill="#EBEBEB"/>
<path d="M216.285 199.995H189.11V206.265H216.285V199.995Z" fill="#EBEBEB"/>
<path d="M189.11 221.565V223.305H190.39H215.84V221.565H189.11Z" fill="#E0E0E0"/>
<path d="M191.64 226.17L190.39 223.115H214.865L213.405 226.17H191.64Z" fill="#E0E0E0"/>
<path d="M213.47 211.465C213.445 211.517 213.413 211.566 213.375 211.61C213.29 211.72 213.19 211.85 213.07 212.015L211.875 213.54L211.825 213.61L211.775 213.535C211.025 212.5 210.025 211.12 208.85 209.49H209L206.12 213.57L206.03 213.695L205.93 213.575L202.53 209.5H202.725L202.54 209.735L199.5 213.575L199.395 213.705L199.305 213.57C198.265 212.105 197.305 210.73 196.42 209.495H196.59L193.04 213.54L192.98 213.61L192.93 213.53L191.82 211.665C191.7 211.46 191.61 211.295 191.535 211.165C191.498 211.11 191.468 211.052 191.445 210.99C191.491 211.037 191.532 211.089 191.565 211.145L191.88 211.645L193.045 213.48H192.935L196.435 209.385L196.52 209.285L196.6 209.395L199.51 213.455H199.31L202.36 209.62L202.545 209.38L202.645 209.26L202.745 209.38L206.15 213.45H205.96L208.87 209.39L208.955 209.27L209.035 209.39L211.9 213.48H211.795C212.32 212.85 212.73 212.355 213.035 211.98L213.365 211.595C213.425 211.5 213.465 211.46 213.47 211.465Z" fill="#F5F5F5"/>
<path d="M214.135 206.16C214.135 206.23 209.01 206.285 202.695 206.285C196.38 206.285 191.255 206.23 191.255 206.16C191.255 206.09 196.375 206.035 202.695 206.035C209.015 206.035 214.135 206.09 214.135 206.16Z" fill="#F5F5F5"/>
<path d="M97.6048 40.4199C97.6048 40.4199 97.5598 40.4199 97.4848 40.3849L97.1548 40.2549L95.8948 39.7299L91.2698 37.7299L76.0698 31.1099L75.5398 30.8749H75.6498L60.7548 37.2699L56.2548 39.1599L55.0248 39.6599C54.8847 39.7242 54.7391 39.7761 54.5898 39.8149C54.7226 39.7358 54.8613 39.6672 55.0048 39.6099L56.2148 39.0599L60.7148 37.0849L75.5748 30.6399H75.6298H75.6848L76.2148 30.8699L91.3848 37.5699L95.9698 39.6249L97.2098 40.1999L97.5298 40.3549C97.5573 40.3736 97.5825 40.3954 97.6048 40.4199Z" fill="#E0E0E0"/>
<path d="M121.315 38.24H23.6699V111.355H121.315V38.24Z" fill="#E0E0E0"/>
<path d="M118.27 41.6399H27.085V108.35H118.27V41.6399Z" fill="#FAFAFA"/>
<path d="M47.2246 70.7849C47.2246 70.7849 47.3196 81.9799 47.8896 85.3999L61.9346 84.7349C61.9346 84.7349 60.7046 73.7349 61.1796 70.7849H47.2246Z" fill="#E0E0E0"/>
<path d="M54.1445 72.365H54.3495C54.545 72.3577 54.7408 72.3678 54.9345 72.395C55.2423 72.4406 55.5419 72.5299 55.8245 72.66C56.1986 72.8452 56.5292 73.1077 56.7945 73.43C57.1206 73.8219 57.3517 74.2839 57.4695 74.78C57.5794 75.3608 57.5292 75.9605 57.3245 76.515C57.2199 76.8165 57.0877 77.1077 56.9295 77.385C56.7617 77.6671 56.6114 77.9593 56.4795 78.26C56.1995 78.8976 56.0077 79.5705 55.9095 80.26V80.305H55.8645H54.4795H53.0245H52.9695V80.255C52.9072 79.5689 52.6752 78.9091 52.2945 78.335C52.1245 78.045 51.9395 77.78 51.7945 77.505C51.613 77.2461 51.4461 76.9774 51.2945 76.7C51.038 76.1688 50.9608 75.5688 51.0745 74.99C51.1561 74.4903 51.3418 74.0133 51.6195 73.59C51.8566 73.2498 52.1678 72.9677 52.5295 72.765C52.9761 72.5281 53.4659 72.3835 53.9695 72.34H54.1695C54.1695 72.34 54.1695 72.34 54.1195 72.34H53.9695C53.7787 72.3625 53.5898 72.3993 53.4045 72.45C53.1089 72.5271 52.8247 72.6432 52.5595 72.795C52.2057 72.9949 51.9029 73.2738 51.6745 73.61C51.4163 74.0296 51.2461 74.4975 51.1745 74.985C51.0654 75.5459 51.1427 76.1271 51.3945 76.64C51.5476 76.9133 51.7145 77.1786 51.8945 77.435C52.0695 77.7 52.2545 77.975 52.4245 78.265C52.8192 78.8522 53.0583 79.5301 53.1195 80.235L53.0645 80.18H54.5195H55.9095L55.8545 80.23C55.9545 79.5317 56.1496 78.8503 56.4345 78.205C56.5718 77.9019 56.7253 77.6064 56.8945 77.32C57.0498 77.0489 57.1803 76.7645 57.2845 76.47C57.4869 75.9325 57.5405 75.3504 57.4395 74.785C57.3255 74.3009 57.1052 73.8483 56.7945 73.46C56.5366 73.1416 56.2146 72.881 55.8495 72.695C55.5728 72.5612 55.278 72.4685 54.9745 72.42C54.7841 72.3908 54.5921 72.3741 54.3995 72.37H54.2445C54.1645 72.37 54.1445 72.37 54.1445 72.365Z" fill="white"/>
<path d="M54.8646 80.17C54.8636 80.155 54.8636 80.1399 54.8646 80.125V79.995C54.8646 79.88 54.8196 79.71 54.7896 79.495C54.7246 79.055 54.6296 78.425 54.5696 77.64C54.5696 77.445 54.5396 77.24 54.5346 77.025C54.522 76.8001 54.522 76.5748 54.5346 76.35C54.54 76.1087 54.5926 75.8709 54.6896 75.65C54.7976 75.4113 54.9899 75.2208 55.2296 75.115C55.3572 75.0613 55.4979 75.0465 55.6339 75.0723C55.77 75.0981 55.8954 75.1633 55.9946 75.26C56.0474 75.3088 56.089 75.3685 56.1166 75.435C56.1442 75.5014 56.1572 75.573 56.1546 75.645C56.1517 75.7898 56.1027 75.9299 56.0146 76.045C55.9242 76.1618 55.8078 76.256 55.6746 76.32C55.5424 76.3821 55.403 76.4274 55.2596 76.455C54.6738 76.5747 54.0721 76.595 53.4796 76.515C53.333 76.495 53.19 76.4546 53.0546 76.395C52.9225 76.3356 52.8036 76.2506 52.7046 76.145C52.6031 76.0392 52.5323 75.9078 52.4996 75.765C52.4681 75.625 52.4858 75.4784 52.5496 75.35C52.6075 75.2205 52.7132 75.1184 52.8446 75.065C52.907 75.0381 52.9742 75.0243 53.0421 75.0243C53.11 75.0243 53.1772 75.0381 53.2396 75.065C53.3603 75.1197 53.464 75.2061 53.5396 75.315C53.61 75.4218 53.6608 75.5403 53.6896 75.665C53.732 75.9027 53.7554 76.1435 53.7596 76.385L53.8296 77.67C53.8646 78.455 53.8996 79.09 53.9196 79.535C53.9196 79.75 53.9196 79.92 53.9196 80.035V80.21C53.9207 80.195 53.9207 80.1799 53.9196 80.165C53.9196 80.135 53.9196 80.09 53.9196 80.035C53.9196 79.98 53.9196 79.745 53.8896 79.535C53.8896 79.09 53.8246 78.455 53.7796 77.67C53.7796 77.28 53.7346 76.85 53.7096 76.385C53.7064 76.1465 53.6813 75.9088 53.6346 75.675C53.6101 75.5553 53.5626 75.4415 53.4946 75.34C53.4204 75.2381 53.3226 75.1558 53.2096 75.1C53.1519 75.0753 53.0898 75.0626 53.0271 75.0626C52.9644 75.0626 52.9023 75.0753 52.8446 75.1C52.7229 75.1506 52.6247 75.2452 52.5696 75.365C52.512 75.4864 52.4962 75.6235 52.5246 75.755C52.5583 75.888 52.6254 76.0102 52.7196 76.11C52.9225 76.3101 53.1865 76.4368 53.4696 76.47C53.7629 76.5084 54.059 76.5218 54.3546 76.51C54.6503 76.5022 54.9447 76.4687 55.2346 76.41C55.375 76.3831 55.5112 76.3377 55.6396 76.275C55.7663 76.2141 55.8774 76.1252 55.9646 76.015C56.0472 75.9069 56.0943 75.7759 56.0996 75.64C56.0993 75.5738 56.0859 75.5084 56.0602 75.4474C56.0344 75.3865 55.9968 75.3313 55.9496 75.285C55.8555 75.1952 55.7377 75.1344 55.6101 75.1096C55.4825 75.0847 55.3504 75.097 55.2296 75.145C55.0076 75.2452 54.8298 75.423 54.7296 75.645C54.6345 75.863 54.5819 76.0972 54.5746 76.335C54.5746 76.565 54.5746 76.785 54.5746 77C54.5746 77.215 54.5746 77.42 54.6096 77.62C54.6696 78.405 54.7596 79.035 54.8146 79.47C54.8446 79.69 54.8696 79.855 54.8846 79.97V80.1C54.8807 80.124 54.874 80.1475 54.8646 80.17Z" fill="white"/>
<path d="M53 80.2449C53.0228 80.3989 53.0361 80.5542 53.04 80.7099C53.04 81.0432 53.06 81.4482 53.1 81.9249V81.8949L54.05 82.9999H54L55.095 82.9399H55.05L55.59 82.2799L55.865 81.9449V81.9899C55.865 81.3449 55.835 80.7399 55.825 80.1899L55.885 80.2449H53.84H53C53.0647 80.2357 53.1303 80.2357 53.195 80.2449L53.77 80.2149L55.85 80.1349H55.91V80.1949C55.91 80.7499 55.945 81.3549 55.965 81.9949V81.9999C55.875 82.1099 55.785 82.2249 55.69 82.3349L55.145 82.9999H55.115L54.02 83.0549H54L53.07 81.9499C53.07 81.4499 53.07 81.0499 53.07 80.6999C53.0377 80.5497 53.0143 80.3978 53 80.2449Z" fill="white"/>
<path d="M55.8402 81.8249C55.8402 81.8249 55.8002 81.8249 55.7352 81.7799C55.6422 81.7383 55.547 81.7015 55.4502 81.6699C55.1292 81.5578 54.79 81.5069 54.4502 81.5199C54.1067 81.5274 53.7677 81.5986 53.4502 81.7299L53.1752 81.8599L53.0752 81.9099C53.101 81.8829 53.1315 81.8609 53.1652 81.8449C53.2538 81.791 53.3457 81.7426 53.4402 81.6999C53.7555 81.5599 54.0953 81.4834 54.4402 81.4749C54.7812 81.4623 55.1213 81.5184 55.4402 81.6399C55.5366 81.6743 55.6302 81.7161 55.7202 81.7649L55.8402 81.8249Z" fill="white"/>
<path d="M55.8352 81.39L55.7352 81.345L55.4502 81.23C55.1284 81.1209 54.7898 81.0701 54.4502 81.08C54.1073 81.0923 53.7691 81.1633 53.4502 81.29C53.3302 81.34 53.2402 81.385 53.1752 81.42L53.0752 81.47L53.1652 81.405C53.253 81.3511 53.345 81.3043 53.4402 81.265C53.7551 81.1232 54.095 81.045 54.4402 81.035C54.7809 81.0273 55.12 81.0833 55.4402 81.2C55.5602 81.25 55.6552 81.295 55.7202 81.33C55.7852 81.365 55.8402 81.385 55.8352 81.39Z" fill="white"/>
<path d="M55.8098 80.97L55.7098 80.93C55.6398 80.9 55.5448 80.855 55.4248 80.815C55.103 80.7061 54.7644 80.6553 54.4248 80.665C54.0813 80.6718 53.7421 80.743 53.4248 80.875C53.3048 80.925 53.2148 80.97 53.1498 81.005L53.0498 81.055L53.1398 80.99C53.2278 80.9351 53.3198 80.8866 53.4148 80.845C53.7309 80.7075 54.0703 80.6312 54.4148 80.62C54.7555 80.6128 55.0945 80.6687 55.4148 80.785C55.511 80.8218 55.6046 80.8652 55.6948 80.915C55.7364 80.9256 55.7755 80.9443 55.8098 80.97Z" fill="white"/>
<path d="M31.585 52.5C31.585 52.5 31.68 63.7 32.25 67.115L46.295 66.45C46.295 66.45 45.06 55.45 45.535 52.5H31.585Z" fill="#EBEBEB"/>
<path d="M43.4202 57.1799C41.8613 57.4107 40.2904 57.5509 38.7152 57.5999C37.1447 57.7447 35.5667 57.7931 33.9902 57.7449C35.5495 57.5171 37.1203 57.3769 38.6952 57.3249C40.2662 57.1861 41.8438 57.1377 43.4202 57.1799Z" fill="white"/>
<path d="M43.4201 59.5499C41.8616 59.7847 40.2905 59.9266 38.7151 59.9749C37.1459 60.1137 35.5699 60.1621 33.9951 60.1199C35.554 59.8888 37.125 59.7486 38.7001 59.6999C40.2692 59.5582 41.8452 59.5081 43.4201 59.5499Z" fill="white"/>
<path d="M41.035 61.88C40.1541 62.07 39.2562 62.1705 38.355 62.18C37.4607 62.271 36.5594 62.271 35.665 62.18C36.5443 61.9902 37.4405 61.8896 38.34 61.88C39.2361 61.7889 40.139 61.7889 41.035 61.88Z" fill="white"/>
<path d="M30.9199 85.4249C30.9199 85.4249 31.0149 96.6199 31.5849 100.04L45.6299 99.3749C45.6299 99.3749 44.3949 88.3749 44.8699 85.4249H30.9199Z" fill="#EBEBEB"/>
<path d="M42.7551 90.1249C41.1965 90.359 39.6254 90.5009 38.0501 90.5499C36.4808 90.6887 34.9049 90.7371 33.3301 90.6949C34.8872 90.4636 36.4566 90.3234 38.0301 90.2749C39.6008 90.1331 41.1785 90.083 42.7551 90.1249Z" fill="white"/>
<path d="M42.7551 92.5C41.1963 92.7314 39.6252 92.8716 38.0501 92.92C36.4808 93.0588 34.9049 93.1072 33.3301 93.065C34.8889 92.8339 36.4599 92.6936 38.0351 92.645C39.6043 92.5062 41.1803 92.4578 42.7551 92.5Z" fill="white"/>
<path d="M40.37 94.8299C39.4908 95.0194 38.5944 95.1183 37.695 95.1249C36.7998 95.2243 35.8969 95.2327 35 95.1499C35.8793 94.9601 36.7755 94.8596 37.675 94.8499C38.5703 94.7505 39.4734 94.7438 40.37 94.8299Z" fill="white"/>
<path d="M69.3047 55.4449L70.6947 87.7449L111.015 88.2299L109.205 55.8699L69.3047 55.4449Z" fill="#EBEBEB"/>
<path d="M108.89 55.215H68.835V85.46H108.89V55.215Z" fill="#F5F5F5"/>
<path d="M108.889 85.46C108.889 85.46 108.889 85.265 108.889 84.895C108.889 84.525 108.889 83.985 108.889 83.285C108.889 81.865 108.889 79.785 108.859 77.165C108.859 71.89 108.824 64.345 108.799 55.215L108.914 55.325H68.8644L69.0044 55.19C69.0044 66.065 69.0044 76.365 69.0044 85.435L68.8794 85.31L97.7694 85.37L105.989 85.405H108.174H108.739H108.934H108.199L105.999 85.5L97.8145 85.535L68.8145 85.595H68.6895V85.475C68.6895 76.405 68.6895 66.105 68.6895 55.23V55.09H68.8295H108.879H108.999V55.205C108.999 64.36 108.954 71.935 108.939 77.205C108.939 79.83 108.939 81.885 108.909 83.3C108.909 83.99 108.909 84.52 108.909 84.89C108.899 85.28 108.889 85.46 108.889 85.46Z" fill="#E0E0E0"/>
<path d="M89.9049 61.62H73.6699V82.055H89.9049V61.62Z" fill="#F5F5F5"/>
<path d="M89.9045 82.055C89.899 82.0202 89.899 81.9847 89.9045 81.95V81.66C89.9045 81.39 89.9045 81.02 89.9045 80.545C89.9045 79.545 89.9045 78.14 89.8745 76.35C89.8745 72.755 89.8345 67.665 89.8095 61.62L89.9345 61.745H73.6995C73.6645 61.745 73.9595 61.485 73.8345 61.61V67.165C73.8345 68.98 73.8345 70.75 73.8345 72.465C73.8345 75.9 73.8345 79.115 73.8345 82.035L73.7245 81.92L85.4795 81.98L88.7745 82.01H89.6495H89.9595C89.8647 82.0169 89.7694 82.0169 89.6745 82.01H88.8245L85.5495 82.04L73.7245 82.1H73.6095V81.985C73.6095 79.065 73.6095 75.85 73.6095 72.415C73.6095 70.7 73.6095 68.915 73.6095 67.115V61.63C73.4845 61.75 73.7745 61.455 73.7495 61.49H89.9845H90.1095V61.615C90.0845 67.69 90.0595 72.81 90.0445 76.425L90.0145 80.59C90.0145 81.0566 90.0145 81.4216 90.0145 81.685C90.0145 81.795 90.0145 81.885 90.0145 81.96C89.9818 81.9959 89.9448 82.0278 89.9045 82.055Z" fill="#E0E0E0"/>
<path d="M105.405 56.9449H74.29V59.8899H105.405V56.9449Z" fill="#F5F5F5"/>
<path d="M105.405 59.89C105.405 59.89 105.405 59.815 105.405 59.69C105.405 59.565 105.405 59.355 105.405 59.115C105.405 58.615 105.405 57.88 105.37 56.945L105.425 57C100.18 57.05 88.2197 57.085 74.3097 57.085C74.5847 56.805 74.3847 57.005 74.4497 56.945V59.88L74.3147 59.74L96.3697 59.8L102.99 59.84H104.79H105.265C105.32 59.8359 105.375 59.8359 105.43 59.84H105.285H104.83H103.06L96.4697 59.885L74.3147 59.94H74.1797V59.805C74.1797 59.335 74.1797 58.85 74.1797 58.36V56.86L74.3197 56.72C88.2297 56.72 100.19 56.755 105.435 56.805H105.495V56.86C105.495 57.805 105.495 58.545 105.465 59.065C105.465 59.3 105.465 59.48 105.465 59.62C105.461 59.7128 105.44 59.8042 105.405 59.89Z" fill="#E0E0E0"/>
<path d="M105.405 61.62H91.8896V73.935H105.405V61.62Z" fill="#F5F5F5"/>
<path d="M105.405 73.9349C105.405 73.9349 105.405 73.8499 105.405 73.6999V73.0299C105.405 72.4299 105.405 71.5849 105.375 70.5299C105.375 68.3599 105.34 65.3049 105.315 61.6299L105.43 61.7499H91.9295L92.0645 61.6149V64.9199C92.0645 65.9999 92.0645 67.0599 92.0645 68.0949C92.0645 70.1599 92.0645 72.0949 92.0645 73.9249L91.9395 73.8049L101.69 73.8649L104.455 73.8999H105.195C105.281 73.8926 105.368 73.8926 105.455 73.8999C105.376 73.9071 105.298 73.9071 105.22 73.8999H104.505L101.77 73.9299L91.9395 73.9899H91.8195V73.8649C91.8195 72.0599 91.8195 70.0999 91.8195 68.0349C91.8195 66.9999 91.8195 65.9399 91.8195 64.8599V61.5549C91.6945 61.6749 91.9845 61.3849 91.9595 61.4149H105.46H105.58V61.5299C105.555 65.2349 105.535 68.3199 105.52 70.5299C105.52 71.5799 105.495 72.4149 105.49 73.0299C105.49 73.2932 105.49 73.5082 105.49 73.6749C105.473 73.7651 105.445 73.8525 105.405 73.9349Z" fill="#E0E0E0"/>
<path d="M105.405 75.865H91.8896V82.055H105.405V75.865Z" fill="#F5F5F5"/>
<path d="M105.405 82.055C105.405 82.055 105.405 81.895 105.405 81.605L105.38 80.365C105.38 79.27 105.35 77.745 105.325 75.865L105.425 75.965L91.9252 76.005C91.8002 76.13 92.0902 75.835 92.0602 75.87V79.055C92.0602 80.09 92.0602 81.095 92.0602 82.055L91.9252 81.925L101.59 81.985L104.41 82.025H105.17H105.44C105.36 82.0323 105.28 82.0323 105.2 82.025H104.465L101.68 82.065L91.9252 82.125H91.7952V81.995C91.7952 81.035 91.7952 80.03 91.7952 78.995V75.81C91.7652 75.81 92.0552 75.545 91.9352 75.67L105.435 75.705H105.5V75.805C105.5 77.71 105.46 79.26 105.45 80.365C105.45 80.865 105.45 81.28 105.45 81.585C105.45 81.7427 105.435 81.9001 105.405 82.055Z" fill="#E0E0E0"/>
<path d="M89.5 61.6549C84.47 68.5999 78.69 75.1099 73.665 82.0549L89.5 61.6549Z" fill="white"/>
<path d="M73.6699 82.0549C73.6699 82.0549 73.7049 81.9699 73.7999 81.8249L74.2249 81.2049C74.5949 80.6649 75.1499 79.8999 75.8499 78.9649C77.2449 77.0849 79.2399 74.5449 81.4799 71.7699C83.7199 68.9949 85.7349 66.4749 87.1649 64.6299L88.8599 62.4449L89.3249 61.8499C89.4349 61.7199 89.4949 61.6499 89.5049 61.6549C89.4687 61.7364 89.4234 61.8135 89.3699 61.8849L88.9449 62.5049C88.5749 63.0449 88.0199 63.8099 87.3199 64.7499C85.9249 66.6249 83.9299 69.1649 81.6899 71.9399C79.4499 74.7149 77.4399 77.2349 76.0049 79.0799L74.3099 81.2699L73.8449 81.8599C73.7944 81.9315 73.7357 81.997 73.6699 82.0549Z" fill="#E0E0E0"/>
<path d="M89.9047 82.0549C89.8447 82.0999 86.1597 77.5549 81.6797 71.9249C77.1997 66.2949 73.6097 61.6699 73.6797 61.6199C73.7497 61.5699 77.4197 66.1199 81.9047 71.7549C86.3897 77.3899 89.9647 81.9999 89.9047 82.0549Z" fill="#E0E0E0"/>
<path d="M70.6952 61.665C70.6952 62.1674 70.5463 62.6584 70.2672 63.0761C69.9881 63.4938 69.5914 63.8194 69.1273 64.0117C68.6631 64.2039 68.1524 64.2542 67.6597 64.1562C67.167 64.0582 66.7144 63.8163 66.3592 63.4611C66.004 63.1058 65.762 62.6532 65.664 62.1605C65.566 61.6678 65.6163 61.1571 65.8086 60.693C66.0008 60.2289 66.3264 59.8322 66.7441 59.5531C67.1618 59.274 67.6529 59.125 68.1552 59.125C68.8285 59.1263 69.4738 59.3944 69.9498 59.8704C70.4259 60.3465 70.6939 60.9918 70.6952 61.665Z" fill="#E0E0E0"/>
<path d="M112.24 55.5C112.24 56.0023 112.091 56.4934 111.812 56.9111C111.533 57.3288 111.136 57.6544 110.672 57.8466C110.208 58.0389 109.697 58.0892 109.205 57.9912C108.712 57.8932 108.259 57.6512 107.904 57.296C107.549 56.9408 107.307 56.4882 107.209 55.9955C107.111 55.5028 107.161 54.9921 107.354 54.5279C107.546 54.0638 107.871 53.6671 108.289 53.388C108.707 53.1089 109.198 52.96 109.7 52.96C110.373 52.9613 111.019 53.2293 111.495 53.7054C111.971 54.1814 112.239 54.8267 112.24 55.5Z" fill="#E0E0E0"/>
<path d="M211.6 73.1899H182.33V115.62H211.6V73.1899Z" fill="#E0E0E0"/>
<path d="M210.135 73.1899H180.865V115.62H210.135V73.1899Z" fill="#F5F5F5"/>
<path d="M206.5 77.7849H184.5V111.025H206.5V77.7849Z" fill="white"/>
<path d="M206.499 111.025C206.499 111.025 206.499 110.965 206.499 110.86C206.499 110.755 206.499 110.595 206.499 110.39C206.499 109.97 206.499 109.36 206.499 108.565C206.499 106.975 206.499 104.65 206.499 101.72C206.499 95.8599 206.499 87.5599 206.464 77.7849L206.539 77.8599H184.499L184.579 77.7799C184.579 90.3199 184.579 101.88 184.579 111.02L184.514 110.955L200.514 110.99H204.939H206.099H206.504H206.114H204.964H200.554L184.504 111.02H184.439V110.96C184.439 101.82 184.439 90.2599 184.439 77.7199V77.6399H184.499H206.499H206.569V77.7099C206.569 87.5049 206.544 95.8199 206.534 101.71C206.534 104.635 206.534 106.95 206.534 108.54C206.534 109.325 206.534 109.93 206.534 110.345C206.534 110.55 206.534 110.7 206.534 110.81L206.499 111.025Z" fill="#E0E0E0"/>
<path d="M210.215 73.1899C210.074 73.4592 209.906 73.7138 209.715 73.9499C209.375 74.4049 208.89 75.0199 208.34 75.6899C207.79 76.3599 207.275 76.9499 206.895 77.3749C206.701 77.6129 206.485 77.8322 206.25 78.0299C206.417 77.772 206.604 77.5279 206.81 77.2999L208.22 75.5899L209.625 73.8799C209.805 73.6358 210.002 73.4052 210.215 73.1899Z" fill="#E0E0E0"/>
<path d="M206.61 110.915C207.702 112.655 208.989 114.266 210.445 115.715L206.61 110.915Z" fill="white"/>
<path d="M210.445 115.715C210.202 115.537 209.979 115.332 209.78 115.105C209.269 114.587 208.785 114.043 208.33 113.475C207.876 112.907 207.45 112.316 207.055 111.705C206.879 111.458 206.73 111.193 206.61 110.915C206.807 111.144 206.987 111.386 207.15 111.64C207.47 112.095 207.925 112.71 208.455 113.375C208.985 114.04 209.49 114.615 209.86 115.03C210.073 115.243 210.268 115.472 210.445 115.715Z" fill="#E0E0E0"/>
<path d="M180.86 115.585L184.695 110.855L180.86 115.585Z" fill="white"/>
<path d="M184.695 110.855C184.725 110.855 183.895 111.965 182.84 113.27C182.215 114.076 181.547 114.849 180.84 115.585C182.034 113.942 183.315 112.363 184.675 110.855H184.695Z" fill="#E0E0E0"/>
<path d="M180.865 73.1899C181.522 73.9 182.143 74.6426 182.725 75.4149C183.346 76.1573 183.925 76.9335 184.46 77.7399C183.801 77.0266 183.18 76.2789 182.6 75.4999C181.978 74.7639 181.399 73.9926 180.865 73.1899Z" fill="#E0E0E0"/>
<path d="M199.645 84.5349H192.28V105.45H199.645V84.5349Z" fill="#E0E0E0"/>
<path d="M204.854 28.1059L200.664 28.1285L200.777 48.9782L204.967 48.9556L204.854 28.1059Z" fill="#E0E0E0"/>
<path d="M175.215 28.1614L164.365 28.2201L164.428 39.7299L175.277 39.6712L175.215 28.1614Z" fill="#EBEBEB"/>
<path d="M186.009 28.1079L175.159 28.1666L175.221 39.6765L186.071 39.6178L186.009 28.1079Z" fill="#F5F5F5"/>
<path d="M164.38 31.41C171.59 31.47 178.82 31.41 186.03 31.31C186.061 31.31 186.09 31.2978 186.112 31.2763C186.133 31.2547 186.145 31.2255 186.145 31.195C186.145 31.1645 186.133 31.1352 186.112 31.1136C186.09 31.0921 186.061 31.08 186.03 31.08C178.814 31.04 171.597 31.0833 164.38 31.21C164.354 31.21 164.328 31.2205 164.31 31.2392C164.291 31.258 164.28 31.2834 164.28 31.31C164.28 31.3365 164.291 31.3619 164.31 31.3807C164.328 31.3994 164.354 31.41 164.38 31.41Z" fill="#E0E0E0"/>
<path d="M177.311 39.4849L157.597 39.5916L157.647 48.9714L177.362 48.8647L177.311 39.4849Z" fill="#EBEBEB"/>
<path d="M196.935 39.3787L177.221 39.4854L177.271 48.8652L196.986 48.7585L196.935 39.3787Z" fill="#F5F5F5"/>
<path d="M157.61 42.2049C170.71 42.3549 183.85 42.2049 196.945 42.0099C196.975 42.0099 197.005 41.9978 197.026 41.9762C197.048 41.9546 197.06 41.9254 197.06 41.8949C197.06 41.8644 197.048 41.8351 197.026 41.8136C197.005 41.792 196.975 41.7799 196.945 41.7799C183.845 41.7099 170.705 41.7199 157.61 42.0049C157.583 42.0049 157.558 42.0154 157.539 42.0342C157.52 42.0529 157.51 42.0784 157.51 42.1049C157.51 42.1314 157.52 42.1569 157.539 42.1756C157.558 42.1944 157.583 42.2049 157.61 42.2049Z" fill="#E0E0E0"/>
<path d="M226.62 48.975H150.24V52.335H226.62V48.975Z" fill="#E0E0E0"/>
<path d="M165.845 50.59H162.745V62.055H165.845V50.59Z" fill="#E0E0E0"/>
<path d="M212.13 50.59H209.03V62.055H212.13V50.59Z" fill="#E0E0E0"/>
<path d="M208.942 20.3338L204.752 20.3564L204.907 49.031L209.097 49.0084L208.942 20.3338Z" fill="#EBEBEB"/>
<path d="M215.49 25.6733L208.98 25.7085L209.106 48.9482L215.616 48.9129L215.49 25.6733Z" fill="#F5F5F5"/>
<path d="M215.445 30.1549C213.281 30.3078 211.109 30.3078 208.945 30.1549C211.11 30.0087 213.281 30.0087 215.445 30.1549Z" fill="#E0E0E0"/>
<path d="M215.445 29.18C213.281 29.3328 211.109 29.3328 208.945 29.18C211.11 29.0338 213.281 29.0338 215.445 29.18Z" fill="#E0E0E0"/>
<path d="M215.445 45.42C213.281 45.5728 211.109 45.5728 208.945 45.42C211.11 45.2737 213.281 45.2737 215.445 45.42Z" fill="#E0E0E0"/>
<path d="M215.445 44.445C213.281 44.5978 211.109 44.5978 208.945 44.445C211.11 44.2988 213.281 44.2988 215.445 44.445Z" fill="#E0E0E0"/>
<path d="M212.295 42.315C212.23 42.315 212.18 39.97 212.18 37.08C212.18 34.19 212.23 31.845 212.295 31.845C212.36 31.845 212.405 34.19 212.405 37.08C212.405 39.97 212.355 42.315 212.295 42.315Z" fill="#E0E0E0"/>
<path d="M222.6 31.3849H215.515V48.9249H222.6V31.3849Z" fill="#EBEBEB"/>
<path d="M219.26 44.38C219.049 44.3923 218.838 44.3599 218.641 44.2849C218.443 44.2099 218.263 44.094 218.114 43.9449C217.964 43.7957 217.848 43.6166 217.772 43.4193C217.697 43.222 217.663 43.011 217.675 42.8C217.664 42.5701 217.71 42.341 217.811 42.1339C217.911 41.9267 218.062 41.7483 218.25 41.615L218.41 41.84C218.26 41.9497 218.139 42.0946 218.058 42.262C217.977 42.4294 217.938 42.6141 217.945 42.8C217.945 43.1487 218.084 43.4832 218.33 43.7298C218.577 43.9764 218.911 44.115 219.26 44.115C219.609 44.115 219.943 43.9764 220.19 43.7298C220.437 43.4832 220.575 43.1487 220.575 42.8C220.583 42.6135 220.543 42.4282 220.461 42.2606C220.379 42.093 220.257 41.9485 220.105 41.84L220.27 41.615C220.456 41.7501 220.605 41.9291 220.704 42.1358C220.804 42.3426 220.85 42.5708 220.84 42.8C220.852 43.0105 220.819 43.2211 220.743 43.418C220.668 43.615 220.552 43.7938 220.403 43.9429C220.254 44.092 220.075 44.208 219.878 44.2833C219.681 44.3586 219.471 44.3916 219.26 44.38Z" fill="#FAFAFA"/>
<path d="M220.44 41.18L220.205 41.0449C220.451 40.7216 220.583 40.3261 220.58 39.9199C220.58 39.2649 220.345 39 219.995 39C219.085 39 219.755 41.07 218.53 41.07C218.06 41.07 217.675 40.6749 217.675 39.8849C217.669 39.506 217.775 39.1337 217.98 38.8149L218.22 38.955C218.032 39.2298 217.934 39.5567 217.94 39.8899C217.94 40.4999 218.19 40.77 218.525 40.77C219.46 40.77 218.8 38.7 219.99 38.7C220.49 38.7 220.84 39.14 220.84 39.935C220.855 40.3838 220.714 40.8239 220.44 41.18Z" fill="#FAFAFA"/>
<path d="M220.44 38.325L220.205 38.19C220.451 37.8666 220.583 37.4711 220.58 37.065C220.58 36.41 220.345 36.145 219.995 36.145C219.085 36.145 219.755 38.21 218.53 38.21C218.06 38.21 217.675 37.82 217.675 37.03C217.669 36.651 217.775 36.2787 217.98 35.96L218.22 36.095C218.032 36.372 217.934 36.7003 217.94 37.035C217.94 37.645 218.19 37.915 218.525 37.915C219.46 37.915 218.8 35.845 219.99 35.845C220.49 35.845 220.84 36.28 220.84 37.075C220.856 37.5255 220.715 37.9674 220.44 38.325Z" fill="#FAFAFA"/>
<path d="M206.785 26.4449C207.451 26.4449 207.99 25.9054 207.99 25.2399C207.99 24.5744 207.451 24.0349 206.785 24.0349C206.12 24.0349 205.58 24.5744 205.58 25.2399C205.58 25.9054 206.12 26.4449 206.785 26.4449Z" fill="#E0E0E0"/>
<path d="M207.155 28.5499H206.41V45.6099H207.155V28.5499Z" fill="#E0E0E0"/>
<path d="M235.405 227C235.405 227.07 187.11 227.13 127.55 227.13C67.9896 227.13 19.6846 227.08 19.6846 227C19.6846 226.92 67.9696 226.87 127.55 226.87C187.13 226.87 235.405 226.94 235.405 227Z" fill="#263238"/>
<path d="M78.09 55.12C70.065 67.74 70.59 85.24 79.36 97.355C85.205 105.435 93.97 110.855 100.93 117.985C107.89 125.115 113.18 135.64 109.505 144.91C105.765 154.345 94.81 158.18 86.61 164.16C77.5628 170.749 71.4208 180.588 69.4741 191.61C67.5274 202.632 69.9274 213.98 76.17 223.27H161.38C161.38 223.27 176.35 194.745 157.105 173C137.86 151.255 127.525 150.905 128.235 136.645C128.945 122.385 138.925 117.76 144.63 112.41C150.335 107.06 178.13 94.595 161.735 55.115L78.09 55.12Z" fill="#FAFAFA"/>
<path d="M78.0904 55.1199H79.5554H83.8754H100.505L161.735 55.075H161.8V55.1349C163.056 58.1243 164.124 61.1885 165 64.3099C165.921 67.5781 166.527 70.9266 166.81 74.3099C167.105 77.8465 166.924 81.4067 166.27 84.8949C165.553 88.5108 164.253 91.9861 162.42 95.1849C161.471 96.8165 160.398 98.3727 159.21 99.8399C157.998 101.327 156.687 102.73 155.285 104.04C153.866 105.374 152.379 106.634 150.83 107.815C149.28 109.015 147.66 110.145 146.08 111.345C145.29 111.94 144.58 112.61 143.81 113.28C143.04 113.95 142.275 114.575 141.485 115.205C139.91 116.465 138.32 117.705 136.82 119.1C133.69 121.814 131.284 125.264 129.82 129.14C129.117 131.128 128.674 133.198 128.5 135.3C128.455 135.8 128.385 136.35 128.365 136.88C128.345 137.41 128.325 137.94 128.365 138.47C128.377 139.534 128.484 140.595 128.685 141.64C129.082 143.757 129.946 145.759 131.215 147.5C132.522 149.24 134.001 150.843 135.63 152.285C138.865 155.24 142.3 158.065 145.585 161.115C148.87 164.165 152.085 167.345 155.185 170.71C156.767 172.376 158.247 174.135 159.615 175.98C160.993 177.848 162.19 179.841 163.19 181.935C165.214 186.178 166.457 190.751 166.86 195.435C167.268 200.184 166.989 204.966 166.03 209.635C165.565 211.994 164.953 214.322 164.2 216.605C163.46 218.908 162.558 221.155 161.5 223.33L161.465 223.4H76.1004L76.0655 223.345C72.0695 217.329 69.6189 210.42 68.9304 203.23C68.2378 196.324 69.2508 189.353 71.8804 182.93C74.3797 176.79 78.228 171.291 83.1404 166.84C85.5243 164.736 88.0987 162.857 90.8305 161.23C93.4904 159.58 96.1754 158.05 98.7104 156.38C101.248 154.794 103.579 152.899 105.65 150.74C107.629 148.619 109.096 146.074 109.94 143.3C110.681 140.593 110.797 137.753 110.28 134.995C109.787 132.333 108.899 129.76 107.645 127.36C106.446 125.049 105.009 122.871 103.355 120.86C101.76 118.931 100.025 117.121 98.1654 115.445C94.5604 112.125 90.8654 109.22 87.5454 106.235C85.8804 104.735 84.3054 103.235 82.8504 101.7C81.4402 100.197 80.1402 98.5947 78.9604 96.9049C76.8277 93.8061 75.1835 90.398 74.0854 86.8C73.1236 83.6927 72.5657 80.4746 72.4255 77.2249C72.3555 76.4849 72.3854 75.755 72.3854 75.04C72.3854 74.325 72.3854 73.63 72.4504 72.955C72.5154 72.28 72.5504 71.62 72.6004 70.955C72.6504 70.29 72.7855 69.6949 72.8705 69.0899C73.4228 65.4069 74.5499 61.8335 76.2104 58.5C76.4353 57.9843 76.6925 57.4833 76.9805 57L77.5954 55.955C77.9204 55.4 78.0954 55.1199 78.0954 55.1199L77.5954 55.97L77.0004 57C76.7194 57.4854 76.4657 57.9862 76.2404 58.5C74.5949 61.8415 73.4815 65.4197 72.9405 69.105C72.8555 69.705 72.7554 70.3249 72.6804 70.9599C72.6054 71.5949 72.5804 72.2599 72.5304 72.9349C72.4804 73.6099 72.4804 74.305 72.4754 75.0149C72.4704 75.7249 72.4504 76.455 72.5204 77.195C72.6651 80.4339 73.2281 83.6405 74.1954 86.735C75.2922 90.3202 76.9348 93.715 79.0654 96.8C80.2422 98.4827 81.5407 100.077 82.9504 101.57C84.4004 103.11 85.9754 104.61 87.6404 106.07C90.9604 109.07 94.6404 111.945 98.2704 115.27C100.145 116.958 101.893 118.781 103.5 120.725C105.163 122.75 106.609 124.944 107.815 127.27C109.081 129.684 109.978 132.275 110.475 134.955C110.999 137.743 110.883 140.613 110.135 143.35C109.287 146.157 107.806 148.731 105.805 150.875C103.724 153.047 101.383 154.955 98.8354 156.555C96.2904 158.23 93.6054 159.76 90.9504 161.41C88.2303 163.033 85.666 164.905 83.2904 167C78.4082 171.428 74.5825 176.896 72.0954 183C69.4817 189.391 68.4773 196.325 69.1704 203.195C69.8589 210.343 72.2974 217.212 76.2704 223.195L76.1704 223.14H161.38L161.265 223.21C162.321 221.04 163.22 218.798 163.955 216.5C164.705 214.226 165.312 211.909 165.775 209.56C166.729 204.914 167.007 200.155 166.6 195.43C166.205 190.772 164.97 186.224 162.955 182.005C161.962 179.927 160.775 177.946 159.41 176.09C158.045 174.255 156.572 172.502 155 170.84C151.917 167.483 148.722 164.29 145.415 161.26C142.135 158.215 138.71 155.395 135.465 152.425C133.823 150.971 132.33 149.357 131.01 147.605C129.717 145.843 128.83 143.816 128.415 141.67C128.215 140.61 128.107 139.534 128.09 138.455C128.065 137.92 128.09 137.385 128.09 136.85C128.09 136.315 128.18 135.785 128.22 135.255C128.404 133.141 128.858 131.059 129.57 129.06C131.047 125.15 133.475 121.67 136.635 118.935C138.135 117.545 139.74 116.285 141.315 115.03C142.105 114.4 142.88 113.765 143.635 113.115C144.39 112.465 145.135 111.765 145.915 111.165C147.505 109.965 149.12 108.835 150.665 107.64C152.209 106.464 153.693 105.211 155.11 103.885C156.503 102.581 157.807 101.186 159.015 99.7099C160.194 98.2478 161.261 96.7002 162.21 95.08C164.032 91.9032 165.326 88.4516 166.04 84.86C166.691 81.4001 166.874 77.8686 166.585 74.36C166.306 70.9772 165.705 67.6287 164.79 64.36C163.926 61.2299 162.871 58.1557 161.63 55.1549L161.715 55.2099L100.52 55.165H83.8804H79.5505L78.0904 55.1199Z" fill="#263238"/>
<path d="M158.335 78.265C170.885 80.33 151.1 102.56 139.895 111.33C133.395 116.405 126.445 121.915 123.365 129.555C119.865 138.225 122.46 147.965 120.77 156.685C120.716 156.986 120.55 157.255 120.305 157.438C120.061 157.621 119.756 157.705 119.452 157.673C119.148 157.64 118.868 157.494 118.667 157.264C118.466 157.033 118.36 156.735 118.37 156.43C118.45 150.705 118.3 144.985 117.37 139.35C116.025 131.35 112.955 123.455 107.37 117.6C102.795 112.815 96.8004 109.64 91.9254 105.17C84.8054 98.645 77.4904 90.23 76.7754 80.6C76.7754 80.6 90.4454 69.6 98.0354 70.975C106.905 72.6 115.635 86.285 129.375 84.72C138.935 83.625 143.78 75.875 158.335 78.265Z" fill="#122750"/>
<path d="M159.45 197.24C159.135 194.1 158.295 190.55 155.51 189.07C153.825 188.17 151.77 188.27 149.92 188.755C148.07 189.24 146.335 190.085 144.505 190.63C140.868 191.7 136.982 191.575 133.42 190.275C130.015 189.025 127.095 186.775 123.92 184.985C120.745 183.195 117.06 181.885 113.54 182.76C107.47 184.26 104.31 191.58 98.3105 193.345C95.6405 194.125 92.7755 193.685 90.0655 193.075C87.3555 192.465 84.6305 191.67 81.8555 191.775C79.6755 191.855 77.4105 192.61 75.8855 194.1L75.8455 194.145C75.5916 194.394 75.3606 194.665 75.1555 194.955C73.2955 197.455 72.9955 200.77 73.5705 203.8C74.2105 207.195 75.7955 210.33 77.4955 213.335C79.4955 216.875 81.7755 220.395 85.0855 222.755C89.1755 225.67 94.3105 223.66 99.3155 224.055C110.98 224.975 123.53 225.6 135.2 224.7C141.365 224.2 147.14 224.89 152.03 221.105C155.47 218.445 157.71 214.435 158.79 210.225C159.87 206.015 159.885 201.565 159.45 197.24Z" fill="#122750"/>
<g opacity="0.24">
<path d="M137.431 191.23C136.776 192.23 136.491 193.59 137.126 194.61C137.761 195.63 138.626 196.565 138.896 197.74C139.331 199.58 138.221 201.38 137.396 203.085C135.869 206.133 135.292 209.57 135.741 212.95C136.214 216.341 137.965 219.423 140.636 221.565C141.821 222.48 143.361 223.19 144.791 222.74C146.136 222.32 147.001 220.955 147.291 219.57C147.581 218.185 147.336 216.76 147.161 215.365C146.346 208.863 146.515 202.276 147.661 195.825C147.851 194.75 148.031 193.52 147.351 192.665C146.86 192.167 146.237 191.82 145.556 191.665C142.956 190.8 140.151 191.76 137.456 191.25" fill="black"/>
</g>
<path d="M69.9157 227.14C69.9157 227.14 69.6807 223.23 74.7807 221.05H164.406C164.406 221.05 169.081 223.42 169.656 227.05L69.9157 227.14Z" fill="#263238"/>
<path d="M162.5 55.595L162.355 55.66L78.08 55.12C78.08 55.12 77.78 54.93 77.335 54.575C76.8097 54.1634 76.4264 53.5977 76.2389 52.9572C76.0515 52.3167 76.0694 51.6335 76.29 51.0037C76.5106 50.3738 76.9229 49.8289 77.469 49.4453C78.0152 49.0617 78.6677 48.8588 79.335 48.865L161.135 49.525C164.5 49.555 165.56 54.155 162.5 55.595Z" fill="#263238"/>
<g opacity="0.24">
<path d="M149.001 87.745C149.171 88.07 148.536 88.745 147.331 89.845C146.126 90.945 144.331 92.39 142.101 94.205C139.423 96.4171 136.582 98.4229 133.601 100.205C131.749 101.277 129.8 102.173 127.781 102.88C126.686 103.258 125.569 103.567 124.436 103.805C123.245 104.058 122.036 104.215 120.821 104.275C118.357 104.409 115.891 104.07 113.556 103.275C111.491 102.524 109.529 101.516 107.716 100.275C106.036 99.165 104.591 98.065 103.216 97.01C101.841 95.955 100.616 94.94 99.5055 93.98C95.0805 90.145 92.7505 87.325 93.2005 86.78C93.6505 86.235 96.8005 88.01 101.701 91.01L105.701 93.46C107.136 94.33 108.671 95.295 110.241 96.185C111.798 97.0996 113.449 97.8455 115.166 98.41C116.921 98.9358 118.755 99.1524 120.586 99.05C124.426 98.85 128.151 97.5 131.376 95.94C134.601 94.38 137.521 92.56 140.051 91.14C142.053 89.9585 144.146 88.9386 146.311 88.09C147.896 87.535 148.856 87.43 149.001 87.745Z" fill="black"/>
</g>
<path d="M118.431 167.13C118.785 166.989 119.18 166.993 119.532 167.142C119.883 167.29 120.161 167.571 120.307 167.924C120.452 168.276 120.453 168.672 120.309 169.025C120.165 169.378 119.888 169.66 119.538 169.81C119.187 169.96 118.792 169.966 118.437 169.827C118.082 169.688 117.796 169.414 117.641 169.066C117.487 168.718 117.475 168.322 117.61 167.965C117.745 167.609 118.014 167.319 118.361 167.16" fill="#122750"/>
<path d="M88.2907 101.69C88.1811 101.6 88.0806 101.5 87.9907 101.39L87.1757 100.5C86.8307 100.105 86.3757 99.645 85.9107 99.06L84.3207 97.06C83.7757 96.29 83.1607 95.46 82.5407 94.56L81.6257 93.105C81.4707 92.855 81.3057 92.605 81.1557 92.34L80.7157 91.53C79.385 89.1717 78.3425 86.662 77.6107 84.055C76.8753 81.4501 76.4787 78.7613 76.4307 76.055C76.4307 75.43 76.4657 74.825 76.4757 74.23C76.4757 73.935 76.4757 73.645 76.5157 73.36C76.5557 73.075 76.5757 72.795 76.6057 72.52C76.6707 71.97 76.7107 71.435 76.7857 70.925C76.8607 70.415 76.9657 69.925 77.0507 69.47C77.1907 68.535 77.4407 67.72 77.6157 66.97C77.7107 66.61 77.7857 66.27 77.8807 65.97L78.1557 65.135L78.5407 63.99C78.5774 63.8537 78.6277 63.7213 78.6907 63.595C78.6701 63.7344 78.6366 63.8717 78.5907 64.005C78.5057 64.295 78.3957 64.68 78.2507 65.165L78.0007 66C77.9157 66.305 77.8457 66.645 77.7557 67C77.5957 67.725 77.3607 68.545 77.2557 69.5C77.1757 69.96 77.0957 70.445 77.0107 70.95C76.9257 71.455 76.9057 71.985 76.8457 72.535C76.8457 72.81 76.7907 73.085 76.7607 73.37C76.7307 73.655 76.7607 73.945 76.7307 74.235C76.7307 74.825 76.6907 75.425 76.6957 76.045C76.7445 78.7354 77.136 81.4086 77.8607 84C78.5886 86.5879 79.6173 89.0815 80.9257 91.43C81.0707 91.7 81.2157 91.97 81.3557 92.24C81.4957 92.51 81.6707 92.74 81.8207 93L82.7207 94.455C83.3307 95.375 83.9357 96.205 84.4657 96.955L86.0257 98.955C86.4757 99.55 86.9207 100.015 87.2507 100.425L88.0307 101.35C88.1244 101.458 88.2112 101.571 88.2907 101.69Z" fill="#263238"/>
<path d="M83.5459 175.97C83.5707 175.912 83.6008 175.857 83.6359 175.805L83.9359 175.335C84.0709 175.125 84.2359 174.875 84.4359 174.575L84.7509 174.075C84.8759 173.91 85.0209 173.745 85.1659 173.575L86.1659 172.375C86.5509 171.96 86.9909 171.53 87.4559 171.06C88.5341 170.022 89.6799 169.056 90.8859 168.17C93.5409 166.17 96.9659 164.17 100.676 161.825C102.627 160.623 104.502 159.302 106.291 157.87C108.21 156.341 109.905 154.55 111.326 152.55C113.927 148.554 115.34 143.902 115.401 139.135C115.464 135.25 114.813 131.385 113.481 127.735C112.598 125.272 111.49 122.895 110.171 120.635C109.706 119.83 109.326 119.22 109.066 118.805L108.771 118.335C108.706 118.23 108.676 118.17 108.676 118.17C108.72 118.215 108.759 118.265 108.791 118.32L109.111 118.78C109.386 119.18 109.781 119.78 110.256 120.585C111.616 122.833 112.755 125.207 113.656 127.675C115.024 131.341 115.702 135.228 115.656 139.14C115.635 140.268 115.543 141.394 115.381 142.51C115.219 143.678 114.973 144.832 114.646 145.965C113.963 148.363 112.901 150.637 111.501 152.7C110.065 154.722 108.352 156.532 106.411 158.075C104.611 159.508 102.726 160.831 100.766 162.035C97.0409 164.36 93.6109 166.34 90.9559 168.325C89.7502 169.2 88.6012 170.15 87.5159 171.17C87.0509 171.635 86.6059 172.055 86.2159 172.465L85.2159 173.64C85.0659 173.82 84.9209 173.985 84.7959 174.14L84.4709 174.615L83.9709 175.36L83.6509 175.815C83.6201 175.869 83.585 175.921 83.5459 175.97Z" fill="#263238"/>
<path d="M78.8954 184.805C78.8652 184.886 78.8284 184.965 78.7854 185.04L78.4254 185.675C78.2654 185.945 78.0754 186.285 77.8804 186.675C77.6854 187.065 77.4354 187.525 77.2254 188.05C77.1154 188.31 76.9954 188.58 76.8754 188.86C76.7554 189.14 76.6554 189.45 76.5354 189.76C76.2954 190.38 76.1054 191.06 75.8854 191.76C75.0157 194.894 74.7159 198.16 75.0004 201.4C75.0854 202.14 75.1454 202.85 75.2754 203.5C75.3304 203.825 75.3754 204.145 75.4404 204.445C75.5054 204.745 75.5754 205.035 75.6404 205.31C75.7504 205.865 75.9154 206.35 76.0354 206.78C76.1554 207.21 76.2754 207.58 76.3854 207.88L76.6204 208.57C76.6541 208.648 76.676 208.731 76.6854 208.815C76.6372 208.745 76.5985 208.67 76.5704 208.59C76.4954 208.405 76.4054 208.185 76.2904 207.915C76.1393 207.559 76.0074 207.195 75.8954 206.825C75.7604 206.395 75.5854 205.91 75.4604 205.355C75.3904 205.08 75.3204 204.79 75.2454 204.49C75.1704 204.19 75.1254 203.865 75.0604 203.54C74.9204 202.88 74.8504 202.17 74.7604 201.425C74.4474 198.164 74.7493 194.874 75.6504 191.725C75.8754 191.005 76.0754 190.32 76.3304 189.7C76.4554 189.39 76.5554 189.085 76.6854 188.8L77.0554 187.985C77.2754 187.485 77.5554 187.02 77.7504 186.62C77.9266 186.276 78.1219 185.942 78.3354 185.62L78.7354 185.005C78.8354 184.87 78.8854 184.8 78.8954 184.805Z" fill="#263238"/>
<path d="M140.711 196.825L140.611 196.895L140.301 197.09L139.086 197.82L138.206 198.32C137.876 198.505 137.511 198.675 137.121 198.87C136.331 199.25 135.461 199.735 134.431 200.125L132.831 200.78C132.276 201 131.671 201.175 131.061 201.385C129.846 201.83 128.496 202.15 127.091 202.515C120.922 203.96 114.523 204.13 108.286 203.015C106.856 202.725 105.496 202.475 104.256 202.095C103.636 201.915 103.026 201.775 102.456 201.595L100.826 201C99.7809 200.665 98.8809 200.23 98.0759 199.89C97.6759 199.715 97.3009 199.56 96.9659 199.39L96.0559 198.915L94.8059 198.25L94.4859 198.07L94.3809 198.005C94.3809 198.005 94.4259 198.005 94.5009 198.05L94.8309 198.205L96.1009 198.825L97.0159 199.275C97.3559 199.435 97.7359 199.58 98.1359 199.75C98.9409 200.07 99.8409 200.495 100.891 200.815L102.501 201.4C103.071 201.59 103.681 201.725 104.301 201.9C105.536 202.27 106.891 202.505 108.301 202.79C114.509 203.865 120.869 203.695 127.011 202.29C128.411 201.93 129.756 201.625 130.971 201.19C131.581 200.985 132.181 200.82 132.736 200.6L134.336 199.965C135.366 199.585 136.241 199.115 137.031 198.75C137.421 198.56 137.791 198.395 138.121 198.25L139.011 197.75L140.246 197.06L140.571 196.89C140.671 196.835 140.711 196.82 140.711 196.825Z" fill="#263238"/>
<path d="M145.926 91C145.895 91.0362 145.86 91.0682 145.821 91.095L145.491 91.365C145.186 91.61 144.761 91.955 144.216 92.365C143.106 93.245 141.496 94.52 139.461 96.04C137.092 97.8528 134.609 99.5097 132.026 101C130.489 101.86 128.888 102.597 127.236 103.205C125.453 103.853 123.594 104.267 121.706 104.435C118.033 104.641 114.371 103.879 111.086 102.225C109.665 101.503 108.293 100.688 106.981 99.785C105.761 98.925 104.646 98.09 103.661 97.285C101.661 95.695 100.131 94.35 99.0505 93.43L97.8155 92.36L97.5005 92.08L97.3955 91.975C97.3955 91.975 97.4405 91.975 97.5155 92.055L97.8505 92.32L99.1155 93.35C100.216 94.25 101.786 95.57 103.776 97.14C104.776 97.925 105.881 98.75 107.106 99.6C108.414 100.488 109.778 101.289 111.191 102C114.443 103.621 118.062 104.367 121.691 104.165C123.557 104 125.394 103.593 127.156 102.955C128.796 102.355 130.388 101.628 131.916 100.78C134.495 99.3167 136.981 97.6953 139.361 95.925C141.401 94.425 143.026 93.175 144.161 92.32L145.466 91.32L145.811 91.07C145.845 91.041 145.884 91.0174 145.926 91Z" fill="#263238"/>
<g opacity="0.24">
<path d="M100.83 201.025C103.2 199.195 106.53 199.635 109.46 200.255C112.39 200.875 115.34 201.87 118.305 201.455C120.54 201.14 122.59 200.045 124.805 199.565C127.02 199.085 129.685 199.44 130.91 201.335C121.119 204.49 110.569 204.381 100.845 201.025" fill="black"/>
</g>
<path d="M183.5 187.455L172.75 175.4L172.64 190.055L175.88 199.455L143.67 205.04L142.305 179.625L139.985 160.125C139.847 158.962 140.098 157.787 140.699 156.782C141.299 155.777 142.216 154.999 143.305 154.57L152.17 151.07L164.67 153.36L169.695 155.27C171.802 156.072 173.68 157.379 175.165 159.075L190.285 176.365" fill="#122750"/>
<path d="M172 172.5C172.607 172.492 173.213 172.448 173.815 172.37C175.265 172.149 176.616 171.499 177.695 170.505C178.774 169.511 179.531 168.217 179.87 166.79C179.994 166.194 180.086 165.591 180.145 164.985C180.186 165.148 180.201 165.317 180.19 165.485C180.194 165.939 180.147 166.392 180.05 166.835C179.747 168.32 178.985 169.671 177.872 170.699C176.758 171.726 175.349 172.378 173.845 172.56C173.396 172.618 172.941 172.628 172.49 172.59C172.323 172.587 172.157 172.556 172 172.5Z" fill="white"/>
<path d="M172.935 189.43C173.01 189.43 173.03 184.35 172.98 178.09C172.93 171.83 172.825 166.755 172.75 166.755C172.675 166.755 172.655 171.83 172.705 178.095C172.755 184.36 172.86 189.43 172.935 189.43Z" fill="#263238"/>
<path d="M171.755 193.155L152.295 185.32C151.526 185.01 150.858 184.492 150.368 183.823C149.878 183.154 149.584 182.362 149.52 181.535L148.095 162.875C148.095 162.875 148.265 154.935 143.305 154.55L140.5 155.66C136.855 157.595 135.955 162.905 136.45 167C137.155 172.82 137.45 181.06 138.235 186.11C138.885 190.245 141.235 193.88 145.295 194.945L169.265 200.135L171.755 193.155Z" fill="#122750"/>
<path d="M148.375 165.72C148.408 165.86 148.428 166.002 148.435 166.145C148.465 166.45 148.51 166.86 148.56 167.375C148.66 168.47 148.8 170.01 148.97 171.9C149.14 173.79 149.33 176.095 149.55 178.615C149.6 179.25 149.655 179.895 149.71 180.555C149.749 181.226 149.833 181.895 149.96 182.555C150.096 183.223 150.435 183.832 150.93 184.3C151.464 184.769 152.07 185.147 152.725 185.42C158.09 187.74 163.035 189.66 166.625 191.005L170.89 192.575L172.05 193C172.186 193.045 172.318 193.1 172.445 193.165C172.304 193.139 172.165 193.101 172.03 193.05L170.855 192.67C169.855 192.33 168.355 191.825 166.565 191.17C162.95 189.87 158 187.98 152.615 185.67C151.934 185.384 151.304 184.989 150.75 184.5C150.219 183.995 149.856 183.339 149.71 182.62C149.581 181.95 149.499 181.272 149.465 180.59C149.41 179.925 149.36 179.28 149.31 178.645C149.115 176.145 148.935 173.845 148.81 171.925C148.685 170.005 148.56 168.49 148.48 167.395C148.445 166.895 148.42 166.465 148.405 166.16C148.383 166.014 148.373 165.867 148.375 165.72Z" fill="#263238"/>
<path d="M137.225 175.865C137.245 175.947 137.257 176.031 137.26 176.115L137.325 176.835C137.385 177.5 137.46 178.395 137.555 179.485C137.65 180.575 137.8 181.93 137.995 183.4C138.186 184.992 138.479 186.57 138.87 188.125C139.054 188.926 139.376 189.689 139.82 190.38C140.254 191.015 140.741 191.612 141.275 192.165C142.185 193.101 143.236 193.889 144.39 194.5C145.466 195.047 146.619 195.424 147.81 195.62C147.725 195.631 147.64 195.631 147.555 195.62C147.313 195.604 147.073 195.572 146.835 195.525C145.956 195.361 145.104 195.073 144.305 194.67C143.119 194.073 142.038 193.286 141.105 192.34C140.552 191.781 140.05 191.173 139.605 190.525C139.138 189.815 138.8 189.028 138.605 188.2C138.208 186.633 137.919 185.041 137.74 183.435C137.56 181.935 137.44 180.625 137.36 179.505C137.28 178.385 137.235 177.475 137.21 176.845C137.21 176.555 137.21 176.315 137.21 176.12C137.202 176.035 137.207 175.949 137.225 175.865Z" fill="#263238"/>
<path d="M145.545 188.92C145.596 188.555 145.717 188.204 145.9 187.885C146.301 187.088 146.857 186.379 147.535 185.8C148.213 185.22 149 184.782 149.85 184.51C150.194 184.378 150.561 184.315 150.93 184.325C150.603 184.461 150.269 184.581 149.93 184.685C149.126 184.996 148.381 185.44 147.725 186C147.071 186.561 146.515 187.226 146.08 187.97C145.73 188.545 145.585 188.935 145.545 188.92Z" fill="#263238"/>
<path d="M149.375 174.73C149.417 174.742 149.458 174.761 149.495 174.785L149.845 174.97C150.296 175.192 150.76 175.388 151.235 175.555C152.985 176.169 154.861 176.331 156.69 176.025C159.407 175.54 161.833 174.032 163.47 171.81C164.448 170.527 165.061 169.003 165.245 167.4C165.336 166.558 165.247 165.706 164.985 164.9C164.708 164.077 164.227 163.339 163.585 162.755C162.953 162.163 162.156 161.776 161.3 161.645C160.894 161.572 160.478 161.593 160.081 161.704C159.684 161.816 159.318 162.016 159.01 162.29C158.731 162.563 158.57 162.935 158.56 163.325C158.569 163.713 158.702 164.088 158.94 164.395C159.188 164.691 159.493 164.935 159.836 165.113C160.18 165.291 160.555 165.398 160.94 165.43C162.294 165.599 163.669 165.425 164.938 164.924C166.207 164.424 167.331 163.612 168.205 162.565C168.868 161.75 169.367 160.814 169.675 159.81C169.905 159.049 170.029 158.26 170.045 157.465C170.051 156.963 170.014 156.461 169.935 155.965C169.905 155.81 169.88 155.68 169.865 155.58C169.861 155.535 169.861 155.49 169.865 155.445C170.072 156.091 170.173 156.767 170.165 157.445C170.17 158.252 170.059 159.055 169.835 159.83C169.278 161.698 168.077 163.308 166.444 164.373C164.811 165.437 162.854 165.888 160.92 165.645C160.507 165.608 160.105 165.491 159.738 165.299C159.371 165.106 159.045 164.843 158.78 164.525C158.508 164.176 158.358 163.747 158.35 163.305C158.35 162.85 158.53 162.413 158.85 162.09C159.186 161.79 159.585 161.569 160.018 161.445C160.451 161.32 160.906 161.295 161.35 161.37C162.259 161.505 163.106 161.915 163.775 162.545C164.452 163.157 164.958 163.934 165.245 164.8C165.517 165.638 165.609 166.524 165.515 167.4C165.32 169.038 164.686 170.593 163.68 171.9C162.292 173.794 160.322 175.181 158.071 175.849C155.82 176.518 153.412 176.43 151.215 175.6C150.566 175.392 149.947 175.1 149.375 174.73Z" fill="white"/>
<path d="M136.625 169.755C136.709 169.605 136.817 169.47 136.945 169.355C137.265 169.017 137.616 168.71 137.995 168.44C139.271 167.563 140.756 167.037 142.3 166.915C143.147 166.82 144.004 166.855 144.84 167.02C145.52 167.161 146.177 167.393 146.795 167.71C147.21 167.919 147.608 168.16 147.985 168.43C148.131 168.519 148.263 168.631 148.375 168.76C148.345 168.8 147.765 168.36 146.715 167.875C145.346 167.24 143.828 166.998 142.33 167.175C140.826 167.294 139.373 167.78 138.1 168.59C137.135 169.235 136.66 169.79 136.625 169.755Z" fill="white"/>
<path d="M139.74 156.41C140.215 156.857 140.744 157.241 141.315 157.555C141.939 157.875 142.618 158.075 143.315 158.145C144.165 158.23 145.022 158.11 145.815 157.795C146.593 157.463 147.279 156.949 147.815 156.295C148.258 155.749 148.597 155.128 148.815 154.46C148.995 153.833 149.097 153.187 149.12 152.535C149.169 152.707 149.191 152.886 149.185 153.065C149.194 153.555 149.128 154.044 148.99 154.515C148.786 155.217 148.447 155.873 147.99 156.445C147.442 157.162 146.714 157.721 145.88 158.065C145.045 158.41 144.135 158.527 143.24 158.405C142.515 158.323 141.813 158.099 141.175 157.745C140.746 157.509 140.354 157.209 140.015 156.855C139.897 156.725 139.804 156.574 139.74 156.41Z" fill="white"/>
<path d="M156.7 187.095C156.701 186.971 156.715 186.847 156.74 186.725C156.81 186.378 156.926 186.041 157.085 185.725C157.721 184.56 158.754 183.663 159.995 183.195C161.823 182.468 163.845 182.396 165.72 182.99C166.75 183.295 167.93 183.675 168.72 184.68C168.919 184.937 169.044 185.242 169.083 185.565C169.122 185.887 169.072 186.214 168.94 186.51C168.638 187.088 168.151 187.548 167.555 187.815C166.981 188.099 166.351 188.256 165.71 188.275C165.074 188.306 164.447 188.111 163.94 187.725C163.706 187.525 163.515 187.28 163.38 187.004C163.244 186.728 163.166 186.427 163.15 186.12C163.117 185.546 163.208 184.971 163.415 184.435C164.169 182.612 165.604 181.156 167.415 180.375C168.617 179.839 169.933 179.613 171.245 179.715C171.723 179.751 172.194 179.851 172.645 180.01C172.645 180.045 172.145 179.88 171.235 179.815C170.149 179.756 169.061 179.919 168.04 180.295C167.019 180.671 166.085 181.251 165.295 182C164.562 182.702 163.991 183.555 163.62 184.5C163.426 185.005 163.343 185.545 163.375 186.085C163.39 186.358 163.46 186.626 163.582 186.871C163.704 187.116 163.876 187.334 164.085 187.51C164.542 187.861 165.109 188.038 165.685 188.01C166.286 187.994 166.877 187.848 167.415 187.58C167.959 187.338 168.406 186.921 168.685 186.395C168.798 186.14 168.84 185.859 168.806 185.581C168.773 185.304 168.665 185.041 168.495 184.82C168.146 184.38 167.7 184.027 167.19 183.79C166.696 183.554 166.183 183.361 165.655 183.215C163.83 182.624 161.857 182.675 160.065 183.36C158.851 183.8 157.828 184.65 157.175 185.765C156.959 186.185 156.799 186.633 156.7 187.095Z" fill="white"/>
<path d="M143.74 194.12C143.74 194.07 144.48 194.01 145.605 193.62C147.074 193.103 148.39 192.226 149.433 191.07C150.475 189.913 151.212 188.514 151.575 187C151.86 185.84 151.85 185.085 151.9 185.09C151.935 185.263 151.944 185.44 151.925 185.615C151.914 186.094 151.857 186.571 151.755 187.04C151.431 188.603 150.696 190.051 149.625 191.235C148.555 192.419 147.188 193.296 145.665 193.775C145.209 193.923 144.741 194.029 144.265 194.09C144.093 194.125 143.916 194.135 143.74 194.12Z" fill="white"/>
<path d="M137.431 179.615C137.505 179.573 137.584 179.542 137.666 179.52C137.826 179.47 138.056 179.4 138.361 179.32C139.226 179.092 140.122 179.001 141.016 179.05C141.636 179.097 142.245 179.247 142.816 179.495C143.481 179.782 144.06 180.237 144.496 180.815C144.974 181.471 145.206 182.275 145.151 183.085C145.119 183.516 144.987 183.934 144.766 184.305C144.542 184.696 144.188 184.997 143.766 185.155C143.543 185.231 143.304 185.247 143.073 185.201C142.842 185.156 142.628 185.05 142.451 184.895C142.151 184.564 141.988 184.131 141.996 183.685C141.97 182.888 142.127 182.096 142.456 181.37C142.912 180.335 143.701 179.482 144.697 178.947C145.694 178.411 146.841 178.224 147.956 178.415C148.195 178.452 148.431 178.511 148.661 178.59C148.816 178.65 148.896 178.685 148.891 178.695C148.886 178.705 148.556 178.59 147.941 178.515C147.072 178.41 146.19 178.523 145.376 178.845C144.169 179.329 143.204 180.271 142.691 181.465C142.385 182.159 142.24 182.912 142.266 183.67C142.255 184.052 142.391 184.424 142.646 184.71C142.789 184.832 142.962 184.915 143.147 184.95C143.332 184.985 143.523 184.971 143.701 184.91C144.071 184.773 144.382 184.511 144.581 184.17C144.78 183.833 144.899 183.455 144.931 183.065C144.983 182.314 144.773 181.568 144.336 180.955C143.93 180.405 143.387 179.97 142.761 179.695C142.214 179.447 141.629 179.291 141.031 179.235C140.156 179.17 139.277 179.232 138.421 179.42C137.776 179.545 137.441 179.635 137.431 179.615Z" fill="white"/>
<g opacity="0.3">
<path d="M166.16 190.93C164.08 189.755 162.045 188.85 159.87 187.865C157.695 186.88 155.56 185.605 154.135 183.685C151.45 180.065 151.755 174.84 149.01 171.27C149.19 173.67 149.368 176.072 149.545 178.475C149.71 180.675 149.375 182.855 150.79 184.35C151.985 185.61 154.315 186.575 155.965 187.12C159.28 188.215 162.85 189.84 166.16 190.93Z" fill="black"/>
</g>
<path d="M200 218.355C200 218.355 216.285 222.855 216.94 223.095C217.94 223.44 217.755 227.035 216.23 226.975C215.505 226.95 203.73 227.415 202.23 227.325C200.73 227.235 196.23 225.46 196.23 225.46L200 218.355Z" fill="#122750"/>
<path d="M206.766 224.57C206.967 223.971 207.207 223.387 207.486 222.82C207.836 222.296 208.22 221.795 208.636 221.32C208.056 221.637 207.575 222.108 207.246 222.68C206.916 223.252 206.75 223.905 206.766 224.565V224.57Z" fill="#263238"/>
<path d="M205.065 223.8C205.145 223.8 205.31 223.045 205.745 222.195C206.18 221.345 206.69 220.75 206.635 220.695C206.16 221.065 205.773 221.536 205.501 222.074C205.23 222.611 205.081 223.203 205.065 223.805V223.8Z" fill="#263238"/>
<path d="M203.5 223.375C203.58 222.792 203.707 222.217 203.88 221.655C204.135 221.125 204.431 220.615 204.765 220.13C204.249 220.478 203.851 220.975 203.625 221.555C203.399 222.135 203.355 222.77 203.5 223.375Z" fill="#263238"/>
<path d="M203.766 221.27C203.909 220.884 203.969 220.471 203.941 220.06C203.935 219.612 203.88 219.166 203.776 218.73C203.713 218.472 203.631 218.22 203.531 217.975C203.483 217.82 203.393 217.681 203.271 217.575C203.188 217.514 203.087 217.484 202.985 217.489C202.883 217.495 202.786 217.536 202.711 217.605C202.584 217.726 202.508 217.89 202.496 218.065C202.483 218.208 202.483 218.352 202.496 218.495C202.497 218.763 202.531 219.03 202.596 219.29C202.704 219.726 202.872 220.145 203.096 220.535C203.275 220.911 203.522 221.25 203.826 221.535C203.866 221.535 203.591 221.13 203.266 220.465C203.076 220.08 202.933 219.674 202.841 219.255C202.788 219.01 202.761 218.76 202.761 218.51C202.761 218.26 202.761 217.95 202.911 217.83C202.94 217.803 202.978 217.788 203.018 217.788C203.058 217.788 203.096 217.803 203.126 217.83C203.207 217.91 203.268 218.007 203.306 218.115C203.401 218.35 203.483 218.59 203.551 218.835C203.665 219.25 203.737 219.675 203.766 220.105C203.796 220.805 203.721 221.265 203.766 221.27Z" fill="#263238"/>
<path d="M203.745 221.105C203.414 220.966 203.054 220.908 202.696 220.935C202.306 220.935 201.918 220.982 201.54 221.075C201.308 221.128 201.082 221.21 200.87 221.32C200.737 221.388 200.629 221.497 200.564 221.631C200.498 221.766 200.477 221.918 200.506 222.065C200.543 222.205 200.617 222.333 200.719 222.436C200.822 222.539 200.95 222.613 201.09 222.65C201.33 222.71 201.581 222.71 201.821 222.65C202.206 222.562 202.568 222.391 202.881 222.15C203.177 221.951 203.433 221.699 203.635 221.405C203.335 221.581 203.046 221.776 202.771 221.99C202.468 222.197 202.129 222.345 201.771 222.425C201.572 222.475 201.364 222.475 201.165 222.425C201.072 222.401 200.986 222.353 200.916 222.286C200.847 222.218 200.797 222.133 200.771 222.04C200.755 221.948 200.77 221.854 200.814 221.772C200.857 221.69 200.926 221.624 201.01 221.585C201.196 221.483 201.395 221.405 201.601 221.355C201.959 221.253 202.328 221.189 202.7 221.165C203.335 221.085 203.735 221.15 203.745 221.105Z" fill="#263238"/>
<path d="M209.266 224.745C209.335 224.247 209.444 223.756 209.591 223.275C209.819 222.828 210.085 222.402 210.386 222C209.911 222.259 209.541 222.673 209.337 223.173C209.133 223.673 209.108 224.228 209.266 224.745Z" fill="#263238"/>
<path d="M197.905 225.5C198.103 225.625 198.314 225.726 198.535 225.8C199.126 226.024 199.731 226.211 200.345 226.36C202.387 226.805 204.476 227.004 206.565 226.95C209.005 226.92 211.205 226.81 212.8 226.745L214.685 226.645C214.917 226.641 215.148 226.618 215.375 226.575C215.145 226.539 214.913 226.527 214.68 226.54H212.795L206.565 226.66C204.495 226.713 202.425 226.545 200.39 226.16C198.83 225.845 197.925 225.445 197.905 225.5Z" fill="#263238"/>
<path d="M197.425 225.87C197.425 225.905 197.89 225.645 198.645 225.315C199.604 224.862 200.672 224.689 201.725 224.815C202.761 225.039 203.696 225.594 204.39 226.395C204.679 226.736 204.991 227.057 205.325 227.355C205.11 226.957 204.843 226.591 204.53 226.265C204.209 225.892 203.846 225.556 203.45 225.265C202.953 224.897 202.375 224.654 201.765 224.555C200.66 224.421 199.54 224.632 198.56 225.16C198.146 225.334 197.762 225.574 197.425 225.87Z" fill="#263238"/>
<path d="M182.695 213.86C182.695 213.86 167.285 223.95 166.735 224.36C165.905 224.985 166.855 227.97 168.295 227.455C168.975 227.21 181.905 223.61 183.295 223.07C184.685 222.53 188.43 219.5 188.43 219.5L182.695 213.86Z" fill="#122750"/>
<path d="M178.121 221.84C177.935 221.206 177.578 220.634 177.09 220.189C176.601 219.744 175.999 219.441 175.351 219.315C175.892 219.64 176.412 220.001 176.906 220.395C177.34 220.851 177.746 221.333 178.121 221.84Z" fill="#263238"/>
<path d="M179.5 220.59C179.304 220.019 178.984 219.499 178.563 219.067C178.142 218.635 177.63 218.301 177.065 218.09C177.025 218.16 177.7 218.59 178.365 219.25C179.03 219.91 179.43 220.63 179.5 220.59Z" fill="#263238"/>
<path d="M180.891 219.7C180.889 219.071 180.649 218.466 180.221 218.005C179.862 217.497 179.328 217.14 178.721 217.005C179.184 217.367 179.621 217.763 180.026 218.19C180.354 218.67 180.643 219.175 180.891 219.7Z" fill="#263238"/>
<path d="M180 217.785C180.04 217.785 179.83 217.35 179.655 216.63C179.55 216.212 179.488 215.785 179.47 215.355C179.453 215.102 179.453 214.848 179.47 214.595C179.468 214.481 179.498 214.369 179.555 214.27C179.577 214.236 179.611 214.212 179.65 214.202C179.689 214.193 179.731 214.199 179.765 214.22C179.94 214.29 180.03 214.59 180.115 214.83C180.189 215.068 180.239 215.312 180.265 215.56C180.304 215.988 180.29 216.42 180.225 216.845C180.12 217.575 179.975 218.02 180.015 218.035C180.221 217.677 180.357 217.284 180.415 216.875C180.511 216.437 180.545 215.987 180.515 215.54C180.495 215.272 180.446 215.007 180.37 214.75C180.329 214.612 180.279 214.477 180.22 214.345C180.153 214.181 180.029 214.048 179.87 213.97C179.777 213.927 179.673 213.918 179.574 213.944C179.475 213.971 179.389 214.031 179.33 214.115C179.247 214.254 179.204 214.413 179.205 214.575C179.15 215.287 179.232 216.003 179.445 216.685C179.55 217.087 179.74 217.462 180 217.785Z" fill="#263238"/>
<path d="M179.945 217.62C179.945 217.66 180.325 217.48 180.945 217.325C181.308 217.238 181.678 217.188 182.05 217.175C182.263 217.16 182.476 217.174 182.685 217.215C182.777 217.228 182.863 217.269 182.929 217.334C182.996 217.399 183.04 217.483 183.055 217.575C183.06 217.674 183.037 217.773 182.991 217.861C182.944 217.949 182.875 218.023 182.79 218.075C182.618 218.183 182.423 218.248 182.22 218.265C181.855 218.301 181.486 218.263 181.135 218.155C180.809 218.033 180.475 217.934 180.135 217.86C180.417 218.085 180.74 218.255 181.085 218.36C181.456 218.502 181.854 218.562 182.25 218.535C182.497 218.522 182.736 218.446 182.945 218.315C183.069 218.239 183.17 218.131 183.238 218.003C183.305 217.874 183.337 217.73 183.33 217.585C183.313 217.436 183.247 217.297 183.143 217.189C183.04 217.08 182.903 217.009 182.755 216.985C182.521 216.943 182.282 216.933 182.045 216.955C181.656 216.981 181.272 217.053 180.9 217.17C180.552 217.244 180.225 217.398 179.945 217.62Z" fill="#263238"/>
<path d="M170.255 226.9C170.255 226.925 170.515 226.745 170.635 226.305C170.755 225.73 170.651 225.131 170.345 224.63C170.197 224.362 170.03 224.104 169.845 223.86C169.695 223.652 169.518 223.463 169.32 223.3C169.178 223.183 169.004 223.111 168.82 223.095C168.69 223.095 168.625 223.12 168.625 223.135C168.625 223.15 168.9 223.16 169.185 223.45C169.353 223.62 169.502 223.808 169.63 224.01C169.809 224.251 169.976 224.502 170.13 224.76C170.406 225.209 170.526 225.736 170.47 226.26C170.411 226.477 170.34 226.691 170.255 226.9Z" fill="#263238"/>
<path d="M175.791 222.765C175.811 222.494 175.773 222.223 175.679 221.968C175.585 221.713 175.437 221.482 175.246 221.29C175.092 221.066 174.891 220.879 174.656 220.742C174.422 220.605 174.161 220.52 173.891 220.495C174.299 220.785 174.682 221.11 175.036 221.465C175.323 221.876 175.576 222.311 175.791 222.765Z" fill="#263238"/>
<path d="M186.845 220.035C186.605 220.168 186.378 220.322 186.165 220.495C185.554 220.919 184.92 221.308 184.265 221.66C183.296 222.174 182.293 222.623 181.265 223.005C180.095 223.44 178.765 223.85 177.405 224.25C174.63 225.05 172.12 225.78 170.31 226.325L168.155 227C167.889 227.07 167.63 227.164 167.38 227.28C167.652 227.243 167.922 227.184 168.185 227.105L170.35 226.5C172.175 226 174.69 225.3 177.465 224.5C178.85 224.095 180.165 223.675 181.335 223.225C182.376 222.829 183.387 222.358 184.36 221.815C185.013 221.445 185.638 221.027 186.23 220.565C186.449 220.406 186.655 220.228 186.845 220.035Z" fill="#263238"/>
<path d="M187.416 220.24C187.001 220.057 186.561 219.939 186.111 219.89C185.015 219.687 183.884 219.827 182.871 220.29C182.323 220.577 181.853 220.992 181.501 221.5C181.211 221.901 180.967 222.334 180.776 222.79C180.575 223.195 180.432 223.626 180.351 224.07C180.577 223.684 180.777 223.283 180.951 222.87C181.368 221.894 182.091 221.079 183.011 220.55C183.978 220.115 185.049 219.96 186.101 220.105C186.901 220.17 187.406 220.28 187.416 220.24Z" fill="#263238"/>
<path d="M214.72 189.255C214.72 189.255 219.345 190.905 219.36 196.09C219.4 206.015 199.3 216.96 199.3 216.96L172.55 199.24L170.875 198.56C170.875 198.56 207 185 214.72 189.255Z" fill="#263238"/>
<path d="M186.101 208.19C186.347 208.053 186.581 207.896 186.801 207.72C187.236 207.4 187.861 206.93 188.626 206.335C190.161 205.155 192.241 203.475 194.486 201.55C196.731 199.625 198.701 197.82 200.101 196.485C200.801 195.82 201.361 195.27 201.746 194.885C201.953 194.697 202.144 194.491 202.316 194.27C202.085 194.431 201.87 194.612 201.671 194.81L199.971 196.345C198.536 197.64 196.546 199.425 194.306 201.345C192.066 203.265 190.006 204.965 188.511 206.185L186.736 207.635C186.509 207.803 186.297 207.988 186.101 208.19Z" fill="#455A64"/>
<path d="M207.17 192.965C205.421 192.78 203.669 193.296 202.3 194.4C202.345 194.475 203.3 193.85 204.67 193.46C206.04 193.07 207.17 193.05 207.17 192.965Z" fill="#455A64"/>
<path d="M204.865 191.4C204.246 191.663 203.702 192.074 203.28 192.597C202.858 193.12 202.571 193.739 202.445 194.4C202.525 194.4 202.815 193.595 203.49 192.77C204.165 191.945 204.91 191.47 204.865 191.4Z" fill="#455A64"/>
<path d="M216.19 222.84C216.19 222.81 215.87 222.745 215.5 223.05C215.064 223.456 214.791 224.007 214.73 224.6C214.642 225.183 214.726 225.779 214.97 226.315C215.16 226.72 215.37 226.91 215.395 226.89C215.329 226.668 215.247 226.45 215.15 226.24C214.975 225.726 214.924 225.178 215 224.64C215.06 224.104 215.279 223.599 215.63 223.19C215.915 222.895 216.195 222.885 216.19 222.84Z" fill="#263238"/>
<path d="M208.566 173.03L199.041 197.18L158.026 197.85L157.266 195.63L171.641 195.11L178.551 173.685L208.566 173.03Z" fill="#455A64"/>
<path d="M189.41 183.5C189.725 183.342 190.079 183.278 190.429 183.316C190.78 183.354 191.112 183.493 191.385 183.715C191.617 183.933 191.778 184.217 191.847 184.528C191.916 184.839 191.889 185.164 191.77 185.46C191.642 185.755 191.433 186.009 191.168 186.192C190.903 186.375 190.592 186.48 190.27 186.495C189.931 186.517 189.595 186.427 189.312 186.241C189.028 186.054 188.814 185.78 188.7 185.46C188.593 185.102 188.602 184.72 188.726 184.368C188.85 184.016 189.083 183.712 189.39 183.5" fill="#EBEBEB"/>
<path d="M201.83 218.17C201.83 218.17 164.04 193.38 162.5 192.865C160.96 192.35 157.21 189.9 153.475 190.93C149.74 191.96 146.38 195.315 144.705 200.215C143.745 203.015 143.295 207.79 143.08 211.375C142.793 215.662 144.183 219.893 146.955 223.175C148.183 224.707 149.814 225.865 151.665 226.52C152.06 226.645 152.47 226.75 152.89 226.84C160.035 228.39 167.39 225.18 171.39 219.07L172.27 217.73C172.27 217.73 196.995 226.81 197.38 226.685L201.83 218.17Z" fill="#263238"/>
<path d="M155.08 211.345C155.147 211.379 155.215 211.409 155.285 211.435L155.905 211.68L158.3 212.605L167.205 215.96C170.985 217.37 175.515 219.05 180.6 220.9C185.685 222.75 191.315 224.775 197.335 226.81L197.44 226.85L197.495 226.745L200.45 221.105L201.95 218.23L202.005 218.12L201.9 218.055L173.075 199.755L164.415 194.295L162.065 192.825L161.45 192.45C161.31 192.365 161.235 192.33 161.235 192.33L161.435 192.475L162.035 192.87L164.36 194.37L173 199.915L201.78 218.285L201.73 218.105C201.255 219.02 200.73 219.995 200.23 220.98L197.28 226.62L197.445 226.555C191.445 224.525 185.795 222.505 180.705 220.67L167.29 215.79L158.335 212.5L155.925 211.62L155.295 211.4L155.08 211.345Z" fill="#455A64"/>
<path d="M159 123.32C159.645 121.575 161.07 120.82 162.875 120.385C163.783 120.174 164.729 120.185 165.631 120.417C166.534 120.65 167.367 121.096 168.06 121.72C168.975 122.555 169.645 123.72 170.775 124.22C172.64 125.065 175.025 123.83 176.775 124.865C177.301 125.175 177.703 125.657 177.913 126.23C178.124 126.802 178.129 127.43 177.929 128.007C177.728 128.583 177.335 129.072 176.814 129.391C176.294 129.709 175.68 129.838 175.075 129.755C176.29 130.325 176.515 132.155 175.68 133.205C174.845 134.255 173.3 134.54 172.005 134.175C170.729 133.735 169.596 132.956 168.73 131.92C167.82 130.92 167.02 129.845 166.03 128.92C165.08 127.955 163.819 127.356 162.47 127.23C160.655 127.16 158.97 128.385 158.025 129.93C157.08 131.475 156.715 133.31 156.45 135.11C156.185 136.91 155.985 138.74 155.29 140.42C155.21 140.62 155.09 140.835 154.885 140.88C154.58 140.945 154.36 140.61 154.24 140.325C152.872 137.114 152.148 133.665 152.11 130.175C152.085 128.175 152.315 126.26 153.57 124.675C154.825 123.09 157.72 122.105 158.985 123.295" fill="#263238"/>
<path d="M154.74 131.385L151.96 151.575C151.849 152.39 151.904 153.22 152.124 154.013C152.343 154.806 152.721 155.546 153.236 156.189C153.751 156.831 154.39 157.362 155.117 157.749C155.843 158.136 156.64 158.371 157.46 158.44C159.013 158.575 160.557 158.108 161.775 157.135C162.992 156.163 163.789 154.759 164 153.215C164.205 151.715 164.38 150.43 164.415 150.275C164.415 150.275 169.62 150.5 170.69 145.465C171.19 143.03 171.865 137.93 172.41 133.31C172.685 130.919 172.051 128.512 170.634 126.567C169.217 124.622 167.12 123.281 164.76 122.81L164.26 122.715C158.935 121.955 155.335 126.055 154.74 131.385Z" fill="#FFBE9D"/>
<path d="M164.41 150.205C162.07 149.775 159.91 148.66 158.205 147C158.205 147 159.035 150.94 164.16 151.5L164.41 150.205Z" fill="#EB996E"/>
<path d="M170.235 136.4C170.2 136.588 170.092 136.755 169.935 136.864C169.778 136.974 169.584 137.017 169.395 136.985C169.302 136.975 169.212 136.945 169.131 136.899C169.049 136.854 168.978 136.792 168.921 136.717C168.864 136.643 168.823 136.558 168.799 136.467C168.776 136.377 168.771 136.282 168.785 136.19C168.819 136.001 168.927 135.833 169.084 135.722C169.241 135.612 169.436 135.568 169.625 135.6C169.718 135.611 169.808 135.641 169.89 135.687C169.972 135.734 170.043 135.796 170.1 135.871C170.157 135.945 170.198 136.031 170.221 136.122C170.245 136.212 170.249 136.307 170.235 136.4Z" fill="#263238"/>
<path d="M170.805 135.57C170.695 135.65 170.23 135.135 169.455 134.98C168.68 134.825 168.03 135.105 167.955 134.98C167.88 134.855 168.05 134.78 168.335 134.65C168.715 134.481 169.139 134.437 169.545 134.525C169.949 134.602 170.317 134.807 170.595 135.11C170.81 135.35 170.855 135.54 170.805 135.57Z" fill="#263238"/>
<path d="M162.575 135.14C162.541 135.329 162.433 135.497 162.276 135.607C162.119 135.718 161.924 135.762 161.735 135.73C161.642 135.718 161.552 135.688 161.47 135.642C161.389 135.595 161.318 135.533 161.26 135.458C161.203 135.384 161.161 135.299 161.137 135.208C161.113 135.117 161.107 135.023 161.12 134.93C161.157 134.743 161.266 134.577 161.422 134.467C161.578 134.357 161.771 134.312 161.96 134.34C162.053 134.351 162.143 134.381 162.225 134.427C162.307 134.473 162.378 134.536 162.436 134.61C162.493 134.685 162.535 134.77 162.559 134.861C162.583 134.952 162.588 135.047 162.575 135.14Z" fill="#263238"/>
<path d="M163.15 134.195C163.04 134.27 162.575 133.755 161.8 133.6C161.025 133.445 160.375 133.725 160.3 133.6C160.225 133.475 160.395 133.4 160.68 133.27C161.061 133.104 161.483 133.06 161.89 133.145C162.293 133.227 162.662 133.431 162.945 133.73C163.155 134 163.2 134.16 163.15 134.195Z" fill="#263238"/>
<path d="M164.815 140.5C165.25 140.451 165.688 140.46 166.12 140.525C166.325 140.525 166.52 140.525 166.58 140.41C166.644 140.212 166.644 139.998 166.58 139.8C166.49 139.3 166.395 138.74 166.295 138.17C165.91 135.86 165.675 133.98 165.765 133.965C165.855 133.95 166.265 135.81 166.63 138.12C166.72 138.69 166.81 139.23 166.89 139.75C166.969 140.015 166.949 140.299 166.835 140.55C166.793 140.613 166.737 140.666 166.671 140.704C166.605 140.742 166.531 140.765 166.455 140.77C166.341 140.786 166.225 140.786 166.11 140.77C165.669 140.734 165.234 140.644 164.815 140.5Z" fill="#263238"/>
<path d="M162.426 140.59C162.556 140.59 162.386 141.45 162.986 142.19C163.586 142.93 164.486 143.02 164.486 143.14C164.486 143.26 164.256 143.26 163.876 143.195C163.38 143.104 162.933 142.842 162.611 142.455C162.305 142.08 162.157 141.602 162.196 141.12C162.236 140.76 162.371 140.57 162.426 140.59Z" fill="#263238"/>
<path d="M163.955 131.19C163.84 131.39 163.085 131.135 162.15 131.06C161.215 130.985 160.435 131.09 160.35 130.875C160.315 130.775 160.485 130.605 160.82 130.46C161.265 130.285 161.744 130.216 162.22 130.26C162.699 130.297 163.162 130.447 163.57 130.7C163.875 130.9 164 131.1 163.955 131.19Z" fill="#263238"/>
<path d="M170.965 133.27C170.795 133.42 170.3 133.13 169.655 132.99C169.01 132.85 168.445 132.875 168.36 132.665C168.32 132.565 168.44 132.405 168.715 132.285C169.073 132.144 169.466 132.118 169.84 132.21C170.217 132.289 170.559 132.487 170.815 132.775C171 133 171.045 133.195 170.965 133.27Z" fill="#263238"/>
<path d="M154.405 135.205C154.325 135.15 151.14 133.485 150.56 136.96C149.98 140.435 153.59 140.3 153.61 140.2C153.63 140.1 154.405 135.205 154.405 135.205Z" fill="#FFBE9D"/>
<path d="M152.77 138.705C152.77 138.705 152.705 138.74 152.595 138.77C152.441 138.807 152.278 138.784 152.14 138.705C151.937 138.526 151.787 138.297 151.704 138.04C151.621 137.783 151.61 137.508 151.67 137.245C151.71 136.945 151.818 136.657 151.985 136.405C152.032 136.301 152.104 136.21 152.193 136.14C152.283 136.07 152.388 136.022 152.5 136C152.573 135.994 152.646 136.013 152.706 136.055C152.767 136.097 152.81 136.159 152.83 136.23C152.86 136.33 152.83 136.4 152.83 136.405C152.83 136.41 152.915 136.36 152.91 136.215C152.905 136.126 152.869 136.041 152.81 135.975C152.769 135.93 152.72 135.894 152.665 135.869C152.61 135.844 152.55 135.831 152.49 135.83C152.343 135.834 152.2 135.876 152.074 135.951C151.948 136.027 151.843 136.133 151.77 136.26C151.571 136.537 151.443 136.858 151.395 137.195C151.3 137.9 151.55 138.615 152.03 138.84C152.119 138.883 152.216 138.905 152.315 138.905C152.414 138.905 152.511 138.883 152.6 138.84C152.75 138.79 152.78 138.715 152.77 138.705Z" fill="#EB996E"/>
<path d="M173.66 132.5C172.485 132.563 171.312 132.347 170.237 131.869C169.161 131.391 168.215 130.665 167.475 129.75C166.475 128.46 165.81 126.775 164.365 125.995C163.867 125.75 163.326 125.606 162.772 125.572C162.219 125.538 161.664 125.613 161.14 125.795C160.097 126.168 159.141 126.75 158.33 127.505C158.79 130.265 157.565 133.005 156.37 135.505C156.267 135.8 156.068 136.052 155.805 136.22C155.335 136.455 154.775 136.085 154.49 135.64C154.091 134.894 153.917 134.048 153.99 133.205C154.001 131.284 154.391 129.384 155.14 127.615C155.9 125.841 157.164 124.328 158.775 123.265C160.841 122.003 163.317 121.593 165.68 122.12C168.03 122.667 170.148 123.938 171.735 125.755C172.508 126.56 173.07 127.544 173.37 128.62" fill="#263238"/>
<path d="M33.7298 213.925C33.7517 213.852 33.7819 213.781 33.8198 213.715L34.0998 213.11C34.4446 212.328 34.7239 211.518 34.9348 210.69C35.4848 208.54 35.6748 205.255 34.8598 201.355C34.4214 199.228 33.8435 197.132 33.1298 195.08C32.3948 192.855 31.5448 190.495 30.8498 187.94C30.0651 185.275 29.6859 182.508 29.7248 179.73C29.8298 176.825 30.6898 173.925 31.6348 171.04C32.5798 168.155 33.5548 165.325 33.8448 162.485C34.1726 159.752 33.6246 156.986 32.2798 154.585C31.0248 152.275 29.4548 150.305 28.2798 148.26C27.1785 146.366 26.3662 144.319 25.8698 142.185C25.1616 139.092 25.1105 135.884 25.7198 132.77C25.944 131.632 26.2789 130.518 26.7198 129.445C26.7081 129.522 26.6897 129.597 26.6648 129.67L26.4648 130.305C25.2884 134.145 25.1624 138.23 26.0998 142.135C26.6009 144.244 27.4149 146.267 28.5148 148.135C29.6898 150.135 31.2698 152.135 32.5448 154.45C33.9105 156.899 34.4686 159.716 34.1398 162.5C33.8448 165.39 32.8598 168.235 31.9198 171.12C30.9798 174.005 30.1248 176.87 30.0198 179.725C29.9763 182.475 30.3454 185.215 31.1148 187.855C31.7998 190.395 32.6448 192.755 33.3648 194.99C34.0724 197.053 34.642 199.161 35.0698 201.3C35.8648 205.23 35.6348 208.55 35.0698 210.705C34.8494 211.536 34.5515 212.345 34.1798 213.12C34.0498 213.37 33.9448 213.565 33.8698 213.715C33.83 213.789 33.7831 213.86 33.7298 213.925Z" fill="#263238"/>
<path d="M29.8748 150.275C29.8748 150.275 27.4798 142.625 31.7748 138.145C31.808 138.109 31.8507 138.083 31.8979 138.07C31.9451 138.056 31.9951 138.057 32.0423 138.07C32.0894 138.083 32.1319 138.11 32.165 138.146C32.1981 138.182 32.2205 138.227 32.2298 138.275C32.4598 139.54 32.7448 143.39 29.8748 150.275Z" fill="#122750"/>
<path d="M31.3102 140.695C31.3022 141.169 31.2469 141.642 31.1452 142.105C30.9902 143.105 30.8052 144.22 30.6002 145.48C30.3952 146.74 30.2202 147.885 30.0652 148.855C30.0247 149.329 29.9394 149.798 29.8102 150.255C29.7697 149.78 29.7848 149.302 29.8552 148.83C29.9352 147.955 30.0902 146.755 30.3052 145.435C30.5202 144.115 30.7502 142.935 30.9402 142.07C31.0103 141.599 31.1344 141.138 31.3102 140.695Z" fill="#263238"/>
<path d="M32.6846 168.325C32.6846 168.325 34.1496 160.44 40.0396 158.5C40.086 158.484 40.136 158.481 40.184 158.491C40.232 158.502 40.2761 158.526 40.3114 158.56C40.3467 158.594 40.3718 158.638 40.3838 158.685C40.3958 158.733 40.3944 158.783 40.3796 158.83C39.9996 160.04 38.4446 163.58 32.6846 168.325Z" fill="#122750"/>
<path d="M38.4351 160.525C38.2064 160.941 37.9367 161.333 37.6301 161.695C37.0401 162.485 36.3401 163.405 35.5701 164.425L33.5001 167.16C33.2417 167.558 32.9471 167.931 32.6201 168.275C32.806 167.836 33.0426 167.419 33.3251 167.035C33.8251 166.3 34.5001 165.31 35.3251 164.245C36.1501 163.18 36.8951 162.245 37.4601 161.565C37.7439 161.182 38.0711 160.833 38.4351 160.525Z" fill="#263238"/>
<path d="M31.0943 188.1C31.0943 188.1 30.2043 180.13 35.2743 176.55C35.3142 176.521 35.3614 176.504 35.4105 176.501C35.4596 176.497 35.5087 176.507 35.5523 176.53C35.5959 176.553 35.6323 176.588 35.6574 176.63C35.6824 176.672 35.6952 176.721 35.6943 176.77C35.6793 178.05 35.2243 181.885 31.0943 188.1Z" fill="#122750"/>
<path d="M34.3297 178.965C34.2346 179.431 34.0905 179.885 33.8997 180.32C33.5597 181.245 33.1647 182.32 32.7197 183.53L31.5547 186.74C31.4308 187.197 31.2633 187.64 31.0547 188.065C31.1076 187.591 31.2133 187.125 31.3697 186.675C31.6147 185.83 31.9947 184.675 32.4597 183.425C32.9247 182.175 33.3797 181.05 33.7247 180.245C33.8773 179.797 34.0802 179.367 34.3297 178.965Z" fill="#263238"/>
<path d="M35.5294 208C35.5294 208 34.9244 200 40.1194 196.61C40.16 196.582 40.2076 196.566 40.2568 196.564C40.3061 196.561 40.355 196.573 40.3981 196.597C40.4412 196.62 40.4768 196.656 40.5009 196.699C40.525 196.742 40.5366 196.791 40.5344 196.84C40.4694 198.115 39.8794 201.93 35.5294 208Z" fill="#122750"/>
<path d="M39.09 199C38.97 199.463 38.8025 199.912 38.59 200.34C38.215 201.25 37.78 202.34 37.295 203.5L36.01 206.67C35.879 207.111 35.7083 207.54 35.5 207.95C35.5672 207.479 35.6897 207.017 35.865 206.575C36.135 205.74 36.56 204.605 37.07 203.37C37.58 202.135 38.07 201.025 38.445 200.235C38.614 199.801 38.8303 199.387 39.09 199Z" fill="#263238"/>
<path d="M26.4347 143.555C26.4347 143.555 19.3297 139.845 19.1897 133.64C19.1875 133.591 19.1991 133.542 19.2232 133.499C19.2473 133.456 19.2829 133.42 19.326 133.397C19.3691 133.373 19.418 133.361 19.4673 133.364C19.5165 133.366 19.5641 133.382 19.6047 133.41C20.6597 134.14 23.5847 136.655 26.4347 143.555Z" fill="#122750"/>
<path d="M20.665 135.77C20.9972 136.109 21.2937 136.481 21.55 136.88L23.55 139.65L25.55 142.415C25.8547 142.778 26.1258 143.168 26.36 143.58C25.9841 143.279 25.648 142.931 25.36 142.545C24.795 141.875 24.05 140.915 23.27 139.83C22.49 138.745 21.81 137.74 21.335 137C21.0655 136.617 20.8407 136.204 20.665 135.77Z" fill="#263238"/>
<path d="M34.0645 160C34.0645 160 26.7495 156.73 26.2295 150.545C26.2253 150.497 26.2347 150.448 26.2565 150.404C26.2783 150.36 26.3117 150.324 26.3531 150.298C26.3944 150.272 26.4421 150.258 26.4909 150.258C26.5397 150.257 26.5876 150.27 26.6295 150.295C27.7295 150.94 30.8045 153.275 34.0645 160Z" fill="#122750"/>
<path d="M27.835 152.57C28.186 152.889 28.5043 153.243 28.785 153.625L30.955 156.27L33.13 158.905C33.4546 159.241 33.7459 159.608 34 160C33.6187 159.706 33.2715 159.371 32.965 159C32.36 158.36 31.56 157.45 30.715 156.415C29.87 155.38 29.13 154.415 28.615 153.71C28.3127 153.361 28.051 152.978 27.835 152.57Z" fill="#263238"/>
<path d="M29.8551 178.32C29.8551 178.32 24.8301 172.07 27.1901 166.32C27.208 166.275 27.2382 166.235 27.2772 166.206C27.3163 166.176 27.3627 166.158 27.4113 166.154C27.4599 166.149 27.5089 166.158 27.5528 166.179C27.5967 166.201 27.6339 166.234 27.6601 166.275C28.3351 167.38 30.0001 170.855 29.8551 178.32Z" fill="#122750"/>
<path d="M27.685 168.875C27.8531 169.318 27.9755 169.777 28.05 170.245C28.26 171.21 28.505 172.34 28.78 173.59C29.055 174.84 29.28 175.965 29.515 176.925C29.6487 177.381 29.7408 177.848 29.79 178.32C29.5679 177.896 29.4 177.446 29.29 176.98C29.04 176.135 28.745 174.98 28.465 173.65C28.185 172.32 27.965 171.15 27.825 170.29C27.7267 169.825 27.6797 169.35 27.685 168.875Z" fill="#263238"/>
<path d="M34.8347 199.89C34.8347 199.89 27.5697 196.5 27.1597 190.3C27.1566 190.252 27.1667 190.204 27.1889 190.161C27.2111 190.118 27.2446 190.082 27.2858 190.057C27.3269 190.032 27.3742 190.018 27.4225 190.018C27.4708 190.018 27.5183 190.03 27.5597 190.055C28.6497 190.74 31.6847 193.125 34.8347 199.89Z" fill="#122750"/>
<path d="M28.7246 192.365C29.0718 192.689 29.385 193.048 29.6596 193.435C30.2696 194.21 30.9896 195.115 31.7846 196.115L33.9146 198.79C34.2349 199.14 34.5227 199.518 34.7746 199.92C34.4026 199.628 34.0669 199.292 33.7746 198.92C33.1846 198.275 32.3996 197.35 31.5746 196.3C30.7496 195.25 29.9996 194.28 29.4996 193.565C29.1991 193.194 28.9392 192.792 28.7246 192.365Z" fill="#263238"/>
<path d="M49.2997 168.365C49.3067 168.425 49.3067 168.485 49.2997 168.545C49.2997 168.685 49.2997 168.85 49.2997 169.045C49.2997 169.545 49.2497 170.18 49.2147 170.99C49.1197 172.7 48.9897 175.08 48.8347 177.935C48.3347 180.835 46.8347 184.05 44.8347 187.17C43.3797 189.47 41.8347 191.565 40.5397 193.51C39.3425 195.208 38.2649 196.987 37.3147 198.835C36.6934 200.089 36.1912 201.398 35.8147 202.745C35.6847 203.22 35.5897 203.595 35.5347 203.85C35.5126 203.982 35.4774 204.111 35.4297 204.235C35.4313 204.102 35.4464 203.97 35.4747 203.84C35.5097 203.58 35.5897 203.2 35.6997 202.715C36.039 201.337 36.5181 199.996 37.1297 198.715C38.059 196.845 39.1235 195.045 40.3147 193.33C41.6197 191.37 43.1397 189.275 44.5897 186.99C46.5897 183.88 48.0297 180.715 48.5897 177.86C48.7897 175.015 48.9547 172.635 49.0897 170.925C49.1547 170.115 49.2097 169.465 49.2447 168.985C49.2447 168.785 49.2847 168.615 49.2997 168.485C49.2954 168.445 49.2954 168.405 49.2997 168.365Z" fill="#263238"/>
<path d="M45.0002 186.6C45.0002 186.6 48.0752 179.195 44.2052 174.345C44.1752 174.306 44.135 174.276 44.089 174.259C44.043 174.242 43.9932 174.237 43.9449 174.247C43.8967 174.256 43.852 174.279 43.8158 174.312C43.7797 174.345 43.7535 174.388 43.7402 174.435C43.3752 175.675 42.7402 179.5 45.0002 186.6Z" fill="#122750"/>
<path d="M44.4142 176.93C44.5468 177.386 44.629 177.856 44.6592 178.33C44.7692 179.2 44.8892 180.405 44.9842 181.74C45.0792 183.075 45.1242 184.285 45.1242 185.16C45.155 185.635 45.1265 186.112 45.0392 186.58C44.9523 186.115 44.9105 185.643 44.9142 185.17C44.8492 184.17 44.7692 183.035 44.6842 181.76C44.5992 180.485 44.5142 179.33 44.4492 178.35C44.3909 177.879 44.3792 177.403 44.4142 176.93Z" fill="#263238"/>
<g opacity="0.3">
<path d="M45.0002 186.6C45.0002 186.6 48.0752 179.195 44.2052 174.345C44.1752 174.306 44.135 174.276 44.089 174.259C44.043 174.242 43.9932 174.237 43.9449 174.247C43.8967 174.256 43.852 174.279 43.8158 174.312C43.7797 174.345 43.7535 174.388 43.7402 174.435C43.3752 175.675 42.7402 179.5 45.0002 186.6Z" fill="black"/>
</g>
<path d="M35.45 204.44C35.45 204.44 37.915 196.815 33.665 192.295C33.6321 192.259 33.5898 192.233 33.5429 192.219C33.4961 192.206 33.4463 192.206 33.3993 192.218C33.3522 192.231 33.3097 192.257 33.2763 192.293C33.2429 192.328 33.2199 192.372 33.21 192.42C32.965 193.68 32.645 197.525 35.45 204.44Z" fill="#122750"/>
<path d="M34.1045 194.845C34.2744 195.29 34.3935 195.753 34.4595 196.225C34.6395 197.08 34.8595 198.27 35.0645 199.595C35.2695 200.92 35.4095 202.12 35.4795 202.995C35.5474 203.467 35.5575 203.946 35.5095 204.42C35.3877 203.962 35.3074 203.493 35.2695 203.02C35.1245 202.02 34.9545 200.905 34.7695 199.64C34.5845 198.375 34.4045 197.235 34.2695 196.26C34.1681 195.795 34.1128 195.321 34.1045 194.845Z" fill="#263238"/>
<g opacity="0.3">
<path d="M35.45 204.44C35.45 204.44 37.915 196.815 33.665 192.295C33.6321 192.259 33.5898 192.233 33.5429 192.219C33.4961 192.206 33.4463 192.206 33.3993 192.218C33.3522 192.231 33.3097 192.257 33.2763 192.293C33.2429 192.328 33.2199 192.372 33.21 192.42C32.965 193.68 32.645 197.525 35.45 204.44Z" fill="black"/>
</g>
<path d="M48.8896 177.555C48.8896 177.555 55.4596 172.955 54.7946 166.785C54.7904 166.736 54.7726 166.689 54.7432 166.65C54.7139 166.611 54.6742 166.58 54.6286 166.562C54.583 166.544 54.5332 166.539 54.4848 166.547C54.4364 166.556 54.3914 166.577 54.3546 166.61C53.4046 167.5 50.8246 170.345 48.8896 177.555Z" fill="#122750"/>
<g opacity="0.3">
<path d="M48.8896 177.555C48.8896 177.555 55.4596 172.955 54.7946 166.785C54.7904 166.736 54.7726 166.689 54.7432 166.65C54.7139 166.611 54.6742 166.58 54.6286 166.562C54.583 166.544 54.5332 166.539 54.4848 166.547C54.4364 166.556 54.3914 166.577 54.3546 166.61C53.4046 167.5 50.8246 170.345 48.8896 177.555Z" fill="black"/>
</g>
<path d="M53.6101 169.09C53.4774 169.546 53.2946 169.985 53.0651 170.4C52.6901 171.195 52.1451 172.275 51.5101 173.455C50.8751 174.635 50.2651 175.68 49.7901 176.42C49.563 176.838 49.2823 177.225 48.9551 177.57C49.1354 177.131 49.3546 176.71 49.6101 176.31L51.2451 173.31L52.8751 170.31C53.0774 169.879 53.3237 169.47 53.6101 169.09Z" fill="#263238"/>
<path d="M38.0947 196.88C38.0947 196.88 45.9997 195.645 48.1397 189.815C48.1574 189.769 48.1619 189.719 48.1528 189.671C48.1437 189.622 48.1212 189.577 48.088 189.541C48.0547 189.505 48.012 189.478 47.9647 189.465C47.9173 189.451 47.8671 189.451 47.8197 189.465C46.5847 189.815 42.9997 191.26 38.0947 196.88Z" fill="#122750"/>
<g opacity="0.3">
<path d="M38.0947 196.88C38.0947 196.88 45.9997 195.645 48.1397 189.815C48.1574 189.769 48.1619 189.719 48.1528 189.671C48.1437 189.622 48.1212 189.577 48.088 189.541C48.0547 189.505 48.012 189.478 47.9647 189.465C47.9173 189.451 47.8671 189.451 47.8197 189.465C46.5847 189.815 42.9997 191.26 38.0947 196.88Z" fill="black"/>
</g>
<path d="M46.0593 191.36C45.7399 191.708 45.3846 192.022 44.9993 192.295C44.3143 192.845 43.3493 193.575 42.2593 194.35C41.1693 195.125 40.1593 195.8 39.4143 196.26C39.0226 196.532 38.5996 196.755 38.1543 196.925C38.5079 196.609 38.8895 196.327 39.2943 196.08L42.0893 194.11L44.8743 192.11C45.2422 191.82 45.6394 191.568 46.0593 191.36Z" fill="#263238"/>
<path d="M30.5395 211.46L28.2295 227.01H42.6295L40.7595 211.46H30.5395Z" fill="#455A64"/>
<path d="M41.3396 216.275C41.3396 216.36 38.7396 216.425 35.5296 216.425C32.3196 216.425 29.7246 216.36 29.7246 216.275C31.6558 216.127 33.5933 216.077 35.5296 216.125C37.4676 216.077 39.4067 216.127 41.3396 216.275Z" fill="#263238"/>
<path d="M41.625 217.5C41.625 217.58 38.94 217.65 35.625 217.65C32.31 217.65 29.625 217.58 29.625 217.5C29.625 217.42 32.31 217.35 35.625 217.35C38.94 217.35 41.625 217.43 41.625 217.5Z" fill="#263238"/>
</svg>
